<svg width="104" height="205" viewBox="0 0 104 205" fill="none" xmlns="http://www.w3.org/2000/svg">
<path d="M28.2866 6.52952C33.4696 3.94055 36.0597 1.72501 36.7364 0.880026L67.6113 0.753906L67.7123 0.880026C68.389 1.72501 70.9791 3.94055 76.1621 6.52952C76.7575 6.82693 77.4124 7.15604 78.1165 7.5099L78.1174 7.51035L78.1183 7.51079C81.2236 9.07126 85.286 11.1127 89.424 13.0388C94.4929 15.3982 99.714 17.6031 103.449 18.5359L103.572 18.5667L95.7756 62.4971C95.7756 62.4971 95.7756 73.2753 94.3643 82.4076C92.9531 91.54 87.051 113.818 89.275 132.334C90.2628 140.557 91.669 145.005 93.1808 149.788C93.793 151.724 94.4226 153.715 95.0487 156.035C97.2257 164.098 99.4125 176.263 100.794 204.13H3.65428C5.03619 176.263 7.22302 164.098 9.40002 156.035C10.0261 153.715 10.6557 151.724 11.2679 149.788C12.7797 145.005 14.1859 140.557 15.1737 132.334C17.3977 113.818 11.4956 91.4712 10.0844 82.4076C8.67307 73.3441 8.67307 62.4971 8.67307 62.4971L1 18.5359C4.73472 17.6031 9.95577 15.3982 15.0247 13.0388C19.1632 11.1125 23.226 9.07084 26.3313 7.5103L26.3318 7.51008C27.0361 7.15615 27.6911 6.82698 28.2866 6.52952Z" fill="#5C7B96"/>
<path d="M36.8374 0.753906L36.7364 0.880026M36.7364 0.880026C36.0597 1.72501 33.4696 3.94055 28.2866 6.52952C27.691 6.82705 27.0358 7.1563 26.3313 7.5103C23.226 9.07084 19.1632 11.1125 15.0247 13.0388C9.95577 15.3982 4.73472 17.6031 1 18.5359M36.7364 0.880026L67.6113 0.753906L67.7123 0.880026C68.389 1.72501 70.9791 3.94055 76.1621 6.52952C76.7577 6.82706 77.4129 7.15632 78.1174 7.51035C81.2228 9.07087 85.2856 11.1125 89.424 13.0388C94.4929 15.3982 99.714 17.6031 103.449 18.5359L103.572 18.5667L95.7756 62.4971C95.7756 62.4971 95.7756 73.2753 94.3643 82.4076C92.9531 91.54 87.051 113.818 89.275 132.334C90.2628 140.557 91.669 145.005 93.1808 149.788C93.793 151.724 94.4226 153.715 95.0487 156.035C97.2257 164.098 99.4125 176.263 100.794 204.13H3.65428C5.03619 176.263 7.22302 164.098 9.40002 156.035C10.0261 153.715 10.6557 151.724 11.2679 149.788C12.7797 145.005 14.1859 140.557 15.1737 132.334C17.3977 113.818 11.4956 91.4712 10.0844 82.4076C8.67307 73.3441 8.67307 62.4971 8.67307 62.4971L1 18.5359M1 18.5359H1.00119" stroke="#B1B4B6" stroke-width="0.5" stroke-linejoin="round" stroke-dasharray="2 2"/>
</svg>
