<svg width="58" height="68" viewBox="0 0 58 68" fill="none" xmlns="http://www.w3.org/2000/svg">
<path d="M13.6512 6.78625C18.5853 2.08884 24.6816 0.666893 28.9636 0.6073C33.2968 0.6669 39.3923 2.08917 44.3127 6.78585C49.3309 11.5758 53.195 19.8371 52.6452 33.7389L52.6201 34.3747L53.2324 34.1998C53.7098 34.0635 54.4738 33.9831 55.1835 34.1781C55.8688 34.3663 56.5023 34.8068 56.8152 35.7445C56.9043 36.0115 56.942 36.3991 56.9155 36.902C56.8893 37.3987 56.8022 37.9773 56.6651 38.6094C56.391 39.8734 55.9245 41.3164 55.3836 42.6814C54.8425 44.047 54.2337 45.3181 53.6811 46.2404C53.4037 46.7035 53.1496 47.0633 52.9344 47.3013C52.8265 47.4206 52.7396 47.4967 52.6756 47.5398C52.648 47.5585 52.6303 47.5671 52.6219 47.5707C52.327 47.5801 52.1285 47.7799 52.02 47.9189C51.8965 48.0771 51.7899 48.2838 51.6943 48.507C51.5009 48.9582 51.3069 49.5871 51.105 50.3186C50.9312 50.9484 50.7468 51.6722 50.5489 52.4496L50.4478 52.8461C50.2104 53.7764 49.9525 54.7753 49.6662 55.7911C49.0925 57.8266 48.4104 59.9091 47.5655 61.6186C46.7115 63.3464 45.7345 64.602 44.6191 65.1084L44.3489 65.2311C43.0018 65.9445 40.6763 66.9109 38.4641 66.9109H19.5678C18.4616 66.9109 15.7262 66.098 13.5749 65.2311L13.3047 65.1084C12.1893 64.602 11.2123 63.3464 10.3583 61.6186C9.51338 59.9091 8.83135 57.8266 8.25764 55.7911C7.97136 54.7753 7.71344 53.7764 7.47604 52.8461L7.37497 52.4496C7.17698 51.6722 6.99262 50.9484 6.81879 50.3186C6.61693 49.5871 6.42289 48.9582 6.22956 48.507C6.13391 48.2838 6.02729 48.0771 5.90385 47.9189C5.79537 47.7799 5.59686 47.5801 5.30193 47.5707C5.29347 47.5671 5.27586 47.5585 5.24824 47.5398C5.1842 47.4967 5.09734 47.4206 4.98946 47.3013C4.77425 47.0633 4.52011 46.7035 4.24267 46.2404C3.69015 45.3181 3.08129 44.047 2.54022 42.6814C1.99936 41.3164 1.5328 39.8734 1.25867 38.6094C1.12159 37.9773 1.03454 37.3987 1.00833 36.902C0.981792 36.3991 1.01956 36.0115 1.10865 35.7445C1.42151 34.8068 2.05504 34.3663 2.74036 34.1781C3.45004 33.9831 4.21397 34.0635 4.69142 34.1998L5.30375 34.3747L5.2786 33.7389C4.72883 19.838 8.61932 11.5767 13.6512 6.78625Z" fill="#5C7B96" stroke="#B1B4B6" stroke-width="0.5" stroke-linecap="round" stroke-linejoin="round" stroke-dasharray="2 2"/>
</svg>
