<svg version="1.2" xmlns="http://www.w3.org/2000/svg" viewBox="0 0 352 634" width="352" height="634">
<style>
.s0 { fill: #ffffff }
.s1 { fill: none;stroke: #b1b4b6;stroke-linejoin: round;stroke-width: .5;stroke-dasharray: 2,2 }
.s2 { fill: #f2f2f1;stroke: #b1b4b6;stroke-linejoin: round;stroke-width: .5;stroke-dasharray: 2,2 }
.s3 { fill: #ffffff;stroke: #b1b4b6;stroke-linecap: round;stroke-width: .5;stroke-dasharray: 2,2 }
.s4 { fill: #f2f2f1;stroke: #b1b4b6;stroke-linecap: round;stroke-linejoin: round;stroke-width: .5;stroke-dasharray: 2,2 }
.s5 { fill: #f2f2f1 }
.s6 { fill: #f2f2f1;stroke: #6e777a;stroke-linecap: round;stroke-linejoin: round;stroke-width: .5;stroke-dasharray: 2,2 }
.s7 { fill: #ffffff;stroke: #b1b4b6;stroke-linecap: round;stroke-linejoin: round;stroke-width: .5;stroke-dasharray: 2,2 }
.s8 { fill: none;stroke: #a4a4a4;stroke-linecap: round;stroke-linejoin: round }
.s9 { fill: none;stroke: #a4a4a4;stroke-linejoin: round;stroke-width: 1.5 }
</style>
<path fill-rule="evenodd" class="s0" d="m1 1h350v632h-350z"/>
<path class="s0" d="m59.29 90.78c5.18-2.59 7.77-4.81 8.45-5.65l30.87-0.13 0.1 0.13c0.68 0.84 3.27 3.06 8.45 5.65q0.9 0.44 1.96 0.98c3.1 1.56 7.17 3.6 11.3 5.52 5.07 2.36 10.29 4.57 14.03 5.5l0.12 0.03-7.79 43.93c0 0 0 10.78-1.42 19.91-1.41 9.14-7.31 31.41-5.08 49.93 0.98 8.22 2.39 12.67 3.9 17.45 0.61 1.94 1.24 3.93 1.87 6.25 2.18 8.06 4.36 20.23 5.74 48.1h-97.14c1.39-27.87 3.57-40.04 5.75-48.1 0.63-2.32 1.26-4.31 1.87-6.25 1.51-4.78 2.92-9.23 3.9-17.45 2.23-18.52-3.67-40.86-5.09-49.93-1.41-9.06-1.41-19.91-1.41-19.91l-7.67-43.96c3.73-0.93 8.96-3.14 14.02-5.5 4.14-1.92 8.21-3.96 11.31-5.52q1.06-0.54 1.96-0.98z"/>
<path class="s1" d="m67.74 85.13l30.87-0.13 0.1 0.13c0.68 0.84 3.27 3.06 8.45 5.65q0.9 0.44 1.96 0.98c3.1 1.56 7.17 3.6 11.3 5.52 5.07 2.36 10.29 4.57 14.03 5.5l0.12 0.03-7.79 43.93c0 0 0 10.78-1.42 19.91-1.41 9.14-7.31 31.42-5.08 49.93 0.98 8.22 2.39 12.67 3.9 17.45 0.61 1.94 1.24 3.93 1.87 6.25 2.18 8.06 4.36 20.23 5.74 48.1h-97.14c1.39-27.87 3.57-40.04 5.75-48.1 0.63-2.32 1.26-4.31 1.87-6.25 1.51-4.78 2.92-9.23 3.9-17.45 2.23-18.51-3.67-40.86-5.09-49.93-1.41-9.06-1.41-19.91-1.41-19.91l-7.67-43.96m35.74-17.65c-0.68 0.84-3.27 3.06-8.45 5.65q-0.9 0.44-1.96 0.98c-3.1 1.56-7.17 3.6-11.31 5.52-5.06 2.36-10.29 4.57-14.02 5.5m35.84-17.78l-0.1 0.13m-35.74 17.65"/>
<path class="s2" d="m252.2 84.89q0 0.1 0.07 0.17 0.08 0.08 0.18 0.08h0.97c0.14 0 0.25-0.11 0.25-0.25h1.43c0 0.14 0.12 0.25 0.25 0.25h1.94c0.14 0 0.25-0.11 0.25-0.25h1.44c0 0.14 0.11 0.25 0.25 0.25h1.93c0.14 0 0.25-0.11 0.25-0.25h1.44c0 0.14 0.11 0.25 0.25 0.25h1.93c0.14 0 0.25-0.11 0.25-0.25h1.44c0 0.14 0.11 0.25 0.25 0.25h1.94c0.14 0 0.25-0.11 0.25-0.25h1.43c0 0.14 0.11 0.25 0.25 0.25h1.94c0.14 0 0.25-0.11 0.25-0.25h1.43c0 0.14 0.12 0.25 0.25 0.25h1.94c0.14 0 0.25-0.11 0.25-0.25h1.44c0 0.14 0.11 0.25 0.25 0.25h1.93c0.14 0 0.25-0.11 0.25-0.25h1.44c0 0.14 0.11 0.25 0.25 0.25h0.97q0.1 0 0.17-0.08 0.08-0.07 0.08-0.17l-0.01-0.93c0-0.14-0.11-0.25-0.25-0.25l-0.01-1.35c0.14 0 0.25-0.12 0.25-0.25l-0.01-1.86c0-0.14-0.11-0.25-0.25-0.25l-0.01-1.35c0.14 0 0.25-0.11 0.25-0.25l-0.01-1.86c0-0.13-0.11-0.25-0.25-0.24l-0.01-1.36c0.14 0 0.25-0.11 0.25-0.25l-0.01-1.85c0-0.14-0.11-0.25-0.25-0.25l-0.01-1.36c0.14 0 0.25-0.11 0.25-0.25l-0.01-1.85c0-0.14-0.11-0.25-0.25-0.25l-0.01-1.36c0.14 0 0.25-0.11 0.25-0.25v-0.92q-0.01-0.14-0.13-0.22-0.12-0.06-0.24 0-0.31 0.16-0.68 0.34c-0.13 0.05-0.18 0.2-0.12 0.33q-0.45 0.2-0.97 0.4c-0.04-0.13-0.19-0.2-0.32-0.15q-0.69 0.25-1.45 0.44c-0.13 0.03-0.21 0.16-0.18 0.3q-0.51 0.11-1.03 0.17c-0.01-0.13-0.13-0.23-0.27-0.22q-0.38 0.04-0.75 0.04h-0.94c-0.14 0-0.25 0.11-0.25 0.25h-1.39c0-0.14-0.12-0.25-0.25-0.25h-1.89c-0.14 0-0.25 0.11-0.25 0.25h-1.39c0-0.14-0.12-0.25-0.25-0.25h-1.89c-0.14 0-0.25 0.11-0.25 0.25h-1.39c0-0.14-0.11-0.25-0.25-0.25h-1.89c-0.14 0-0.25 0.11-0.25 0.25h-1.39c0-0.14-0.11-0.25-0.25-0.25h-1.89c-0.14 0-0.25 0.11-0.25 0.25h-1.39c0-0.14-0.11-0.25-0.25-0.25h-0.95q-0.28 0-0.73-0.08c-0.13-0.02-0.26 0.07-0.29 0.2q-0.47-0.09-1.03-0.24c0.03-0.13-0.04-0.27-0.18-0.3q-0.71-0.2-1.48-0.45c-0.13-0.04-0.27 0.03-0.32 0.16q-0.5-0.17-1-0.35c0.05-0.13-0.01-0.28-0.14-0.32q-0.37-0.14-0.72-0.28-0.13-0.05-0.24 0.02-0.1 0.08-0.11 0.21v0.92c0 0.14 0.11 0.25 0.24 0.25v1.36c-0.14 0-0.25 0.11-0.25 0.25l-0.01 1.85c0 0.14 0.11 0.25 0.25 0.25l-0.01 1.36c-0.14 0-0.25 0.11-0.25 0.25l-0.01 1.85c0 0.14 0.11 0.25 0.25 0.25l-0.01 1.36c-0.14-0.01-0.25 0.11-0.25 0.24l-0.01 1.86c0 0.14 0.11 0.25 0.24 0.25v1.35c-0.14 0-0.25 0.11-0.25 0.25l-0.01 1.86c0 0.13 0.11 0.25 0.24 0.25v1.35c-0.14 0-0.25 0.11-0.25 0.25z"/>
<path class="s3" d="m83 288.4h48.34c3.51 31.5-6.94 104.24-9.5 115.5-2.49 11 1 39.5 2.5 48 1.5 8.5 1.51 13.5 1.01 28-0.39 11.19-5 43.5-9.51 61l-2.5 28.5-16.49-0.5c1-3.5 2-23.5 1.5-34-0.41-8.55-5-48.5-5.51-68 0-9-0.49-29-2.5-35.5-1.58-5.15-2.99-15.5-2-24.5l1.5-60.5c-0.99-13.5-3.5-39.2-3.5-44 0-4.8-2.23-5.84-3.34-5.76z"/>
<path class="s3" d="m83.25 288.4h-48.34c-3.5 31.5 6.95 104.24 9.5 115.5 2.5 11-1 39.5-2.5 48-1.5 8.5-1.5 13.5-1 28 0.38 11.19 5 43.5 9.5 61l2.5 28.5 16.5-0.5c-1-3.5-2-23.5-1.5-34 0.4-8.55 5-48.5 5.5-68 0-9 0.5-29 2.5-35.5 1.59-5.15 3-15.5 2-24.5l-1.5-60.5c1-13.5 3.5-39.2 3.5-44 0-4.8 2.23-5.84 3.34-5.76z"/>
<path class="s4" d="m268 288.4h48.34c3.51 31.5-6.94 104.24-9.5 115.5-2.49 11 1 39.5 2.5 48 1.5 8.5 1.51 13.5 1.01 28-0.39 11.19-5 43.5-9.51 61l-2.5 28.5-16.49-0.5c1-3.5 2-23.5 1.5-34-0.41-8.55-5-48.5-5.51-68 0-9-0.49-29-2.5-35.5-1.58-5.15-2.99-15.5-2-24.5l1.5-60.5c-0.99-13.5-3.5-39.2-3.5-44 0-4.8-2.23-5.84-3.34-5.76z"/>
<path class="s4" d="m268.25 288.4h-48.34c-3.5 31.5 6.95 104.24 9.5 115.5 2.5 11-1 39.5-2.5 48-1.5 8.5-1.5 13.5-1 28 0.38 11.19 5 43.5 9.5 61l2.5 28.5 16.5-0.5c-1-3.5-2-23.5-1.5-34 0.4-8.55 5-48.5 5.5-68 0-9 0.5-29 2.5-35.5 1.59-5.15 3-15.5 2-24.5l-1.5-60.5c1-13.5 3.5-39.2 3.5-44 0-4.8 2.23-5.84 3.34-5.76z"/>
<path class="s5" d="m299.49 574.59q-0.07-0.58-0.17-1.17l-0.34-3.77-16.31-0.46-1.46 2.36q-0.1 0.15-0.2 0.29v0.01l-0.02 0.01q-0.44 0.62-0.81 1.2c-0.63 0.97-1.03 1.79-1.03 2.57 0 0.4 0.13 1.09 0.35 2.02q0.22 0.91 0.5 1.99 0.14 0.57 0.29 1.17c0.58 2.29 1.17 4.88 1.17 6.79 0 1.88-0.58 7.21-1.27 13-0.36 3.04-0.76 6.21-1.11 9.1-0.33 2.66-0.63 5.08-0.85 6.96-0.45 3.83 0.34 7.86 2.35 10.92 1.99 3.05 5.19 5.14 9.64 5.14 3.53 0 7.04-1.84 10.02-4.21 2.93-2.33 5.29-5.12 6.59-7.01 0.86-6.77-1.39-15.02-3.75-22.54q-0.48-1.55-0.97-3.05c-0.84-2.63-1.63-5.12-2.22-7.33-0.81-3.04-1.28-5.67-0.91-7.51 0.69-3.43 0.68-5.1 0.51-6.48z"/>
<path class="s5" d="m237.19 574.59q0.07-0.58 0.17-1.17l0.34-3.77 16.31-0.46 1.46 2.36q0.1 0.15 0.2 0.29v0.01l0.02 0.01q0.44 0.62 0.81 1.2c0.63 0.97 1.02 1.79 1.02 2.57 0 0.4-0.12 1.09-0.34 2.02q-0.22 0.91-0.5 1.99-0.14 0.57-0.29 1.17c-0.58 2.29-1.17 4.88-1.17 6.79 0 1.88 0.58 7.21 1.27 13 0.36 3.04 0.75 6.21 1.11 9.1 0.33 2.66 0.63 5.08 0.85 6.96 0.45 3.83-0.34 7.86-2.35 10.92-1.99 3.05-5.19 5.14-9.64 5.14-3.53 0-7.04-1.84-10.02-4.21-2.93-2.33-5.29-5.12-6.59-7.01-0.86-6.77 1.39-15.02 3.75-22.54q0.48-1.55 0.97-3.05c0.84-2.63 1.63-5.12 2.22-7.33 0.81-3.04 1.28-5.67 0.91-7.51-0.69-3.43-0.68-5.1-0.51-6.48z"/>
<path class="s6" d="m188.18 323.26c-0.61-6-1.84-19.05-1.84-23.44l14.29-2.22c0.47 2.8 1.06 4.36 2.03 5.82 0.48 0.71 1.04 1.39 1.71 2.17q0.17 0.21 0.36 0.42c0.58 0.68 1.24 1.45 1.99 2.39 1.77 2.21 2.67 5.44 3.19 8.54 0.25 1.53 0.41 3.02 0.53 4.3q0.04 0.37 0.07 0.72c0.09 0.96 0.17 1.77 0.26 2.34 0.1 0.56 0.15 1.04 0.2 1.51q0.02 0.15 0.04 0.29c0.06 0.57 0.14 1.13 0.29 1.77 0.3 1.29 0.89 2.89 2.28 5.55 2.18 4.16 1.76 6.9 1.38 7.64l-0.2 0.41 0.41 0.21c0.33 0.16 0.73 0.63 1 1.21q0.19 0.44 0.24 0.82 0.04 0.39-0.06 0.57c-0.27 0.54-0.79 0.67-0.97 0.67h-1.12l0.79 0.78c0.64 0.64 0.79 1.1 0.79 1.46 0 0.39-0.18 0.76-0.42 1.24q-0.13 0.26-0.52 0.31c-0.28 0.03-0.58-0.02-0.76-0.09l-1.48-0.49 0.97 1.22c0.72 0.89 0.87 1.44 0.86 1.71-0.01 0.18-0.07 0.26-0.12 0.3-3.71-0.21-7.31-2.02-10.32-4.25-3-2.21-5.38-4.8-6.68-6.53-0.36-1.67-1.85-5.56-5.17-8.88-3.23-3.22-4.02-7-4.02-8.42v-0.03z"/>
<path class="s6" d="m349.16 323.26c0.61-6 1.84-19.05 1.84-23.44l-14.29-2.22c-0.47 2.8-1.06 4.36-2.03 5.82-0.48 0.71-1.04 1.39-1.71 2.17q-0.17 0.21-0.36 0.42c-0.58 0.68-1.24 1.45-1.99 2.39-1.77 2.21-2.67 5.44-3.19 8.54-0.26 1.53-0.41 3.02-0.54 4.3q-0.03 0.37-0.06 0.72c-0.09 0.96-0.17 1.77-0.26 2.34-0.1 0.56-0.15 1.04-0.2 1.51q-0.02 0.15-0.04 0.29c-0.06 0.57-0.14 1.13-0.29 1.77-0.3 1.29-0.89 2.89-2.29 5.55-2.17 4.16-1.75 6.9-1.37 7.64l0.2 0.41-0.41 0.21c-0.33 0.16-0.73 0.63-1 1.21q-0.19 0.44-0.24 0.82-0.04 0.39 0.06 0.57c0.27 0.54 0.79 0.67 0.97 0.67h1.12l-0.79 0.78c-0.64 0.64-0.79 1.1-0.79 1.46 0 0.39 0.18 0.76 0.41 1.24q0.14 0.26 0.53 0.31c0.28 0.03 0.58-0.02 0.76-0.09l1.48-0.49-0.97 1.22c-0.72 0.89-0.87 1.44-0.86 1.71 0.01 0.18 0.07 0.26 0.12 0.3 3.71-0.21 7.3-2.02 10.32-4.25 3-2.21 5.38-4.8 6.68-6.53 0.36-1.67 1.85-5.56 5.17-8.88 3.23-3.22 4.02-7 4.02-8.42v-0.03z"/>
<path class="s4" d="m312.95 166.09c-1.06-8.63-1.31-18.1-1.31-18.1l7.67-45.8 0.12 0.03c3.66 0.91 8.83 2.81 13.21 9.18 4.39 6.38 8.02 17.32 8.44 36.4 0.16 6.91 0.74 23.77 1.85 35.94 1.1 12.15 1.38 21.31 1.38 24.36v0.05l0.01 0.04c1.68 9.05 4.87 31.17 4.14 47.32-0.47 10.16 0 19.96 0.57 27.91 0.24 3.22 0.49 6.15 0.71 8.66v0.03q0.08 0.87 0.14 1.66c0.25 2.87 0.42 5.07 0.42 6.42l-14.29-2.22c0.47-2.82 0.46-7.35 0.17-11.68-0.28-4.32-0.86-8.51-1.57-10.65-1.1-3.29-4.75-18.21-6.45-25.28v-0.01-0.01c-1.07-3.91-2.68-10.07-4.03-15.85-0.67-2.89-1.27-5.69-1.71-8.05-0.43-2.38-0.69-4.29-0.69-5.44 0-5.99-0.47-17.09-1.86-23.58-1.11-5.17-5.85-22.7-6.92-31.33z"/>
<path class="s0" d="m244.29 90.78c5.18-2.59 7.77-4.81 8.45-5.65l30.87-0.13 0.1 0.13c0.68 0.84 3.27 3.06 8.45 5.65q0.9 0.44 1.96 0.98c3.1 1.56 7.17 3.6 11.3 5.52 5.07 2.36 10.29 4.57 14.03 5.5l0.12 0.03-7.79 43.93c0 0 0 10.78-1.42 19.91-1.41 9.14-7.31 31.41-5.09 49.93 0.99 8.22 2.4 12.67 3.91 17.45 0.61 1.94 1.24 3.93 1.87 6.25 2.18 8.06 4.36 20.23 5.74 48.1h-97.14c1.39-27.87 3.57-40.04 5.75-48.1 0.63-2.32 1.26-4.31 1.87-6.25 1.51-4.78 2.92-9.23 3.9-17.45 2.23-18.52-3.67-40.86-5.09-49.93-1.41-9.06-1.41-19.91-1.41-19.91l-7.67-43.96c3.74-0.93 8.96-3.14 14.03-5.5 4.13-1.92 8.2-3.96 11.3-5.52q1.06-0.54 1.96-0.98z"/>
<path class="s1" d="m252.74 85.13l30.87-0.13 0.1 0.13c0.68 0.84 3.27 3.06 8.45 5.65q0.9 0.44 1.96 0.98c3.1 1.56 7.17 3.6 11.3 5.52 5.07 2.36 10.29 4.57 14.03 5.5l0.12 0.03-7.79 43.93c0 0 0 10.78-1.42 19.91-1.41 9.14-7.31 31.42-5.09 49.93 0.99 8.22 2.4 12.67 3.91 17.45 0.61 1.94 1.24 3.93 1.87 6.25 2.18 8.06 4.36 20.23 5.74 48.1h-97.14c1.39-27.87 3.57-40.04 5.75-48.1 0.63-2.32 1.26-4.31 1.87-6.25 1.51-4.78 2.92-9.23 3.9-17.45 2.23-18.51-3.67-40.86-5.09-49.93-1.41-9.06-1.41-19.91-1.41-19.91l-7.67-43.96m35.74-17.65c-0.68 0.84-3.27 3.06-8.45 5.65q-0.9 0.44-1.96 0.98c-3.1 1.56-7.17 3.6-11.31 5.52-5.06 2.36-10.28 4.57-14.02 5.5m35.84-17.78l-0.1 0.13m-35.74 17.65"/>
<path class="s4" d="m223.69 166c1.07-8.63 1.32-18.1 1.32-18.1l-7.67-45.8-0.13 0.03c-3.66 0.91-8.83 2.81-13.2 9.18-4.4 6.38-8.03 17.32-8.45 36.4-0.15 6.91-0.74 23.77-1.84 35.94-1.11 12.15-1.38 21.31-1.38 24.36v0.05l-0.01 0.04c-1.69 9.04-4.88 31.16-4.14 47.32 0.46 10.15 0 19.96-0.58 27.91-0.23 3.22-0.49 6.15-0.7 8.66l-0.01 0.03q-0.07 0.86-0.14 1.66c-0.25 2.87-0.42 5.06-0.42 6.42l14.3-2.22c-0.47-2.82-0.47-7.36-0.18-11.68 0.29-4.32 0.87-8.51 1.58-10.65 1.1-3.29 4.75-18.21 6.44-25.28v-0.01-0.01c1.08-3.91 2.69-10.07 4.03-15.85 0.67-2.9 1.28-5.69 1.71-8.05 0.44-2.38 0.7-4.29 0.7-5.44 0-5.99 0.46-17.09 1.85-23.58 1.11-5.17 5.86-22.7 6.92-31.33z"/>
<path class="s4" d="m252.65 7.68c4.93-4.7 11.03-6.12 15.31-6.18 4.34 0.06 10.43 1.48 15.35 6.18 5.02 4.79 8.88 13.05 8.33 26.95l-0.02 0.64 0.61-0.18c0.48-0.13 1.24-0.21 1.95-0.02 0.69 0.19 1.32 0.63 1.63 1.57q0.14 0.4 0.11 1.15-0.05 0.76-0.25 1.71c-0.28 1.27-0.75 2.71-1.29 4.07-0.54 1.37-1.15 2.64-1.7 3.56q-0.42 0.7-0.75 1.06-0.16 0.18-0.25 0.24-0.05 0.03-0.06 0.03c-0.29 0.01-0.49 0.21-0.6 0.35q-0.18 0.25-0.33 0.59c-0.19 0.45-0.38 1.08-0.58 1.81q-0.27 0.96-0.56 2.13l-0.1 0.4q-0.36 1.41-0.78 2.94c-0.58 2.04-1.26 4.12-2.11 5.83-0.85 1.73-1.83 2.98-2.94 3.49l-0.27 0.12c-1.35 0.72-3.67 1.68-5.89 1.68h-18.89c-1.11 0-3.84-0.81-6-1.68l-0.26-0.12c-1.12-0.51-2.1-1.76-2.95-3.49-0.85-1.71-1.53-3.79-2.1-5.83q-0.43-1.53-0.78-2.94l-0.11-0.4q-0.29-1.17-0.55-2.13c-0.2-0.73-0.4-1.36-0.59-1.81q-0.14-0.34-0.33-0.59c-0.11-0.14-0.3-0.34-0.6-0.35q-0.01 0-0.05-0.03-0.1-0.06-0.26-0.24-0.33-0.36-0.75-1.06c-0.55-0.92-1.16-2.19-1.7-3.56-0.54-1.36-1.01-2.8-1.28-4.07q-0.21-0.95-0.25-1.71-0.04-0.75 0.1-1.15c0.31-0.94 0.95-1.38 1.63-1.57 0.71-0.19 1.47-0.11 1.95 0.02l0.61 0.18-0.02-0.64c-0.55-13.9 3.34-22.16 8.37-26.95z"/>
<path class="s7" d="m164.24 323.66c0.62-5.99 1.84-19.04 1.84-23.43l-14.29-2.23c-0.47 2.8-1.06 4.37-2.03 5.82-0.48 0.72-1.04 1.4-1.71 2.17q-0.17 0.21-0.36 0.43c-0.58 0.67-1.23 1.44-1.99 2.38-1.76 2.21-2.67 5.45-3.19 8.54-0.25 1.54-0.41 3.02-0.53 4.3q-0.04 0.37-0.07 0.73c-0.09 0.95-0.17 1.76-0.26 2.34-0.09 0.55-0.15 1.03-0.2 1.5q-0.02 0.15-0.04 0.3c-0.06 0.56-0.14 1.12-0.29 1.76-0.3 1.29-0.89 2.89-2.28 5.55-2.18 4.16-1.75 6.9-1.38 7.64l0.2 0.41-0.41 0.21c-0.32 0.16-0.73 0.63-0.99 1.22q-0.2 0.43-0.25 0.81-0.03 0.39 0.07 0.57c0.27 0.54 0.78 0.67 0.97 0.67h1.11l-0.79 0.79c-0.63 0.63-0.79 1.1-0.79 1.45 0 0.4 0.18 0.76 0.42 1.24q0.13 0.27 0.53 0.31c0.27 0.03 0.57-0.02 0.75-0.08l1.48-0.5-0.97 1.22c-0.71 0.89-0.86 1.44-0.86 1.72 0.01 0.17 0.07 0.25 0.13 0.29 3.7-0.21 7.3-2.02 10.31-4.24 3-2.22 5.39-4.81 6.68-6.54 0.36-1.67 1.85-5.56 5.17-8.88 3.23-3.22 4.02-7 4.02-8.42v-0.03z"/>
<path class="s7" d="m52.22 574.21q0.08-0.58 0.18-1.17l0.34-3.78 16.31-0.46 1.46 2.37q0.1 0.15 0.2 0.29l0.01 0.02h0.01q0.44 0.62 0.81 1.19c0.63 0.98 1.02 1.8 1.02 2.57 0 0.4-0.13 1.1-0.34 2.03q-0.22 0.91-0.5 1.99-0.14 0.57-0.29 1.17c-0.58 2.29-1.17 4.88-1.17 6.79 0 1.87 0.58 7.2 1.27 13 0.36 3.04 0.75 6.21 1.11 9.1 0.33 2.65 0.63 5.08 0.85 6.96 0.45 3.82-0.34 7.85-2.35 10.92-1.99 3.04-5.2 5.14-9.64 5.14-3.53 0-7.04-1.85-10.02-4.22-2.93-2.33-5.29-5.12-6.59-7-0.86-6.77 1.39-15.03 3.74-22.54q0.49-1.56 0.97-3.06c0.84-2.63 1.64-5.11 2.23-7.33 0.81-3.03 1.28-5.67 0.91-7.51-0.69-3.42-0.68-5.1-0.52-6.47z"/>
<path class="s7" d="m114.29 574.31q-0.08-0.58-0.18-1.17l-0.34-3.78-16.31-0.46-1.46 2.37q-0.1 0.15-0.2 0.29l-0.01 0.02q-0.44 0.62-0.82 1.19c-0.63 0.98-1.02 1.8-1.02 2.58 0 0.39 0.13 1.09 0.35 2.02q0.21 0.91 0.49 1.99 0.14 0.57 0.3 1.17c0.57 2.29 1.16 4.88 1.16 6.79 0 1.87-0.58 7.2-1.27 13-0.36 3.04-0.75 6.21-1.11 9.1-0.33 2.65-0.63 5.08-0.85 6.96-0.45 3.82 0.34 7.85 2.35 10.92 2 3.04 5.2 5.14 9.64 5.14 3.53 0 7.04-1.84 10.02-4.22 2.93-2.32 5.29-5.11 6.59-7 0.87-6.77-1.39-15.03-3.74-22.54q-0.49-1.56-0.97-3.06c-0.84-2.63-1.64-5.11-2.23-7.33-0.81-3.03-1.28-5.66-0.91-7.51 0.69-3.42 0.68-5.1 0.52-6.47z"/>
<path class="s7" d="m2.84 323.66c-0.61-5.99-1.84-19.04-1.84-23.43l14.29-2.23c0.47 2.8 1.06 4.37 2.03 5.82 0.48 0.72 1.04 1.4 1.71 2.17q0.17 0.21 0.36 0.43c0.58 0.67 1.24 1.44 1.99 2.38 1.77 2.21 2.67 5.45 3.19 8.54 0.26 1.54 0.41 3.02 0.54 4.3q0.03 0.37 0.06 0.73c0.09 0.95 0.17 1.76 0.26 2.34 0.1 0.55 0.15 1.03 0.2 1.5q0.02 0.15 0.04 0.3c0.06 0.56 0.14 1.12 0.29 1.76 0.3 1.29 0.89 2.89 2.28 5.55 2.18 4.16 1.75 6.9 1.38 7.64l-0.2 0.41 0.41 0.21c0.33 0.16 0.73 0.63 1 1.22q0.19 0.43 0.24 0.81 0.04 0.39-0.06 0.57c-0.27 0.54-0.79 0.67-0.97 0.67h-1.12l0.79 0.79c0.64 0.63 0.79 1.1 0.79 1.45 0 0.4-0.18 0.76-0.42 1.24q-0.13 0.27-0.52 0.31c-0.28 0.03-0.58-0.02-0.76-0.08l-1.48-0.5 0.97 1.22c0.72 0.89 0.87 1.44 0.86 1.72-0.01 0.17-0.07 0.25-0.13 0.29-3.7-0.21-7.29-2.02-10.31-4.24-3-2.22-5.38-4.81-6.68-6.54-0.36-1.67-1.85-5.56-5.17-8.88-3.23-3.22-4.02-7-4.02-8.42v-0.03z"/>
<path class="s7" d="m38.35 165.9c1.06-8.63 1.31-18.1 1.31-18.1l-7.67-45.8-0.12 0.03c-3.66 0.91-8.83 2.81-13.21 9.18-4.39 6.39-8.02 17.32-8.44 36.4-0.16 6.91-0.74 23.77-1.85 35.94-1.1 12.15-1.38 21.31-1.38 24.36v0.05 0.04c-1.69 9.04-4.88 31.17-4.15 47.32 0.47 10.16 0 19.96-0.57 27.91-0.24 3.22-0.49 6.15-0.71 8.66v0.03q-0.07 0.86-0.14 1.66c-0.25 2.87-0.42 5.07-0.42 6.42l14.29-2.22c-0.47-2.82-0.46-7.35-0.17-11.68 0.28-4.32 0.86-8.51 1.57-10.65 1.1-3.29 4.75-18.21 6.45-25.28v-0.01-0.01c1.07-3.9 2.69-10.07 4.03-15.85 0.67-2.89 1.27-5.69 1.71-8.05 0.44-2.38 0.7-4.29 0.7-5.44 0-5.99 0.46-17.08 1.85-23.58 1.11-5.17 5.85-22.7 6.92-31.33z"/>
<path class="s7" d="m128.32 165.9c-1.07-8.63-1.32-18.1-1.32-18.1l7.67-45.8 0.13 0.03c3.65 0.91 8.82 2.81 13.2 9.18 4.39 6.39 8.02 17.32 8.45 36.4 0.15 6.91 0.73 23.77 1.84 35.94 1.11 12.15 1.38 21.31 1.38 24.36v0.05l0.01 0.04c1.69 9.04 4.87 31.17 4.14 47.32-0.46 10.16 0 19.96 0.58 27.91 0.23 3.22 0.48 6.15 0.7 8.66v0.01q0.08 0.87 0.15 1.68c0.24 2.87 0.41 5.07 0.41 6.42l-14.29-2.22c0.47-2.82 0.47-7.35 0.18-11.68-0.29-4.32-0.87-8.51-1.58-10.65-1.1-3.29-4.75-18.21-6.44-25.28v-0.01l-0.01-0.01c-1.07-3.9-2.68-10.07-4.02-15.85-0.68-2.89-1.28-5.69-1.71-8.05-0.44-2.38-0.7-4.29-0.7-5.44 0-5.99-0.46-17.08-1.86-23.58-1.1-5.17-5.85-22.7-6.91-31.33z"/>
<path class="s0" d="m99.04 84.54l0.11 0.12-30.88-0.12v-18.29c0 0 7.84 8 15.21 8 7.37 0 15.56-8 15.56-8z"/>
<path class="s1" d="m68 66l0.27 0.25m0 18.29l30.88 0.12-0.11-0.12v-18.29m-30.77 0c0 0 7.84 8 15.21 8 7.37 0 15.56-8 15.56-8m-30.77 18.29l-0.1 0.12m0.1-18.41v18.29m30.77-18.29l0.27-0.25"/>
<path class="s0" d="m67.65 7.18c4.94-4.7 11.03-6.12 15.31-6.18 4.34 0.06 10.43 1.48 15.35 6.18 5.02 4.79 8.88 13.05 8.33 26.95l-0.02 0.64 0.61-0.18c0.48-0.13 1.24-0.21 1.95-0.02 0.69 0.19 1.32 0.63 1.63 1.57q0.14 0.4 0.11 1.15-0.05 0.76-0.25 1.71c-0.28 1.27-0.75 2.71-1.29 4.07-0.54 1.37-1.15 2.64-1.7 3.56q-0.42 0.7-0.75 1.06-0.16 0.18-0.25 0.24-0.05 0.03-0.06 0.03c-0.29 0.01-0.49 0.21-0.6 0.35q-0.18 0.25-0.33 0.59c-0.19 0.45-0.38 1.08-0.59 1.81q-0.26 0.96-0.55 2.13l-0.1 0.4q-0.36 1.41-0.78 2.94c-0.58 2.04-1.26 4.12-2.11 5.83-0.85 1.73-2.94 3.49-2.94 3.49l-0.27 0.25c0 0-8.19 8-15.56 8-7.38 0-15.22-8-15.22-8l-0.27-0.25c0 0-2.09-1.76-2.94-3.49-0.85-1.71-1.53-3.79-2.1-5.83q-0.43-1.53-0.78-2.94l-0.11-0.4q-0.29-1.17-0.55-2.13c-0.2-0.73-0.4-1.36-0.59-1.81q-0.14-0.34-0.33-0.59c-0.1-0.14-0.3-0.34-0.6-0.35q-0.01 0-0.05-0.03-0.1-0.06-0.26-0.24-0.33-0.36-0.75-1.06c-0.55-0.92-1.16-2.19-1.7-3.56-0.54-1.36-1.01-2.8-1.28-4.07q-0.21-0.95-0.25-1.71-0.04-0.75 0.1-1.15c0.31-0.94 0.94-1.38 1.63-1.57 0.71-0.19 1.47-0.11 1.95 0.02l0.61 0.18-0.02-0.64c-0.55-13.9 3.34-22.16 8.37-26.95z"/>
<path class="s8" d="m54.17 424.15c0.92 1.69 3.78 5.06 7.83 5.06 4.06 0 6.3-3.37 6.92-5.06"/>
<path class="s8" d="m99.49 424.15c0.92 1.69 3.78 5.06 7.84 5.06 4.05 0 6.3-3.37 6.91-5.06"/>
<path class="s8" d="m15 208.2c2.61 0 8.3 1.29 10.14 6.45"/>
<path class="s8" d="m152.53 208.2c-2.61 0-8.29 1.29-10.14 6.45"/>
<path class="s8" d="m227.48 291.08c4.91 7.06 19.91 17.96 40.56 5.06 19.81 12.44 37.33 4.61 40.55-3.22"/>
<path class="s8" d="m238.34 593.13c0.76 1.84 3.22 5.52 6.91 5.52 3.69 0 6.14-3.68 6.91-5.52"/>
<path class="s8" d="m284.06 593.13c0.77 1.84 3.23 5.52 6.92 5.52 3.68 0 6.14-3.68 6.91-5.52"/>
<path class="s8" d="m238.72 427.83c2.15-1.07 7.19-2.58 10.14 0"/>
<path class="s8" d="m287.82 427.83c2.15-1.07 7.19-2.58 10.14 0"/>
<path class="s8" d="m193.64 224.78c1.53 1.53 5.71 4.14 10.14 2.3"/>
<path class="s8" d="m340.65 224.78c-1.53 1.53-5.71 4.14-10.14 2.3"/>
<path class="s9" d="m67.83 66.49l-0.27-0.25c0 0-2.1-1.76-2.95-3.49-0.84-1.71-1.53-3.79-2.1-5.83q-0.43-1.54-0.78-2.94-0.05-0.21-0.1-0.4-0.3-1.18-0.56-2.13c-0.2-0.73-0.39-1.36-0.59-1.81q-0.14-0.35-0.32-0.59c-0.11-0.14-0.31-0.34-0.61-0.35q-0.01 0-0.05-0.03-0.1-0.06-0.26-0.24-0.33-0.36-0.75-1.06c-0.55-0.92-1.16-2.19-1.7-3.56-0.54-1.36-1-2.81-1.28-4.07q-0.21-0.96-0.25-1.71-0.04-0.75 0.1-1.16c0.31-0.93 0.95-1.37 1.63-1.56 0.71-0.2 1.48-0.12 1.95 0.02l0.62 0.17-0.03-0.63c-0.55-13.9 3.34-22.16 8.37-26.95 4.94-4.7 11.03-6.12 15.32-6.18 4.33 0.06 10.42 1.48 15.35 6.18 5.01 4.79 8.88 13.05 8.33 26.95l-0.03 0.63 0.62-0.17c0.47-0.14 1.24-0.22 1.95-0.02 0.68 0.19 1.31 0.63 1.63 1.56q0.13 0.41 0.1 1.16-0.04 0.75-0.25 1.71c-0.28 1.26-0.74 2.71-1.28 4.07-0.54 1.37-1.15 2.64-1.71 3.56q-0.42 0.7-0.74 1.06-0.17 0.18-0.26 0.24-0.04 0.03-0.06 0.03c-0.29 0.01-0.49 0.21-0.6 0.35q-0.18 0.24-0.32 0.59c-0.2 0.45-0.39 1.08-0.59 1.81q-0.26 0.95-0.56 2.13-0.05 0.19-0.1 0.4-0.35 1.4-0.78 2.94c-0.57 2.04-1.26 4.12-2.1 5.83-0.86 1.73-2.95 3.49-2.95 3.49l-0.27 0.25m-66.61 36.07l-0.12 0.03c-3.66 0.91-9.04 2.92-13.53 9.35-4.49 6.44-8.12 17.38-8.12 36.22-0.16 6.91-0.74 23.78-1.85 35.95-1.1 12.14-1.38 21.31-1.38 24.36v0.04l-0.01 0.05c-1.68 9.04-4.87 31.16-4.14 47.32 0.47 10.15 0 19.96-0.57 27.91-0.24 3.22-0.49 6.15-0.71 8.66q-0.07 0.88-0.14 1.69c-0.25 2.87-0.42 5.06-0.42 6.42 0 4.39 1.23 17.44 1.84 23.44v0.02 0.02c0 1.43 0.79 5.21 4.02 8.43 3.32 3.31 4.81 7.2 5.17 8.88 1.3 1.73 3.68 4.32 6.68 6.53 3.02 2.23 6.61 4.04 10.31 4.25 0.06-0.04 0.12-0.13 0.13-0.3 0.01-0.28-0.14-0.82-0.86-1.71l-0.97-1.22 1.48 0.49c0.18 0.06 0.48 0.12 0.76 0.09q0.39-0.05 0.52-0.32c0.24-0.48 0.42-0.84 0.42-1.23 0-0.36-0.15-0.82-0.79-1.46l-0.79-0.79h1.12c0.18 0 0.7-0.12 0.97-0.66q0.1-0.19 0.06-0.57-0.05-0.39-0.24-0.82c-0.27-0.59-0.67-1.05-1-1.22l-0.41-0.2 0.2-0.41c0.37-0.75 0.8-3.48-1.38-7.64-1.39-2.67-1.98-4.26-2.28-5.55-0.15-0.65-0.23-1.21-0.29-1.77q-0.02-0.14-0.04-0.29c-0.05-0.47-0.1-0.95-0.2-1.51-0.09-0.57-0.17-1.39-0.26-2.34q-0.03-0.35-0.06-0.73c-0.13-1.28-0.28-2.76-0.54-4.3-0.52-3.09-1.42-6.33-3.19-8.53-0.75-0.95-1.41-1.71-1.99-2.39q-0.19-0.22-0.36-0.42c-0.67-0.78-1.23-1.46-1.71-2.18-0.97-1.45-1.56-3.01-2.03-5.82-0.47-2.81-0.46-7.35-0.17-11.67 0.28-4.32 0.86-8.52 1.57-10.65 1.1-3.29 4.75-18.21 6.45-25.28v-0.01-0.01c1.07-3.91 2.68-10.07 4.03-15.85 0.67-2.9 1.27-5.69 1.71-8.05 0.43-2.38 0.7-4.29 0.7-5.44 0-5.99 0.46-17.09 1.85-23.58 1.11-5.17 5.85-22.7 6.92-31.33 1.06-8.63 1.31-18.1 1.31-18.1 0 0 0 9.01 1.41 18.07 1.42 9.06 7.32 31.41 5.09 49.92-0.98 8.23-2.39 12.68-3.9 17.46-0.61 1.94-1.24 3.93-1.87 6.25-2.18 8.06-4.36 20.23-5.75 48.09-2.18 44.11 4 81.49 7.36 101.81 0.88 5.35 1.57 9.51 1.86 12.31q0.06 0.58 0.12 1.16c1.34 12.88 2.53 24.35-1.51 43.65-4.13 19.69-1.38 53.68 7.37 92.81l0.01 0.02v0.03c0.46 4.22 1.15 10.79 1.73 16.76 0.58 5.95 1.04 11.35 1.04 13.22 0 1.67-0.18 2.78-0.35 3.78q-0.1 0.59-0.17 1.17c-0.17 1.37-0.17 3.05 0.51 6.47 0.37 1.85-0.09 4.48-0.91 7.51-0.59 2.22-1.38 4.7-2.22 7.33q-0.48 1.5-0.97 3.06c-2.36 7.51-4.61 15.77-3.74 22.54 1.29 1.89 3.65 4.68 6.58 7 2.98 2.37 6.49 4.22 10.03 4.22 4.44 0 7.64-2.1 9.63-5.14 2.01-3.07 2.8-7.1 2.35-10.92-0.22-1.88-0.52-4.31-0.85-6.96-0.35-2.89-0.74-6.06-1.11-9.1-0.69-5.8-1.27-11.13-1.27-13 0-1.91 0.6-4.5 1.17-6.79q0.15-0.6 0.29-1.17 0.28-1.08 0.5-1.99c0.22-0.93 0.35-1.63 0.35-2.03 0-0.77-0.39-1.59-1.02-2.56q-0.38-0.58-0.82-1.2-0.11-0.15-0.22-0.31-0.56-0.79-1.1-1.67-0.16-0.29-0.25-0.71-0.1-0.43-0.19-1.04c-0.12-0.81-0.22-1.87-0.31-3.12-0.18-2.49-0.32-5.75-0.42-9.29-0.21-7.06-0.28-15.24-0.28-20.61v-0.02l4.61-52.49v-0.02l1.38-32.68c0.15-2.69 0.45-6.89 0.86-10.74 0.2-1.92 0.42-3.77 0.67-5.29 0.24-1.51 0.51-2.76 0.81-3.47 0.32-0.75 0.63-2.05 0.91-3.72 0.27-1.65 0.5-3.62 0.67-5.69 0.34-4.13 0.46-8.59 0.23-11.55-0.46-6-1.85-56.66-1.85-62.19 0-2.79 0.93-12.75 1.85-22.59l0.07-0.74c0.9-9.62 1.77-18.95 1.77-21.34 0-1.43 0.24-2.78 0.74-3.78 0.51-1.01 1.33-1.74 2.49-1.74 1.09 0 2.04 0.54 2.67 1.52 0.63 0.96 0.96 2.33 0.91 4.02-0.04 1.2 0.16 4.24 0.5 8.24 0.34 3.98 0.81 8.89 1.28 13.82l0.13 1.44c0.9 9.35 1.77 18.49 1.77 21.15 0 5.53-1.38 56.19-1.84 62.19-0.23 2.96-0.12 7.42 0.23 11.55 0.17 2.07 0.4 4.04 0.67 5.69 0.27 1.67 0.58 2.97 0.91 3.72 0.3 0.71 0.57 1.96 0.81 3.47 0.25 1.52 0.47 3.37 0.67 5.29 0.4 3.85 0.7 8.05 0.86 10.74l1.38 32.68v0.02l4.61 52.49v0.02c0 5.37-0.07 13.55-0.28 20.61-0.1 3.54-0.24 6.8-0.42 9.29-0.09 1.25-0.19 2.31-0.31 3.12q-0.09 0.61-0.19 1.04-0.09 0.42-0.25 0.71-0.54 0.88-1.1 1.67-0.11 0.16-0.22 0.31-0.44 0.62-0.82 1.2c-0.63 0.97-1.02 1.79-1.02 2.56 0 0.4 0.13 1.1 0.35 2.03q0.21 0.91 0.49 1.99 0.15 0.57 0.3 1.17c0.57 2.29 1.17 4.88 1.17 6.79 0 1.87-0.59 7.2-1.28 13-0.36 3.04-0.75 6.21-1.1 9.1-0.33 2.65-0.63 5.08-0.85 6.96-0.45 3.82 0.34 7.85 2.34 10.92 2 3.04 5.2 5.14 9.64 5.14 3.54 0 7.05-1.85 10.03-4.22 2.93-2.32 5.29-5.11 6.58-7 0.87-6.77-1.38-15.03-3.74-22.54q-0.49-1.56-0.97-3.06c-0.84-2.63-1.63-5.11-2.22-7.33-0.82-3.03-1.28-5.66-0.91-7.51 0.68-3.42 0.68-5.1 0.51-6.47q-0.07-0.58-0.17-1.17c-0.17-1-0.35-2.11-0.35-3.78 0-1.87 0.46-7.27 1.04-13.22 0.58-5.97 1.27-12.54 1.73-16.76v-0.03l0.01-0.02c8.75-39.13 11.5-73.12 7.37-92.81-4.04-19.3-2.85-30.77-1.51-43.65q0.06-0.58 0.12-1.16c0.29-2.8 0.98-6.96 1.86-12.31 3.36-20.32 9.54-57.7 7.35-101.81-1.38-27.86-3.56-40.03-5.74-48.09-0.63-2.32-1.26-4.31-1.87-6.25-1.51-4.78-2.92-9.23-3.9-17.46-2.23-18.51 3.67-40.4 5.08-49.92 1.42-9.52 1.42-18.07 1.42-18.07 0 0 0.25 9.47 1.31 18.1 1.07 8.63 5.81 26.16 6.92 31.33 1.39 6.49 1.85 17.59 1.85 23.58 0 1.15 0.27 3.06 0.7 5.44 0.44 2.36 1.04 5.15 1.71 8.05 1.34 5.78 2.96 11.94 4.03 15.85v0.01 0.01c1.7 7.07 5.35 21.99 6.45 25.28 0.71 2.13 1.29 6.33 1.57 10.65 0.29 4.32 0.29 8.86-0.18 11.67-0.46 2.81-1.06 4.37-2.03 5.82-0.47 0.72-1.04 1.4-1.7 2.18q-0.17 0.2-0.36 0.42c-0.58 0.68-1.24 1.44-1.99 2.39-1.77 2.2-2.67 5.44-3.19 8.53-0.26 1.54-0.41 3.02-0.54 4.3q-0.03 0.38-0.06 0.73c-0.09 0.95-0.17 1.77-0.26 2.34-0.1 0.56-0.15 1.04-0.21 1.51q-0.01 0.15-0.03 0.29c-0.07 0.56-0.14 1.12-0.29 1.77-0.3 1.29-0.9 2.88-2.29 5.55-2.17 4.16-1.75 6.89-1.37 7.64l0.2 0.41-0.41 0.2c-0.33 0.17-0.73 0.63-1 1.22q-0.19 0.43-0.24 0.82-0.04 0.38 0.06 0.57c0.27 0.54 0.79 0.66 0.97 0.66h1.12l-0.79 0.79c-0.64 0.64-0.79 1.1-0.79 1.46 0 0.39 0.17 0.75 0.41 1.23q0.14 0.27 0.53 0.32c0.28 0.03 0.58-0.03 0.76-0.09l1.48-0.49-0.98 1.22c-0.71 0.89-0.86 1.43-0.85 1.71 0 0.17 0.07 0.26 0.12 0.3 3.71-0.21 7.3-2.02 10.32-4.25 3-2.21 5.38-4.8 6.68-6.53 0.36-1.68 1.85-5.57 5.17-8.88 3.22-3.22 4.01-7 4.01-8.43v-0.02l0.01-0.02c0.61-6 1.84-19.05 1.84-23.44 0-1.36-0.17-3.55-0.42-6.42q-0.07-0.81-0.14-1.69c-0.22-2.51-0.47-5.44-0.71-8.66-0.57-7.95-1.04-17.76-0.57-27.91 0.73-16.16-2.46-38.28-4.15-47.32v-0.05-0.04c0-3.05-0.28-12.21-1.38-24.36-1.11-12.17-1.69-29.04-1.85-35.95-0.42-19.07-4.05-30.01-8.44-36.39-4.38-6.37-9.55-8.27-13.21-9.18l-0.12-0.03c-3.74-0.93-8.96-3.14-14.03-5.5-4.13-1.93-8.2-3.97-11.3-5.53q-1.06-0.53-1.96-0.98c-5.18-2.59-7.77-4.8-8.45-5.65l-0.1-0.12v-18.29m-30.77 0c0 0 7.83 8 15.21 8 7.37 0 15.56-8 15.56-8m-66.61 36.07l-0.11-0.45m35.95-35.62v18.29l-0.1 0.12c-0.68 0.85-3.27 3.06-8.45 5.65q-0.9 0.45-1.96 0.98c-3.1 1.56-7.17 3.6-11.31 5.53-5.06 2.36-10.29 4.57-14.02 5.5"/>
<path class="s9" d="m216.99 102.28c3.73-0.93 8.95-3.14 14.02-5.5 4.14-1.92 8.2-3.96 11.31-5.52q1.06-0.54 1.95-0.98c5.19-2.59 7.78-4.81 8.45-5.65l0.1-0.13v-18.29l-0.27-0.25c0 0-2.09-1.76-2.94-3.49-0.85-1.71-1.53-3.79-2.1-5.83q-0.43-1.53-0.79-2.94-0.05-0.2-0.1-0.4-0.29-1.17-0.55-2.13c-0.2-0.73-0.4-1.36-0.59-1.81q-0.14-0.34-0.33-0.59c-0.11-0.14-0.31-0.34-0.6-0.35q-0.01 0-0.05-0.03-0.1-0.06-0.26-0.24-0.33-0.36-0.75-1.06c-0.55-0.92-1.16-2.19-1.7-3.56-0.54-1.36-1.01-2.8-1.28-4.07q-0.21-0.95-0.25-1.7-0.04-0.76 0.1-1.16c0.31-0.94 0.94-1.38 1.63-1.57 0.71-0.19 1.47-0.11 1.95 0.02l0.61 0.18-0.02-0.64c-0.55-13.9 3.34-22.16 8.37-26.95 4.93-4.7 11.03-6.12 15.31-6.18 4.34 0.06 10.43 1.48 15.35 6.18 5.02 4.79 8.88 13.05 8.33 26.95l-0.02 0.64 0.61-0.18c0.48-0.13 1.24-0.21 1.95-0.02 0.69 0.19 1.32 0.63 1.63 1.57q0.14 0.4 0.1 1.16-0.04 0.75-0.25 1.7c-0.27 1.27-0.74 2.71-1.28 4.07-0.54 1.37-1.15 2.64-1.7 3.56q-0.42 0.7-0.75 1.07-0.16 0.17-0.26 0.23-0.04 0.03-0.05 0.03c-0.3 0.01-0.49 0.21-0.6 0.35q-0.19 0.25-0.33 0.59c-0.19 0.45-0.39 1.08-0.59 1.81q-0.26 0.96-0.55 2.13-0.05 0.2-0.1 0.4-0.36 1.41-0.78 2.94c-0.58 2.04-1.26 4.12-2.11 5.83-0.85 1.73-2.94 3.49-2.94 3.49l-0.27 0.25v18.29l0.1 0.13c0.67 0.84 3.26 3.06 8.45 5.65q0.89 0.44 1.95 0.98c3.11 1.56 7.17 3.6 11.31 5.52 5.07 2.36 10.29 4.57 14.02 5.5l0.13 0.03c3.66 0.92 8.83 2.81 13.2 9.18 4.4 6.39 8.03 17.32 8.45 36.4 0.15 6.91 0.73 23.77 1.84 35.95 1.11 12.14 1.38 21.3 1.38 24.36v0.04l0.01 0.04c1.69 9.05 4.88 31.17 4.14 47.32-0.46 10.16 0 19.96 0.58 27.91 0.23 3.23 0.48 6.15 0.7 8.67q0.08 0.87 0.15 1.68c0.24 2.88 0.42 5.07 0.42 6.43 0 4.39-1.23 17.44-1.85 23.43v0.02 0.03c0 1.42-0.79 5.2-4.01 8.42-3.32 3.32-4.81 7.21-5.18 8.88-1.29 1.73-3.68 4.32-6.67 6.54-3.02 2.22-6.62 4.03-10.32 4.24-0.06-0.04-0.12-0.12-0.12-0.29-0.01-0.28 0.14-0.83 0.85-1.72l0.98-1.22-1.48 0.5c-0.19 0.06-0.49 0.11-0.76 0.08q-0.4-0.05-0.53-0.31c-0.24-0.48-0.41-0.84-0.41-1.24 0-0.35 0.15-0.82 0.78-1.46l0.79-0.78h-1.11c-0.19 0-0.7-0.13-0.97-0.67q-0.1-0.18-0.06-0.57 0.04-0.38 0.24-0.81c0.27-0.59 0.67-1.06 1-1.22l0.41-0.21-0.21-0.41c-0.37-0.74-0.79-3.48 1.38-7.64 1.39-2.66 1.99-4.26 2.29-5.55 0.15-0.64 0.22-1.2 0.29-1.76q0.01-0.15 0.03-0.3c0.05-0.47 0.11-0.95 0.2-1.51 0.1-0.57 0.17-1.38 0.26-2.33q0.03-0.36 0.07-0.73c0.12-1.28 0.28-2.76 0.54-4.3 0.51-3.09 1.42-6.33 3.19-8.54 0.75-0.94 1.4-1.71 1.98-2.38q0.19-0.22 0.37-0.43c0.66-0.78 1.22-1.45 1.7-2.17 0.97-1.45 1.56-3.02 2.03-5.82 0.47-2.82 0.47-7.35 0.18-11.68-0.29-4.32-0.87-8.51-1.58-10.64-1.1-3.29-4.75-18.22-6.44-25.29v-0.01c-1.08-3.91-2.69-10.08-4.03-15.86-0.67-2.89-1.28-5.68-1.71-8.05-0.44-2.38-0.7-4.29-0.7-5.44 0-5.99-0.46-17.08-1.85-23.58-1.11-5.17-5.86-22.7-6.92-31.33-1.07-8.63-1.32-18.09-1.32-18.09 0 0 0 8.54-1.41 18.06-1.41 9.53-7.31 31.41-5.09 49.93 0.99 8.22 2.39 12.67 3.91 17.45 0.61 1.94 1.24 3.93 1.87 6.25 2.17 8.06 4.36 20.23 5.74 48.1 2.19 44.11-3.99 81.48-7.35 101.8-0.89 5.35-1.58 9.52-1.87 12.32q-0.06 0.58-0.12 1.16c-1.33 12.88-2.53 24.35 1.51 43.64 4.13 19.7 1.39 53.69-7.37 92.82v0.02l-0.01 0.02c-0.46 4.23-1.15 10.79-1.73 16.76-0.57 5.95-1.03 11.35-1.03 13.22 0 1.68 0.18 2.78 0.34 3.78q0.1 0.59 0.18 1.17c0.16 1.38 0.17 3.05-0.52 6.48-0.37 1.84 0.1 4.47 0.91 7.51 0.59 2.21 1.39 4.7 2.23 7.33q0.48 1.5 0.97 3.05c2.35 7.52 4.61 15.78 3.74 22.54-1.3 1.89-3.66 4.68-6.59 7.01-2.98 2.37-6.49 4.21-10.02 4.21-4.44 0-7.64-2.09-9.64-5.14-2.01-3.06-2.8-7.09-2.35-10.92 0.22-1.88 0.52-4.3 0.85-6.96 0.36-2.89 0.75-6.06 1.11-9.09 0.69-5.8 1.27-11.13 1.27-13.01 0-1.91-0.59-4.5-1.16-6.79q-0.16-0.6-0.3-1.17-0.28-1.08-0.5-1.99c-0.21-0.93-0.34-1.62-0.34-2.02 0-0.78 0.39-1.6 1.02-2.57q0.38-0.58 0.82-1.2 0.1-0.15 0.21-0.31 0.57-0.78 1.11-1.67 0.16-0.28 0.25-0.7 0.1-0.43 0.19-1.04c0.11-0.82 0.21-1.88 0.3-3.13 0.19-2.49 0.32-5.75 0.43-9.28 0.21-7.07 0.28-15.24 0.28-20.62v-0.02l-4.61-52.49v-0.02l-1.39-32.67v-0.01c-0.15-2.69-0.45-6.89-0.85-10.73-0.2-1.93-0.43-3.77-0.67-5.3-0.25-1.51-0.52-2.76-0.82-3.46-0.32-0.75-0.63-2.05-0.9-3.72-0.27-1.65-0.5-3.63-0.68-5.69-0.34-4.13-0.45-8.6-0.23-11.55 0.47-6.01 1.85-56.67 1.85-62.2 0-2.65-0.87-11.79-1.77-21.14l-0.14-1.45c-0.47-4.93-0.93-9.83-1.27-13.82-0.34-4-0.55-7.03-0.51-8.24 0.06-1.68-0.27-3.05-0.9-4.01-0.64-0.98-1.58-1.53-2.68-1.53-1.15 0-1.97 0.73-2.48 1.74-0.51 1.01-0.74 2.35-0.74 3.79 0 2.39-0.88 11.72-1.77 21.34l-0.07 0.73c-0.92 9.84-1.85 19.8-1.85 22.59 0 5.53 1.38 56.19 1.84 62.2 0.23 2.95 0.12 7.42-0.22 11.55-0.18 2.06-0.41 4.04-0.68 5.69-0.27 1.67-0.58 2.97-0.9 3.72-0.3 0.7-0.57 1.95-0.82 3.46-0.24 1.53-0.47 3.37-0.67 5.3-0.4 3.84-0.7 8.04-0.85 10.73v0.01l-1.39 32.67v0.02l-4.61 52.49v0.02c0 5.38 0.07 13.55 0.28 20.62 0.11 3.53 0.24 6.79 0.43 9.28 0.09 1.25 0.19 2.31 0.31 3.13q0.08 0.61 0.18 1.04 0.09 0.42 0.25 0.7 0.54 0.89 1.11 1.67 0.11 0.16 0.21 0.31 0.44 0.62 0.82 1.2c0.63 0.97 1.02 1.79 1.02 2.57 0 0.4-0.13 1.09-0.34 2.02q-0.22 0.91-0.5 1.99-0.14 0.57-0.29 1.17c-0.58 2.29-1.17 4.88-1.17 6.79 0 1.88 0.58 7.21 1.27 13.01 0.36 3.03 0.75 6.2 1.11 9.09 0.33 2.66 0.63 5.08 0.85 6.96 0.45 3.83-0.34 7.86-2.35 10.92-2 3.05-5.2 5.14-9.64 5.14-3.53 0-7.04-1.84-10.02-4.21-2.93-2.33-5.29-5.12-6.59-7.01-0.87-6.76 1.39-15.02 3.74-22.54q0.49-1.55 0.97-3.05c0.84-2.63 1.64-5.12 2.23-7.33 0.81-3.04 1.28-5.67 0.91-7.51-0.69-3.43-0.68-5.1-0.52-6.48q0.08-0.58 0.18-1.17c0.16-1 0.35-2.1 0.35-3.78 0-1.87-0.47-7.27-1.04-13.22-0.58-5.97-1.27-12.53-1.73-16.76l-0.01-0.02v-0.02c-8.75-39.13-11.5-73.12-7.37-92.82 4.04-19.29 2.85-30.76 1.51-43.64q-0.06-0.58-0.12-1.16c-0.29-2.8-0.98-6.97-1.87-12.32-3.36-20.32-9.54-57.69-7.35-101.8 1.38-27.87 3.57-40.04 5.75-48.1 0.62-2.32 1.25-4.31 1.86-6.25 1.52-4.78 2.92-9.23 3.91-17.45 2.22-18.52-3.68-40.86-5.09-49.93-1.41-9.06-1.41-18.06-1.41-18.06 0 0-0.25 9.46-1.32 18.09-1.06 8.63-5.81 26.16-6.91 31.33-1.4 6.5-1.86 17.59-1.86 23.58 0 1.15-0.26 3.06-0.7 5.44-0.43 2.37-1.03 5.16-1.71 8.05-1.34 5.78-2.95 11.95-4.03 15.86v0.01c-1.69 7.07-5.34 22-6.44 25.29-0.71 2.13-1.29 6.32-1.58 10.64-0.29 4.33-0.29 8.86 0.18 11.68 0.47 2.8 1.06 4.37 2.03 5.82 0.48 0.72 1.04 1.39 1.7 2.17q0.18 0.21 0.37 0.43c0.58 0.67 1.23 1.44 1.99 2.38 1.76 2.21 2.67 5.45 3.18 8.54 0.26 1.54 0.42 3.02 0.54 4.3q0.04 0.37 0.07 0.73c0.09 0.95 0.16 1.76 0.26 2.33 0.09 0.56 0.15 1.04 0.2 1.51q0.02 0.15 0.03 0.3c0.07 0.56 0.14 1.12 0.29 1.76 0.3 1.29 0.9 2.89 2.29 5.55 2.17 4.16 1.75 6.9 1.38 7.64l-0.21 0.41 0.42 0.21c0.32 0.16 0.73 0.63 0.99 1.22q0.2 0.43 0.24 0.81 0.04 0.39-0.06 0.57c-0.27 0.54-0.79 0.67-0.97 0.67h-1.11l0.79 0.78c0.63 0.64 0.78 1.11 0.78 1.46 0 0.4-0.17 0.76-0.41 1.24q-0.13 0.26-0.53 0.31c-0.27 0.03-0.57-0.02-0.76-0.08l-1.48-0.5 0.98 1.22c0.71 0.89 0.86 1.44 0.86 1.72-0.01 0.17-0.07 0.25-0.13 0.29-3.7-0.21-7.3-2.02-10.32-4.24-2.99-2.22-5.38-4.81-6.67-6.54-0.37-1.67-1.86-5.56-5.18-8.88-3.22-3.22-4.01-7-4.01-8.42v-0.03-0.02c-0.62-5.99-1.84-19.04-1.84-23.43 0-1.36 0.17-3.55 0.41-6.43q0.07-0.81 0.15-1.68c0.22-2.52 0.47-5.44 0.7-8.67 0.58-7.95 1.04-17.75 0.58-27.91-0.74-16.15 2.45-38.27 4.14-47.32l0.01-0.04v-0.04c0-3.06 0.27-12.22 1.38-24.36 1.11-12.18 1.69-29.04 1.84-35.95v-0.01c0-18.84 3.63-29.77 8.13-36.21 4.48-6.43 9.87-8.45 13.52-9.36zm0 0l-0.11-0.44"/>
<g transform="matrix(1,0,0,1,65,34)">
<path d="M20.5896 29.9956C20.8221 29.9202 21.0744 30.0427 21.1522 30.2697C21.2298 30.497 21.1039 30.7438 20.8714 30.8199C20.0096 31.1006 19.264 31.25 18.5067 31.25C17.7498 31.2499 17.0054 31.1005 16.144 30.8199C15.9115 30.7438 15.7857 30.497 15.8632 30.2697C15.9411 30.0427 16.1932 29.9199 16.4258 29.9956C17.2302 30.2575 17.8754 30.3798 18.5067 30.3799C19.1382 30.3799 19.7848 30.2576 20.5896 29.9956Z" fill="#B1B4B6"/>
<path d="M25.1403 26.7169C25.3753 26.6989 25.5877 26.8651 25.6176 27.0963C25.6467 27.3262 25.4845 27.5347 25.2534 27.5751L25.2504 27.5761C25.2504 27.5761 25.246 27.5774 25.2435 27.578C25.241 27.5786 25.2361 27.579 25.2306 27.58L25.2207 27.583H25.2177L25.18 27.587C25.1472 27.5909 25.0949 27.5967 25.0341 27.6039C24.9075 27.6188 24.7232 27.641 24.4973 27.6664C24.0444 27.7175 23.4152 27.786 22.7181 27.8542C21.3299 27.9898 19.6424 28.1273 18.5067 28.1273C17.3709 28.1272 15.6843 27.9898 14.2963 27.8542C13.5995 27.7861 12.9709 27.7175 12.5181 27.6664C12.2922 27.641 12.1079 27.6188 11.9813 27.6039C11.9203 27.5967 11.8673 27.5909 11.8344 27.587C11.8276 27.5862 11.8204 27.5856 11.8145 27.585C11.8092 27.5844 11.8021 27.5837 11.7967 27.583H11.7947L11.7838 27.58C11.7783 27.579 11.7733 27.5786 11.7709 27.578C11.7687 27.5775 11.7639 27.5761 11.7639 27.5761H11.761C11.53 27.5355 11.3696 27.3262 11.3988 27.0963C11.4287 26.8653 11.6392 26.7 11.8741 26.7179L11.888 26.7169L11.8979 26.7199H11.9009L11.9058 26.7209C11.9096 26.7213 11.9139 26.7215 11.9168 26.7219C11.9195 26.7223 11.9241 26.7225 11.9267 26.7229C11.9324 26.7238 11.9389 26.7252 11.9445 26.7259C11.9772 26.7298 12.0258 26.7354 12.0884 26.7427C12.2137 26.7575 12.3955 26.7781 12.6193 26.8033C13.0687 26.854 13.6916 26.9215 14.3826 26.9891C15.7722 27.1248 17.4202 27.2582 18.5067 27.2582C19.5932 27.2582 21.2419 27.1249 22.6317 26.9891C23.323 26.9215 23.9466 26.854 24.3961 26.8033C24.62 26.7781 24.8018 26.7575 24.9269 26.7427C24.9893 26.7354 25.0372 26.7298 25.0698 26.7259C25.0754 26.7252 25.0821 26.7237 25.0877 26.7229C25.0903 26.7225 25.0949 26.7223 25.0976 26.7219C25.1005 26.7215 25.1049 26.7213 25.1085 26.7209L25.1135 26.7199H25.1165L25.1274 26.7169H25.1403Z" fill="#B1B4B6"/>
<path d="M21.7486 19.0282C22.1057 19.0282 22.4727 19.0771 22.7667 19.198C23.0451 19.3127 23.3977 19.56 23.3978 20.0055L23.3879 20.0939C23.3461 20.2914 23.1667 20.4404 22.9522 20.4406C22.7226 20.4402 22.5356 20.2688 22.5127 20.0502C22.5008 20.0409 22.4754 20.0215 22.4224 19.9996C22.2767 19.9397 22.0389 19.8973 21.7486 19.8973C21.4641 19.8973 21.1589 19.9371 20.8912 20.0145C20.6172 20.0939 20.4167 20.2033 20.3038 20.3134C19.8311 20.775 19.1504 20.9838 18.5067 20.9839C17.8633 20.9837 17.1841 20.7746 16.7116 20.3134C16.5988 20.2033 16.3981 20.0939 16.1242 20.0145C15.8562 19.937 15.5496 19.8973 15.2648 19.8973C14.9748 19.8974 14.7386 19.9398 14.593 19.9996C14.539 20.0218 14.5124 20.041 14.5007 20.0502C14.4777 20.2688 14.2918 20.4402 14.0621 20.4406C13.8477 20.4404 13.6682 20.2914 13.6265 20.0939L13.6176 20.0055C13.6177 19.56 13.9702 19.3127 14.2487 19.198C14.5424 19.0774 14.9081 19.0283 15.2648 19.0282C15.6281 19.0282 16.0197 19.08 16.3762 19.1831C16.7261 19.2845 17.0833 19.4462 17.3407 19.6976C17.6089 19.9595 18.0398 20.1136 18.5067 20.1138C18.9737 20.1137 19.4064 19.9596 19.6746 19.6976C19.9321 19.4464 20.2894 19.2845 20.6392 19.1831C20.9954 19.0801 21.3856 19.0283 21.7486 19.0282Z" fill="#B1B4B6"/>
<path d="M4.18268 4.97803C5.24339 4.55618 6.71841 4.15048 8.31169 4.27185C9.90491 4.39341 10.8694 4.80793 11.8344 5.38426C12.3191 5.67379 12.7088 5.95622 12.9765 6.16692C13.1101 6.2721 13.2149 6.36022 13.2861 6.42218L13.2901 6.4192L13.3854 6.50959L13.431 6.57415L13.4866 6.64466C13.552 6.78841 13.5179 6.95999 13.3844 7.07274C13.21 7.21885 12.9334 7.21152 12.7691 7.05685L12.7572 7.04394C12.755 7.04191 12.7516 7.04005 12.7493 7.03798C12.7348 7.02479 12.7122 7.00386 12.6818 6.97739C12.6199 6.92356 12.5245 6.84338 12.402 6.74697C12.1571 6.55425 11.7997 6.29369 11.3531 6.02688C10.8619 5.73343 10.6498 5.49762 9.98572 5.27103C10.2771 5.65207 10.4331 6.12 10.3856 6.61586C10.2755 7.76064 9.32319 8.42138 7.80759 8.30534C6.29207 8.18929 5.6262 7.40584 5.73565 6.26128C5.78327 5.7652 6.02464 5.32556 6.38462 4.99392C5.68684 5.11672 5.07503 5.46842 4.53495 5.68322C4.04466 5.8783 3.64385 6.08175 3.36601 6.23446C3.22714 6.31082 3.1187 6.37555 3.04747 6.4192C3.01175 6.44111 2.98406 6.45897 2.9671 6.46986C2.96423 6.47146 2.95977 6.47208 2.95717 6.47383L2.94725 6.48178C2.94051 6.48614 2.93401 6.49031 2.93137 6.49171L2.92641 6.4927L2.92542 6.49369C2.73644 6.60604 2.47689 6.57257 2.33698 6.40728C2.19505 6.23851 2.23052 5.99857 2.41636 5.86896L2.43621 5.85306L2.44316 5.85108C2.44788 5.84802 2.45416 5.8439 2.46003 5.84015C2.48158 5.82632 2.51584 5.80595 2.55727 5.78056C2.63934 5.73028 2.75913 5.6592 2.91053 5.57595C3.21431 5.40898 3.6504 5.1898 4.18268 4.97803Z" fill="#B1B4B6"/>
<path d="M27.6876 4.27185C29.281 4.15036 30.7558 4.55615 31.8166 4.97803C32.3493 5.18993 32.7858 5.40889 33.0897 5.57595C33.2415 5.65941 33.3618 5.73024 33.444 5.78056C33.485 5.80569 33.5177 5.82634 33.5392 5.84015C33.5451 5.84389 33.5513 5.84802 33.5561 5.85108L33.563 5.85306L33.5829 5.86896C33.769 5.99852 33.8053 6.23841 33.6633 6.40728C33.5233 6.57261 33.2648 6.60611 33.0758 6.49369H33.0738L33.0728 6.4927L33.0679 6.49171C33.0651 6.49026 33.0588 6.48619 33.052 6.48178L33.0421 6.47383C33.0395 6.47214 33.0359 6.4715 33.0331 6.46986C33.0162 6.45899 32.9885 6.44113 32.9528 6.4192C32.8816 6.37558 32.7729 6.31072 32.6342 6.23446C32.3563 6.08171 31.9547 5.8783 31.4643 5.68322C30.9242 5.46839 30.3124 5.11666 29.6146 4.99392C29.9746 5.32556 30.217 5.76518 30.2646 6.26128C30.374 7.40591 29.6144 8.30534 28.017 8.30534C26.4199 8.30523 25.7247 7.76038 25.6146 6.61586C25.5671 6.12 25.7232 5.65207 26.0145 5.27103C25.3506 5.49761 25.1374 5.73345 24.6461 6.02688C24.1998 6.29359 23.842 6.55434 23.5973 6.74697C23.475 6.84321 23.3812 6.92363 23.3194 6.97739C23.2885 7.00426 23.2645 7.02473 23.2499 7.03798C23.2475 7.04008 23.2443 7.04183 23.242 7.04394L23.2301 7.05685C23.0659 7.21104 22.7911 7.21843 22.6168 7.07274C22.4832 6.96004 22.4484 6.78845 22.5136 6.64466L22.5682 6.57415L22.6149 6.50959L22.7101 6.4192L22.7131 6.42218C22.7844 6.36022 22.8901 6.2721 23.0237 6.16692C23.2914 5.95627 23.6803 5.67372 24.1649 5.38426C25.1299 4.80785 26.0944 4.39347 27.6876 4.27185Z" fill="#B1B4B6"/>
<path d="M5.74964 0C6.52643 0 8.29818 0.255225 9.92152 0.567383C10.7371 0.724227 11.5258 0.897275 12.1432 1.06348C12.4511 1.14638 12.7217 1.22858 12.9332 1.30762C13.0387 1.34706 13.134 1.38717 13.2135 1.42773C13.289 1.46628 13.3673 1.51423 13.4264 1.57324C13.558 1.70485 13.7047 1.9121 13.6032 2.14062C13.5579 2.24239 13.4768 2.30655 13.4078 2.3457C13.338 2.38525 13.2593 2.41116 13.1852 2.42969C12.8987 2.50122 12.4885 2.5 12.2496 2.5C12.1544 2.49992 11.9925 2.46891 11.8141 2.42969C11.6237 2.3878 11.38 2.32825 11.1022 2.25781C10.5465 2.11694 9.84009 1.92908 9.12367 1.74219C8.40531 1.55479 7.67406 1.36816 7.06117 1.22852C6.43658 1.08621 5.96586 1 5.74964 1C5.52373 1.00007 5.07527 1.05901 4.50941 1.15332C3.95085 1.24642 3.29714 1.37038 2.67347 1.49512C2.05033 1.61975 1.45775 1.74433 1.02113 1.83789C0.803106 1.88461 0.623286 1.92391 0.498667 1.95117C0.436492 1.96477 0.387141 1.97514 0.354136 1.98242C0.338043 1.98598 0.325434 1.98935 0.317027 1.99121C0.313095 1.99207 0.30933 1.99271 0.307261 1.99316L0.304331 1.99414C0.176369 2.02238 0.0478085 1.94689 0.0103861 1.82129C-0.0268914 1.69559 0.0390813 1.56183 0.161753 1.51562L0.164683 1.51465C0.166556 1.51395 0.169935 1.51302 0.173472 1.51172C0.1811 1.50888 0.193054 1.50443 0.207652 1.49902C0.237536 1.48796 0.282288 1.47171 0.338511 1.45117C0.451494 1.40991 0.615053 1.35087 0.815074 1.28027C1.2152 1.13905 1.76496 0.950248 2.36195 0.761719C2.95841 0.573364 3.60521 0.383711 4.19886 0.241211C4.78715 0.100022 5.34322 6.28282e-05 5.74964 0Z" fill="#B1B4B6"/>
<path d="M30.1374 0C29.3606 0 27.5889 0.255225 25.9655 0.567383C25.1499 0.724227 24.3612 0.897275 23.7439 1.06348C23.436 1.14638 23.1653 1.22858 22.9538 1.30762C22.8483 1.34706 22.753 1.38717 22.6735 1.42773C22.5981 1.46628 22.5197 1.51423 22.4606 1.57324C22.329 1.70485 22.1823 1.9121 22.2839 2.14062C22.3292 2.24239 22.4103 2.30655 22.4792 2.3457C22.549 2.38525 22.6277 2.41116 22.7019 2.42969C22.9883 2.50122 23.3986 2.5 23.6374 2.5C23.7327 2.49992 23.8946 2.46891 24.073 2.42969C24.2634 2.3878 24.507 2.32825 24.7849 2.25781C25.3405 2.11694 26.047 1.92908 26.7634 1.74219C27.4817 1.55479 28.213 1.36816 28.8259 1.22852C29.4505 1.08621 29.9212 1 30.1374 1C30.3633 1.00007 30.8118 1.05901 31.3776 1.15332C31.9362 1.24642 32.5899 1.37038 33.2136 1.49512C33.8367 1.61975 34.4293 1.74433 34.8659 1.83789C35.0839 1.88461 35.2638 1.92391 35.3884 1.95117C35.4506 1.96477 35.4999 1.97514 35.5329 1.98242C35.549 1.98598 35.5616 1.98935 35.57 1.99121C35.574 1.99207 35.5777 1.99271 35.5798 1.99316L35.5827 1.99414C35.7107 2.02238 35.8392 1.94689 35.8767 1.82129C35.9139 1.69559 35.848 1.56183 35.7253 1.51562L35.7224 1.51465C35.7205 1.51395 35.7171 1.51302 35.7136 1.51172C35.7059 1.50888 35.694 1.50443 35.6794 1.49902C35.6495 1.48796 35.6048 1.47171 35.5485 1.45117C35.4356 1.40991 35.272 1.35087 35.072 1.28027C34.6719 1.13905 34.1221 0.950248 33.5251 0.761719C32.9286 0.573364 32.2818 0.383711 31.6882 0.241211C31.0999 0.100022 30.5438 6.28282e-05 30.1374 0Z" fill="#B1B4B6"/>
</g>
</svg>
