<svg width="352" height="634" viewBox="0 0 352 634" fill="none" xmlns="http://www.w3.org/2000/svg">
<rect width="350" height="632" transform="translate(1 1)" fill="white"/>
<path d="M59.2866 90.7756C64.4696 88.1866 67.0597 85.9711 67.7364 85.1261L98.6113 85L98.7123 85.1261C99.389 85.9711 101.979 88.1866 107.162 90.7756C107.757 91.073 108.412 91.4021 109.117 91.756L109.117 91.7564L109.118 91.7569C112.224 93.3174 116.286 95.3588 120.424 97.2849C125.493 99.6442 130.714 101.849 134.449 102.782L134.572 102.813L126.776 146.743C126.776 146.743 126.776 157.521 125.364 166.654C123.953 175.786 118.051 198.065 120.275 216.58C121.263 224.803 122.669 229.251 124.181 234.034C124.793 235.97 125.423 237.962 126.049 240.281C128.226 248.344 130.412 260.509 131.794 288.376H34.6543C36.0362 260.509 38.223 248.344 40.4 240.281C41.0261 237.962 41.6557 235.97 42.2679 234.034C43.7797 229.251 45.1859 224.803 46.1737 216.58C48.3977 198.065 42.4956 175.717 41.0844 166.654C39.6731 157.59 39.6731 146.743 39.6731 146.743L32 102.782C35.7347 101.849 40.9558 99.6442 46.0247 97.2849C50.1632 95.3586 54.226 93.3169 57.3313 91.7564L57.3318 91.7562C58.0361 91.4022 58.6911 91.0731 59.2866 90.7756Z" fill="white"/>
<path d="M67.8374 85L67.7364 85.1261M67.7364 85.1261C67.0597 85.9711 64.4696 88.1866 59.2866 90.7756C58.691 91.0731 58.0358 91.4024 57.3313 91.7564C54.226 93.3169 50.1632 95.3586 46.0247 97.2849C40.9558 99.6442 35.7347 101.849 32 102.782M67.7364 85.1261L98.6113 85L98.7123 85.1261C99.389 85.9711 101.979 88.1866 107.162 90.7756C107.758 91.0732 108.413 91.4024 109.117 91.7564C112.223 93.317 116.286 95.3586 120.424 97.2849C125.493 99.6442 130.714 101.849 134.449 102.782L134.572 102.813L126.776 146.743C126.776 146.743 126.776 157.521 125.364 166.654C123.953 175.786 118.051 198.065 120.275 216.58C121.263 224.803 122.669 229.251 124.181 234.034C124.793 235.97 125.423 237.962 126.049 240.281C128.226 248.344 130.413 260.509 131.794 288.376H34.6543C36.0362 260.509 38.223 248.344 40.4 240.281C41.0261 237.962 41.6557 235.97 42.2679 234.034C43.7797 229.251 45.1859 224.803 46.1737 216.58C48.3977 198.065 42.4956 175.717 41.0844 166.654C39.6731 157.59 39.6731 146.743 39.6731 146.743L32 102.782M32 102.782H32.0012" stroke="#B1B4B6" stroke-width="0.5" stroke-linejoin="round" stroke-dasharray="2 2"/>
<path d="M252.2 84.8873C252.2 84.9538 252.226 85.0178 252.273 85.0649C252.32 85.1121 252.384 85.1387 252.45 85.1387H253.418C253.557 85.1387 253.668 85.0267 253.668 84.8887H255.104C255.104 85.0267 255.216 85.1387 255.354 85.1387H257.29C257.429 85.1387 257.54 85.0267 257.54 84.8887H258.976C258.976 85.0267 259.088 85.1387 259.226 85.1387H261.162C261.301 85.1387 261.412 85.0267 261.412 84.8887H262.848C262.848 85.0267 262.96 85.1387 263.098 85.1387H265.034C265.173 85.1387 265.284 85.0267 265.284 84.8887H266.72C266.72 85.0267 266.832 85.1387 266.97 85.1387H268.906C269.045 85.1387 269.156 85.0267 269.156 84.8887H270.592C270.592 85.0267 270.704 85.1387 270.842 85.1387H272.778C272.917 85.1387 273.028 85.0267 273.028 84.8887H274.464C274.464 85.0267 274.576 85.1387 274.714 85.1387H276.65C276.789 85.1387 276.9 85.0267 276.9 84.8887H278.336C278.336 85.0267 278.448 85.1387 278.586 85.1387H280.522C280.661 85.1387 280.772 85.0267 280.772 84.8887H282.208C282.208 85.0267 282.32 85.1387 282.458 85.1387H283.426C283.493 85.1387 283.557 85.1121 283.604 85.0649C283.651 85.0178 283.677 84.9538 283.676 84.8873L283.671 83.9602C283.671 83.8222 283.558 83.7108 283.42 83.7116L283.413 82.3574C283.551 82.3567 283.662 82.2442 283.661 82.1061L283.651 80.2519C283.65 80.1139 283.538 80.0026 283.4 80.0033L283.392 78.6492C283.531 78.6484 283.642 78.5359 283.641 78.3978L283.631 76.5437C283.63 76.4056 283.518 76.2943 283.38 76.295L283.372 74.9409C283.51 74.9401 283.622 74.8276 283.621 74.6895L283.611 72.8354C283.61 72.6973 283.497 72.586 283.359 72.5868L283.352 71.2326C283.49 71.2319 283.601 71.1193 283.601 70.9813L283.591 69.1271C283.59 68.9891 283.477 68.8777 283.339 68.8785L283.332 67.5243C283.47 67.5236 283.581 67.4111 283.58 67.273L283.575 66.3459C283.575 66.2585 283.529 66.1776 283.454 66.1327C283.379 66.0878 283.286 66.0854 283.208 66.1263C283.004 66.2348 282.776 66.3493 282.528 66.4654C282.404 66.5238 282.35 66.6717 282.408 66.7963C282.108 66.9317 281.785 67.0673 281.444 67.1965C281.396 67.0678 281.254 67.0014 281.124 67.0481C280.664 67.2143 280.175 67.3661 279.673 67.4876C279.54 67.5199 279.458 67.6535 279.489 67.7869C279.15 67.8616 278.806 67.922 278.46 67.9636C278.446 67.8278 278.325 67.7285 278.188 67.7412C277.938 67.7646 277.688 67.7771 277.441 67.7771H276.496C276.358 67.7771 276.246 67.889 276.246 68.0271H274.856C274.856 67.889 274.744 67.7771 274.606 67.7771H272.717C272.578 67.7771 272.467 67.889 272.467 68.0271H271.077C271.077 67.889 270.965 67.7771 270.827 67.7771H268.937C268.799 67.7771 268.687 67.889 268.687 68.0271H267.298C267.298 67.889 267.186 67.7771 267.048 67.7771H265.158C265.02 67.7771 264.908 67.889 264.908 68.0271H263.518C263.518 67.889 263.406 67.7771 263.268 67.7771H261.379C261.241 67.7771 261.129 67.889 261.129 68.0271H259.739C259.739 67.889 259.627 67.7771 259.489 67.7771H258.544C258.358 67.7771 258.11 67.7512 257.81 67.7005C257.675 67.6776 257.547 67.7677 257.523 67.9021C257.209 67.8412 256.861 67.76 256.489 67.6628C256.525 67.53 256.446 67.3933 256.313 67.3571C255.843 67.2287 255.34 67.0768 254.83 66.9099C254.699 66.867 254.558 66.9382 254.515 67.0689C254.18 66.9567 253.844 66.8386 253.513 66.7172C253.561 66.5881 253.496 66.4445 253.367 66.3961C253.121 66.3038 252.879 66.2099 252.645 66.1154C252.568 66.0844 252.481 66.0935 252.412 66.1397C252.343 66.1859 252.302 66.2631 252.301 66.3459L252.296 67.273C252.296 67.4111 252.407 67.5236 252.545 67.5243L252.538 68.8785C252.4 68.8777 252.287 68.9891 252.286 69.1271L252.276 70.9813C252.275 71.1193 252.387 71.2319 252.525 71.2326L252.517 72.5868C252.379 72.586 252.267 72.6973 252.266 72.8354L252.256 74.6895C252.255 74.8276 252.367 74.9401 252.505 74.9409L252.497 76.295C252.359 76.2943 252.247 76.4056 252.246 76.5437L252.236 78.3978C252.235 78.5359 252.346 78.6484 252.484 78.6492L252.477 80.0033C252.339 80.0026 252.226 80.1139 252.226 80.2519L252.216 82.1061C252.215 82.2442 252.326 82.3567 252.464 82.3574L252.457 83.7116C252.319 83.7108 252.206 83.8222 252.206 83.9602L252.2 84.8873Z" fill="#F2F2F1" stroke="#B1B4B6" stroke-width="0.5" stroke-linejoin="round" stroke-dasharray="2 2"/>
<path d="M82.9997 288.4H131.343C134.848 319.9 124.398 392.643 121.843 403.9C119.347 414.9 122.843 443.4 124.343 451.9C125.843 460.4 125.848 465.4 125.348 479.9C124.962 491.094 120.348 523.4 115.843 540.9L113.343 569.4L96.8477 568.9C97.8477 565.4 98.8477 545.4 98.3477 534.9C97.9406 526.351 93.3477 486.4 92.8434 466.9C92.8434 457.9 92.3477 437.9 90.3434 431.4C88.7566 426.254 87.3477 415.9 88.3434 406.9L89.8434 346.4C88.8477 332.9 86.3434 307.2 86.3434 302.4C86.3434 297.6 84.1142 296.557 82.9997 296.635V288.4Z" fill="white" stroke="#B1B4B6" stroke-width="0.5" stroke-linecap="round" stroke-dasharray="2 2"/>
<path d="M83.2543 288.4H34.9105C31.4062 319.9 41.8559 392.643 44.4105 403.9C46.9067 414.9 43.4105 443.4 41.9105 451.9C40.4105 460.4 40.4062 465.4 40.9062 479.9C41.2922 491.094 45.9062 523.4 50.4105 540.9L52.9105 569.4L69.4062 568.9C68.4062 565.4 67.4062 545.4 67.9062 534.9C68.3133 526.351 72.9062 486.4 73.4105 466.9C73.4105 457.9 73.9062 437.9 75.9105 431.4C77.4973 426.254 78.9062 415.9 77.9105 406.9L76.4105 346.4C77.4062 332.9 79.9105 307.2 79.9105 302.4C79.9105 297.6 82.1397 296.557 83.2543 296.635V288.4Z" fill="white" stroke="#B1B4B6" stroke-width="0.5" stroke-linecap="round" stroke-dasharray="2 2"/>
<path d="M268 288.4H316.343C319.848 319.9 309.398 392.643 306.843 403.9C304.347 414.9 307.843 443.4 309.343 451.9C310.843 460.4 310.848 465.4 310.348 479.9C309.962 491.094 305.348 523.4 300.843 540.9L298.343 569.4L281.848 568.9C282.848 565.4 283.848 545.4 283.348 534.9C282.941 526.351 278.348 486.4 277.843 466.9C277.843 457.9 277.348 437.9 275.343 431.4C273.757 426.254 272.348 415.9 273.343 406.9L274.843 346.4C273.848 332.9 271.343 307.2 271.343 302.4C271.343 297.6 269.114 296.557 268 296.635V288.4Z" fill="#F2F2F1" stroke="#B1B4B6" stroke-width="0.5" stroke-linecap="round" stroke-linejoin="round" stroke-dasharray="2 2"/>
<path d="M268.254 288.4H219.911C216.406 319.9 226.856 392.643 229.411 403.9C231.907 414.9 228.411 443.4 226.911 451.9C225.411 460.4 225.406 465.4 225.906 479.9C226.292 491.094 230.906 523.4 235.411 540.9L237.911 569.4L254.406 568.9C253.406 565.4 252.406 545.4 252.906 534.9C253.313 526.351 257.906 486.4 258.411 466.9C258.411 457.9 258.906 437.9 260.911 431.4C262.497 426.254 263.906 415.9 262.911 406.9L261.411 346.4C262.406 332.9 264.911 307.2 264.911 302.4C264.911 297.6 267.14 296.557 268.254 296.635V288.4Z" fill="#F2F2F1" stroke="#B1B4B6" stroke-width="0.5" stroke-linecap="round" stroke-linejoin="round" stroke-dasharray="2 2"/>
<path d="M299.494 574.591C299.447 574.2 299.385 573.82 299.319 573.422L298.981 569.646L282.668 569.186L281.21 571.555C281.142 571.653 281.074 571.749 281.008 571.844L281.006 571.846L280.995 571.862L280.993 571.865C280.701 572.28 280.425 572.674 280.175 573.06C279.546 574.031 279.154 574.853 279.154 575.63C279.154 576.028 279.284 576.724 279.502 577.654C279.643 578.255 279.814 578.927 279.997 579.645C280.093 580.022 280.193 580.413 280.293 580.813C280.866 583.105 281.459 585.693 281.459 587.601C281.459 589.478 280.877 594.809 280.188 600.605C279.827 603.644 279.435 606.811 279.078 609.703C278.75 612.36 278.451 614.784 278.229 616.663C277.779 620.486 278.571 624.518 280.577 627.58C282.573 630.627 285.775 632.724 290.216 632.724C293.75 632.724 297.259 630.88 300.241 628.508C303.168 626.18 305.528 623.39 306.826 621.505C307.694 614.735 305.438 606.476 303.084 598.962C302.76 597.928 302.434 596.908 302.115 595.908C301.275 593.278 300.48 590.791 299.888 588.576C299.077 585.541 298.612 582.91 298.981 581.065C299.666 577.644 299.66 575.968 299.494 574.591Z" fill="#F2F2F1"/>
<path d="M237.185 574.591C237.232 574.2 237.295 573.82 237.36 573.422L237.698 569.646L254.012 569.186L255.47 571.555C255.538 571.653 255.605 571.749 255.672 571.844L255.673 571.846L255.685 571.862L255.687 571.865C255.978 572.28 256.255 572.674 256.505 573.06C257.134 574.031 257.525 574.853 257.525 575.63C257.525 576.028 257.396 576.724 257.177 577.654C257.037 578.255 256.865 578.927 256.683 579.645C256.586 580.022 256.487 580.413 256.387 580.813C255.814 583.105 255.221 585.693 255.221 587.601C255.221 589.478 255.802 594.809 256.492 600.605C256.853 603.644 257.244 606.811 257.601 609.703C257.93 612.36 258.229 614.784 258.45 616.663C258.901 620.486 258.109 624.518 256.103 627.58C254.107 630.627 250.905 632.724 246.464 632.724C242.93 632.724 239.421 630.88 236.439 628.508C233.512 626.18 231.151 623.39 229.854 621.505C228.986 614.735 231.242 606.476 233.596 598.962C233.92 597.928 234.246 596.908 234.565 595.908C235.405 593.278 236.199 590.791 236.791 588.576C237.603 585.541 238.068 582.91 237.698 581.065C237.014 577.644 237.02 575.968 237.185 574.591Z" fill="#F2F2F1"/>
<path d="M188.182 323.26C187.566 317.263 186.34 304.215 186.34 299.824L200.634 297.598C201.101 300.401 201.694 301.965 202.663 303.418C203.141 304.133 203.704 304.813 204.367 305.59C204.484 305.728 204.605 305.869 204.73 306.015L204.73 306.015C205.31 306.692 205.966 307.458 206.72 308.4C208.486 310.605 209.393 313.844 209.909 316.936C210.165 318.474 210.323 319.958 210.445 321.235C210.469 321.486 210.491 321.73 210.513 321.965L210.513 321.965C210.602 322.918 210.678 323.733 210.773 324.303C210.866 324.862 210.921 325.342 210.974 325.811C210.985 325.909 210.996 326.007 211.008 326.104C211.073 326.667 211.147 327.227 211.297 327.871C211.598 329.162 212.193 330.755 213.584 333.419C215.757 337.579 215.335 340.316 214.963 341.058L214.757 341.47L215.17 341.676C215.497 341.839 215.899 342.307 216.166 342.893C216.295 343.176 216.379 343.461 216.409 343.713C216.438 343.969 216.408 344.158 216.346 344.281C216.076 344.821 215.559 344.947 215.376 344.947H214.263L215.05 345.733C215.686 346.369 215.837 346.834 215.837 347.192C215.837 347.583 215.664 347.946 215.424 348.425C215.334 348.606 215.162 348.706 214.895 348.738C214.622 348.77 214.322 348.716 214.139 348.655L212.658 348.162L213.633 349.379C214.346 350.269 214.496 350.815 214.489 351.094C214.484 351.266 214.421 351.349 214.365 351.388C210.661 351.18 207.065 349.371 204.047 347.144C201.049 344.933 198.666 342.342 197.371 340.61C197.007 338.935 195.516 335.046 192.197 331.73C188.974 328.509 188.184 324.732 188.184 323.307L188.184 323.283L188.182 323.26Z" fill="#F2F2F1" stroke="#6E777A" stroke-width="0.5" stroke-linecap="round" stroke-linejoin="round" stroke-dasharray="2 2"/>
<path d="M349.158 323.26C349.774 317.263 351 304.215 351 299.824L336.706 297.598C336.239 300.401 335.646 301.965 334.676 303.418C334.199 304.133 333.636 304.813 332.973 305.59C332.855 305.728 332.735 305.869 332.61 306.015L332.61 306.015C332.03 306.692 331.374 307.458 330.62 308.4C328.854 310.605 327.947 313.844 327.431 316.936C327.174 318.474 327.017 319.958 326.895 321.235C326.871 321.486 326.848 321.73 326.826 321.965L326.826 321.965C326.738 322.918 326.662 323.733 326.567 324.303C326.473 324.862 326.419 325.342 326.366 325.811C326.355 325.909 326.344 326.007 326.332 326.104C326.267 326.667 326.193 327.227 326.043 327.871C325.742 329.162 325.147 330.755 323.755 333.419C321.583 337.579 322.005 340.316 322.376 341.058L322.583 341.47L322.17 341.676C321.843 341.839 321.441 342.307 321.174 342.893C321.045 343.176 320.961 343.461 320.931 343.713C320.901 343.969 320.932 344.158 320.994 344.281C321.264 344.821 321.781 344.947 321.964 344.947H323.077L322.29 345.733C321.654 346.369 321.503 346.834 321.503 347.192C321.503 347.583 321.676 347.946 321.915 348.425C322.006 348.606 322.178 348.706 322.445 348.738C322.718 348.77 323.017 348.716 323.201 348.655L324.682 348.162L323.707 349.379C322.994 350.269 322.844 350.815 322.851 351.094C322.856 351.266 322.919 351.349 322.975 351.388C326.679 351.18 330.275 349.371 333.293 347.144C336.291 344.933 338.674 342.342 339.969 340.61C340.333 338.935 341.823 335.046 345.143 331.73C348.366 328.509 349.156 324.732 349.156 323.307L349.156 323.283L349.158 323.26Z" fill="#F2F2F1" stroke="#6E777A" stroke-width="0.5" stroke-linecap="round" stroke-linejoin="round" stroke-dasharray="2 2"/>
<path d="M312.953 166.089C311.889 157.458 311.637 147.992 311.637 147.992L319.31 102.189L319.433 102.22C323.091 103.133 328.261 105.031 332.639 111.398C337.031 117.785 340.661 128.722 341.083 147.797C341.236 154.707 341.819 171.571 342.927 183.743C344.032 195.887 344.307 205.051 344.307 208.105V208.147L344.315 208.189C346.003 217.235 349.191 239.356 348.456 255.509C347.994 265.665 348.456 275.469 349.033 283.42C349.267 286.645 349.52 289.567 349.738 292.082L349.738 292.085L349.74 292.112C349.79 292.687 349.838 293.241 349.884 293.772C350.129 296.642 350.3 298.836 350.3 300.193L336.006 297.967C336.476 295.149 336.473 290.616 336.184 286.292C335.896 281.973 335.317 277.777 334.606 275.644C333.508 272.353 329.858 257.432 328.164 250.358L328.163 250.351L328.161 250.344C327.086 246.434 325.475 240.27 324.132 234.488C323.461 231.596 322.858 228.804 322.423 226.438C321.986 224.061 321.725 222.148 321.725 220.997C321.725 215.007 321.265 203.915 319.871 197.418C318.762 192.249 314.018 174.72 312.953 166.089Z" fill="#F2F2F1" stroke="#B1B4B6" stroke-width="0.5" stroke-linecap="round" stroke-linejoin="round" stroke-dasharray="2 2"/>
<path d="M244.287 90.7756C249.47 88.1866 252.06 85.9711 252.736 85.1261L283.611 85L283.712 85.1261C284.389 85.9711 286.979 88.1866 292.162 90.7756C292.757 91.073 293.412 91.4021 294.117 91.756L294.117 91.7564L294.118 91.7569C297.224 93.3174 301.286 95.3588 305.424 97.2849C310.493 99.6442 315.714 101.849 319.449 102.782L319.572 102.813L311.776 146.743C311.776 146.743 311.776 157.521 310.364 166.654C308.953 175.786 303.051 198.065 305.275 216.58C306.263 224.803 307.669 229.251 309.181 234.034C309.793 235.97 310.423 237.962 311.049 240.281C313.226 248.344 315.412 260.509 316.794 288.376H219.654C221.036 260.509 223.223 248.344 225.4 240.281C226.026 237.962 226.656 235.97 227.268 234.034C228.78 229.251 230.186 224.803 231.174 216.58C233.398 198.065 227.496 175.717 226.084 166.654C224.673 157.59 224.673 146.743 224.673 146.743L217 102.782C220.735 101.849 225.956 99.6442 231.025 97.2849C235.163 95.3586 239.226 93.3169 242.331 91.7564L242.332 91.7562C243.036 91.4022 243.691 91.0731 244.287 90.7756Z" fill="white"/>
<path d="M252.837 85L252.736 85.1261M252.736 85.1261C252.06 85.9711 249.47 88.1866 244.287 90.7756C243.691 91.0731 243.036 91.4024 242.331 91.7564C239.226 93.3169 235.163 95.3586 231.025 97.2849C225.956 99.6442 220.735 101.849 217 102.782M252.736 85.1261L283.611 85L283.712 85.1261C284.389 85.9711 286.979 88.1866 292.162 90.7756C292.758 91.0732 293.413 91.4024 294.117 91.7564C297.223 93.317 301.286 95.3586 305.424 97.2849C310.493 99.6442 315.714 101.849 319.449 102.782L319.572 102.813L311.776 146.743C311.776 146.743 311.776 157.521 310.364 166.654C308.953 175.786 303.051 198.065 305.275 216.58C306.263 224.803 307.669 229.251 309.181 234.034C309.793 235.97 310.423 237.962 311.049 240.281C313.226 248.344 315.413 260.509 316.794 288.376H219.654C221.036 260.509 223.223 248.344 225.4 240.281C226.026 237.962 226.656 235.97 227.268 234.034C228.78 229.251 230.186 224.803 231.174 216.58C233.398 198.065 227.496 175.717 226.084 166.654C224.673 157.59 224.673 146.743 224.673 146.743L217 102.782M217 102.782H217.001" stroke="#B1B4B6" stroke-width="0.5" stroke-linejoin="round" stroke-dasharray="2 2"/>
<path d="M223.691 165.997C224.756 157.366 225.008 147.901 225.008 147.901L217.335 102.098L217.211 102.129C213.554 103.041 208.384 104.939 204.006 111.306C199.614 117.693 195.984 128.631 195.561 147.705C195.408 154.615 194.825 171.48 193.718 183.651C192.613 195.796 192.337 204.96 192.337 208.013V208.056L192.329 208.097C190.641 217.143 187.454 239.264 188.189 255.418C188.651 265.573 188.188 275.377 187.611 283.328C187.377 286.553 187.124 289.475 186.907 291.991L186.906 291.993L186.904 292.02C186.854 292.595 186.806 293.149 186.761 293.68C186.515 296.55 186.345 298.744 186.345 300.101L200.639 297.875C200.169 295.057 200.172 290.524 200.461 286.2C200.749 281.881 201.327 277.685 202.039 275.552C203.137 272.262 206.787 257.34 208.48 250.267L208.482 250.259L208.484 250.252C209.558 246.342 211.17 240.178 212.512 234.396C213.183 231.504 213.787 228.712 214.222 226.346C214.659 223.969 214.92 222.056 214.92 220.905C214.92 214.916 215.38 203.823 216.774 197.326C217.882 192.157 222.627 174.628 223.691 165.997Z" fill="#F2F2F1" stroke="#B1B4B6" stroke-width="0.5" stroke-linecap="round" stroke-linejoin="round" stroke-dasharray="2 2"/>
<path d="M252.651 7.67895C257.585 2.98154 263.682 1.55959 267.964 1.5C272.297 1.5596 278.392 2.98187 283.313 7.67855C288.331 12.4685 292.195 20.7298 291.645 34.6316L291.62 35.2674L292.232 35.0925C292.71 34.9562 293.474 34.8758 294.183 35.0708C294.869 35.259 295.502 35.6995 295.815 36.6372C295.904 36.9042 295.942 37.2918 295.915 37.7947C295.889 38.2914 295.802 38.87 295.665 39.5021C295.391 40.7661 294.924 42.2091 294.384 43.5741C293.843 44.9397 293.234 46.2108 292.681 47.1331C292.404 47.5962 292.15 47.956 291.934 48.194C291.826 48.3133 291.74 48.3894 291.676 48.4325C291.648 48.4512 291.63 48.4598 291.622 48.4634C291.327 48.4728 291.128 48.6726 291.02 48.8116C290.897 48.9698 290.79 49.1765 290.694 49.3997C290.501 49.8509 290.307 50.4798 290.105 51.2113C289.931 51.8411 289.747 52.5649 289.549 53.3423L289.448 53.7388C289.21 54.6691 288.952 55.668 288.666 56.6838C288.092 58.7193 287.41 60.8018 286.565 62.5113C285.711 64.2391 284.734 65.4947 283.619 66.0011L283.349 66.1238C282.002 66.8372 279.676 67.8036 277.464 67.8036H258.568C257.462 67.8036 254.726 66.9907 252.575 66.1238L252.305 66.0011C251.189 65.4947 250.212 64.2391 249.358 62.5113C248.513 60.8018 247.831 58.7193 247.258 56.6838C246.971 55.668 246.713 54.6691 246.476 53.7388L246.375 53.3423C246.177 52.5649 245.993 51.8411 245.819 51.2113C245.617 50.4798 245.423 49.8509 245.23 49.3997C245.134 49.1765 245.027 48.9698 244.904 48.8116C244.795 48.6726 244.597 48.4728 244.302 48.4634C244.293 48.4598 244.276 48.4512 244.248 48.4325C244.184 48.3894 244.097 48.3133 243.989 48.194C243.774 47.956 243.52 47.5962 243.243 47.1331C242.69 46.2108 242.081 44.9397 241.54 43.5741C240.999 42.2091 240.533 40.7661 240.259 39.5021C240.122 38.87 240.035 38.2914 240.008 37.7947C239.982 37.2918 240.02 36.9042 240.109 36.6372C240.422 35.6995 241.055 35.259 241.74 35.0708C242.45 34.8758 243.214 34.9562 243.691 35.0925L244.304 35.2674L244.279 34.6316C243.729 20.7307 247.619 12.4694 252.651 7.67895Z" fill="#F2F2F1" stroke="#B1B4B6" stroke-width="0.5" stroke-linecap="round" stroke-linejoin="round" stroke-dasharray="2 2"/>
<path d="M164.24 323.662C164.856 317.666 166.082 304.617 166.082 300.226L151.788 298C151.321 300.803 150.728 302.368 149.758 303.82C149.281 304.536 148.718 305.216 148.055 305.993C147.938 306.131 147.817 306.272 147.692 306.417L147.692 306.417C147.112 307.094 146.456 307.86 145.702 308.802C143.936 311.008 143.029 314.246 142.513 317.339C142.256 318.876 142.099 320.36 141.977 321.638C141.953 321.888 141.93 322.132 141.908 322.367L141.908 322.368C141.82 323.32 141.744 324.135 141.649 324.706C141.556 325.265 141.501 325.744 141.448 326.213C141.437 326.311 141.426 326.409 141.414 326.507C141.349 327.07 141.275 327.63 141.125 328.274C140.824 329.564 140.229 331.157 138.837 333.822C136.665 337.982 137.087 340.719 137.458 341.46L137.665 341.872L137.252 342.078C136.925 342.242 136.523 342.709 136.256 343.296C136.127 343.579 136.043 343.863 136.013 344.115C135.983 344.372 136.014 344.56 136.076 344.683C136.346 345.223 136.863 345.35 137.046 345.35H138.159L137.372 346.136C136.736 346.771 136.585 347.236 136.585 347.594C136.585 347.986 136.758 348.349 136.998 348.827C137.088 349.008 137.26 349.109 137.527 349.14C137.8 349.172 138.099 349.118 138.283 349.057L139.764 348.564L138.789 349.781C138.076 350.671 137.926 351.217 137.933 351.496C137.938 351.668 138.001 351.751 138.057 351.791C141.761 351.582 145.357 349.773 148.375 347.546C151.373 345.335 153.756 342.744 155.051 341.013C155.415 339.338 156.905 335.449 160.225 332.132C163.448 328.911 164.238 325.134 164.238 323.709L164.238 323.685L164.24 323.662Z" fill="white" stroke="#B1B4B6" stroke-width="0.5" stroke-linecap="round" stroke-linejoin="round" stroke-dasharray="2 2"/>
<path d="M52.2246 574.206C52.2715 573.815 52.3341 573.435 52.3995 573.037L52.7374 569.261L69.0509 568.801L70.5087 571.17C70.5768 571.268 70.6443 571.364 70.711 571.459L70.7124 571.461L70.724 571.477L70.7259 571.48C71.0175 571.895 71.2941 572.289 71.5438 572.675C72.1729 573.646 72.5645 574.469 72.5645 575.245C72.5645 575.643 72.4348 576.339 72.2165 577.269C72.0757 577.87 71.9045 578.542 71.7218 579.26C71.6255 579.638 71.5261 580.028 71.426 580.428C70.8526 582.72 70.26 585.308 70.26 587.216C70.26 589.093 70.8413 594.424 71.5307 600.221C71.892 603.259 72.2833 606.426 72.6405 609.318C72.9687 611.975 73.2681 614.399 73.4894 616.278C73.9396 620.101 73.1481 624.133 71.1418 627.195C69.1458 630.242 65.9439 632.34 61.5032 632.34C57.969 632.34 54.4599 630.495 51.4779 628.123C48.551 625.795 46.1905 623.005 44.8931 621.12C44.025 614.35 46.281 606.091 48.6349 598.577C48.9589 597.543 49.2847 596.523 49.6039 595.524C50.4441 592.893 51.2384 590.406 51.8306 588.191C52.6422 585.156 53.1068 582.525 52.7374 580.68C52.0526 577.259 52.0591 575.584 52.2246 574.206Z" fill="white" stroke="#B1B4B6" stroke-width="0.5" stroke-linecap="round" stroke-linejoin="round" stroke-dasharray="2 2"/>
<path d="M114.287 574.306C114.24 573.915 114.178 573.535 114.112 573.137L113.774 569.361L97.4608 568.9L96.003 571.27C95.9349 571.367 95.8674 571.464 95.8007 571.558L95.7993 571.56L95.7877 571.577L95.7858 571.58C95.4942 571.995 95.2177 572.389 94.9679 572.774C94.3388 573.746 93.9473 574.568 93.9473 575.345C93.9473 575.743 94.0769 576.439 94.2952 577.369C94.4361 577.97 94.6072 578.642 94.79 579.359C94.8862 579.737 94.9856 580.128 95.0857 580.528C95.6591 582.819 96.2517 585.408 96.2517 587.316C96.2517 589.193 95.6704 594.523 94.981 600.32C94.6197 603.359 94.2285 606.526 93.8712 609.418C93.5431 612.074 93.2436 614.499 93.0223 616.378C92.5722 620.201 93.3636 624.233 95.3699 627.295C97.3659 630.341 100.568 632.439 105.009 632.439C108.543 632.439 112.052 630.595 115.034 628.223C117.961 625.895 120.321 623.105 121.619 621.22C122.487 614.45 120.231 606.191 117.877 598.677C117.553 597.643 117.227 596.623 116.908 595.623C116.068 592.992 115.273 590.505 114.681 588.291C113.87 585.256 113.405 582.625 113.774 580.78C114.459 577.359 114.453 575.683 114.287 574.306Z" fill="white" stroke="#B1B4B6" stroke-width="0.5" stroke-linecap="round" stroke-linejoin="round" stroke-dasharray="2 2"/>
<path d="M2.8418 323.662C2.22596 317.666 1 304.617 1 300.226L15.2937 298C15.7614 300.803 16.3543 302.368 17.3237 303.82C17.8011 304.536 18.3644 305.216 19.027 305.993C19.1445 306.131 19.2654 306.272 19.3897 306.417L19.3901 306.417C19.9698 307.094 20.6258 307.86 21.38 308.802C23.1461 311.008 24.0532 314.246 24.5691 317.339C24.8256 318.876 24.9829 320.36 25.105 321.638C25.129 321.888 25.1516 322.132 25.1736 322.367L25.1736 322.368C25.2622 323.32 25.3381 324.135 25.4333 324.706C25.5265 325.265 25.5809 325.744 25.6341 326.213C25.6452 326.311 25.6563 326.409 25.6677 326.507C25.7331 327.07 25.8075 327.63 25.9575 328.274C26.2579 329.564 26.8531 331.157 28.2446 333.822C30.4172 337.982 29.9947 340.719 29.6236 341.46L29.4175 341.872L29.8297 342.078C30.1571 342.242 30.5594 342.709 30.8261 343.296C30.9548 343.579 31.0394 343.863 31.0687 344.115C31.0986 344.372 31.0678 344.56 31.0063 344.683C30.736 345.223 30.2193 345.35 30.0358 345.35H28.9232L29.7099 346.136C30.3457 346.771 30.4967 347.236 30.4967 347.594C30.4967 347.986 30.3241 348.349 30.0845 348.827C29.994 349.008 29.8219 349.109 29.5554 349.14C29.2818 349.172 28.9826 349.118 28.7989 349.057L27.3184 348.564L28.2933 349.781C29.0061 350.671 29.1561 351.217 29.1488 351.496C29.1443 351.668 29.0811 351.751 29.0249 351.791C25.3213 351.582 21.7253 349.773 18.7068 347.546C15.7095 345.335 13.3262 342.744 12.0308 341.013C11.6672 339.338 10.1765 335.449 6.85722 332.132C3.63408 328.911 2.84441 325.134 2.84421 323.709L2.84421 323.685L2.8418 323.662Z" fill="white" stroke="#B1B4B6" stroke-width="0.5" stroke-linecap="round" stroke-linejoin="round" stroke-dasharray="2 2"/>
<path d="M38.3477 165.9C39.4122 157.269 39.6641 147.803 39.6641 147.803L31.991 102L31.8673 102.031C28.2101 102.944 23.0399 104.841 18.6621 111.208C14.2698 117.596 10.6399 128.533 10.2174 147.608C10.0644 154.517 9.48166 171.382 8.37407 183.554C7.26898 195.698 6.99331 204.862 6.99331 207.915V207.958L6.98551 208C5.29741 217.045 2.1099 239.166 2.84486 255.32C3.30691 265.475 2.84458 275.28 2.2677 283.231C2.03374 286.455 1.78074 289.377 1.56293 291.893L1.56272 291.895L1.5604 291.922C1.51061 292.497 1.46267 293.051 1.41723 293.582C1.17173 296.453 1.00113 298.646 1.00113 300.004L15.2949 297.777C14.8249 294.96 14.8282 290.427 15.1168 286.102C15.405 281.783 15.9833 277.587 16.6949 275.455C17.7928 272.164 21.4431 257.243 23.1363 250.169L23.1381 250.161L23.1401 250.154C24.2143 246.245 25.8258 240.081 27.1683 234.298C27.8397 231.407 28.4429 228.614 28.8779 226.248C29.315 223.872 29.5761 221.958 29.5761 220.808C29.5761 214.818 30.0363 203.726 31.4299 197.229C32.5386 192.06 37.2831 174.53 38.3477 165.9Z" fill="white" stroke="#B1B4B6" stroke-width="0.5" stroke-linecap="round" stroke-linejoin="round" stroke-dasharray="2 2"/>
<path d="M128.316 165.9C127.252 157.269 127 147.803 127 147.803L134.673 102L134.797 102.031C138.454 102.944 143.624 104.841 148.002 111.208C152.394 117.596 156.024 128.533 156.447 147.608C156.6 154.517 157.182 171.382 158.29 183.554C159.395 195.698 159.671 204.862 159.671 207.915V207.958L159.679 208C161.367 217.045 164.554 239.166 163.819 255.32C163.357 265.475 163.819 275.28 164.396 283.231C164.63 286.455 164.883 289.376 165.101 291.892L165.101 291.895L165.102 291.899C165.152 292.483 165.201 293.044 165.247 293.582C165.492 296.453 165.663 298.646 165.663 300.004L151.369 297.777C151.839 294.96 151.836 290.427 151.547 286.102C151.259 281.783 150.681 277.587 149.969 275.455C148.871 272.164 145.221 257.243 143.528 250.169L143.526 250.161L143.524 250.154C142.45 246.245 140.838 240.081 139.496 234.298C138.824 231.407 138.221 228.614 137.786 226.248C137.349 223.872 137.088 221.958 137.088 220.808C137.088 214.818 136.628 203.726 135.234 197.229C134.125 192.06 129.381 174.53 128.316 165.9Z" fill="white" stroke="#B1B4B6" stroke-width="0.5" stroke-linecap="round" stroke-linejoin="round" stroke-dasharray="2 2"/>
<path d="M99.0442 84.5379L99.1452 84.664L68.2702 84.5379V66.2485C68.2702 66.2485 76.1066 74.2487 83.4808 74.2487C90.8549 74.2487 99.0442 66.2485 99.0442 66.2485V84.5379Z" fill="white"/>
<path d="M68 66L68.2702 66.2485M68.2702 66.2485V84.5379M68.2702 66.2485C68.2702 66.2485 76.1066 74.2487 83.4808 74.2487C90.8549 74.2487 99.0442 66.2485 99.0442 66.2485M68.2702 84.5379L68.1692 84.664M68.2702 84.5379L99.1452 84.664L99.0442 84.5379V66.2485M99.0442 66.2485L99.3144 66" stroke="#B1B4B6" stroke-width="0.5" stroke-linejoin="round" stroke-dasharray="2 2"/>
<path d="M67.6512 7.17895C72.5853 2.48154 78.6816 1.05959 82.9636 1C87.2968 1.0596 93.3923 2.48187 98.3127 7.17855C103.331 11.9685 107.195 20.2297 106.645 34.1316L106.62 34.7674L107.232 34.5925C107.71 34.4562 108.474 34.3758 109.183 34.5708C109.869 34.759 110.502 35.1995 110.815 36.1372C110.904 36.4042 110.942 36.7918 110.915 37.2947C110.889 37.7913 110.802 38.37 110.665 39.0021C110.391 40.2661 109.924 41.7091 109.384 43.0741C108.843 44.4397 108.234 45.7108 107.681 46.6331C107.404 47.0962 107.15 47.456 106.934 47.694C106.826 47.8133 106.74 47.8894 106.676 47.9325C106.648 47.9511 106.63 47.9598 106.622 47.9634C106.327 47.9728 106.128 48.1726 106.02 48.3116C105.897 48.4698 105.79 48.6765 105.694 48.8997C105.501 49.3509 105.307 49.9798 105.105 50.7113C104.931 51.3411 104.747 52.0649 104.549 52.8423L104.448 53.2388C104.21 54.1691 103.952 55.168 103.666 56.1838C103.092 58.2193 102.41 60.3018 101.565 62.0113C100.711 63.7391 98.6191 65.5011 98.6191 65.5011L98.3489 65.7496C98.3489 65.7496 90.1597 73.7498 82.7855 73.7498C75.4113 73.7498 67.5749 65.7496 67.5749 65.7496L67.3047 65.5011C67.3047 65.5011 65.2123 63.7391 64.3583 62.0113C63.5134 60.3018 62.8313 58.2193 62.2576 56.1838C61.9714 55.168 61.7134 54.1691 61.476 53.2388L61.375 52.8423C61.177 52.0649 60.9926 51.3411 60.8188 50.7113C60.6169 49.9798 60.4229 49.3509 60.2296 48.8997C60.1339 48.6765 60.0273 48.4698 59.9039 48.3116C59.7954 48.1726 59.5969 47.9728 59.3019 47.9634C59.2935 47.9598 59.2759 47.9511 59.2482 47.9325C59.1842 47.8894 59.0973 47.8133 58.9895 47.694C58.7743 47.456 58.5201 47.0962 58.2427 46.6331C57.6901 45.7108 57.0813 44.4397 56.5402 43.0741C55.9994 41.7091 55.5328 40.2661 55.2587 39.0021C55.1216 38.37 55.0345 37.7913 55.0083 37.2947C54.9818 36.7918 55.0196 36.4042 55.1086 36.1372C55.4215 35.1995 56.055 34.759 56.7404 34.5708C57.45 34.3758 58.214 34.4562 58.6914 34.5925L59.3037 34.7674L59.2786 34.1316C58.7288 20.2307 62.6193 11.9693 67.6512 7.17895Z" fill="white"/>
<path d="M54.168 424.146C55.0897 425.835 57.9472 429.211 62.003 429.211C66.0588 429.211 68.3018 425.835 68.9163 424.146" stroke="#A4A4A4" stroke-linecap="round" stroke-linejoin="round"/>
<path d="M99.4922 424.146C100.414 425.835 103.271 429.211 107.327 429.211C111.383 429.211 113.626 425.835 114.241 424.146" stroke="#A4A4A4" stroke-linecap="round" stroke-linejoin="round"/>
<path d="M15 208.199C17.6117 208.199 23.296 209.488 25.1395 214.645" stroke="#A4A4A4" stroke-linecap="round" stroke-linejoin="round"/>
<path d="M152.531 208.199C149.92 208.199 144.235 209.488 142.392 214.645" stroke="#A4A4A4" stroke-linecap="round" stroke-linejoin="round"/>
<path d="M227.477 291.078C232.393 298.138 247.387 309.035 268.035 296.143C287.853 308.575 305.366 300.747 308.593 292.92" stroke="#A4A4A4" stroke-linecap="round" stroke-linejoin="round"/>
<path d="M238.336 593.127C239.104 594.969 241.562 598.652 245.249 598.652C248.936 598.652 251.394 594.969 252.163 593.127" stroke="#A4A4A4" stroke-linecap="round" stroke-linejoin="round"/>
<path d="M284.062 593.127C284.831 594.969 287.289 598.652 290.976 598.652C294.663 598.652 297.121 594.969 297.889 593.127" stroke="#A4A4A4" stroke-linecap="round" stroke-linejoin="round"/>
<path d="M238.723 427.83C240.873 426.756 245.912 425.251 248.862 427.83" stroke="#A4A4A4" stroke-linecap="round" stroke-linejoin="round"/>
<path d="M287.816 427.83C289.967 426.756 295.006 425.251 297.956 427.83" stroke="#A4A4A4" stroke-linecap="round" stroke-linejoin="round"/>
<path d="M193.637 224.775C195.173 226.31 199.352 228.919 203.776 227.078" stroke="#A4A4A4" stroke-linecap="round" stroke-linejoin="round"/>
<path d="M340.652 224.775C339.116 226.31 334.937 228.919 330.513 227.078" stroke="#A4A4A4" stroke-linecap="round" stroke-linejoin="round"/>
<path d="M67.8272 66.4861L67.557 66.2376C67.557 66.2376 65.4646 64.4756 64.6106 62.7478C63.7657 61.0383 63.0836 58.9558 62.5099 56.9203C62.2237 55.9046 61.9657 54.9056 61.7283 53.9753C61.6943 53.8418 61.6606 53.7095 61.6273 53.5788C61.4293 52.8014 61.2449 52.0776 61.0711 51.4478C60.8692 50.7163 60.6752 50.0874 60.4819 49.6362C60.3862 49.413 60.2796 49.2063 60.1562 49.0481C60.0477 48.9091 59.8492 48.7093 59.5542 48.7C59.5458 48.6963 59.5282 48.6877 59.5005 48.669C59.4365 48.6259 59.3496 48.5498 59.2418 48.4305C59.0265 48.1925 58.7724 47.8327 58.495 47.3696C57.9424 46.4473 57.3336 45.1762 56.7925 43.8106C56.2517 42.4456 55.7851 41.0026 55.511 39.7386C55.3739 39.1065 55.2868 38.5279 55.2606 38.0312C55.2341 37.5283 55.2719 37.1407 55.3609 36.8737C55.6738 35.936 56.3073 35.4956 56.9927 35.3073C57.7023 35.1123 58.4663 35.1927 58.9437 35.329L59.556 35.5039L59.5309 34.8681C58.9811 20.9672 62.8716 12.7059 67.9035 7.91546C72.8376 3.21805 78.9339 1.7961 83.2159 1.73651C87.5491 1.79611 93.6446 3.21838 98.565 7.91506C103.583 12.705 107.447 20.9663 106.898 34.8681L106.872 35.5039L107.485 35.329C107.962 35.1927 108.726 35.1123 109.436 35.3073C110.121 35.4956 110.755 35.936 111.067 36.8737C111.157 37.1407 111.194 37.5283 111.168 38.0312C111.142 38.5279 111.055 39.1065 110.917 39.7386C110.643 41.0026 110.177 42.4456 109.636 43.8106C109.095 45.1762 108.486 46.4473 107.933 47.3696C107.656 47.8327 107.402 48.1925 107.187 48.4305C107.079 48.5498 106.992 48.6259 106.928 48.669C106.9 48.6877 106.883 48.6963 106.874 48.7C106.579 48.7093 106.381 48.9091 106.272 49.0481C106.149 49.2063 106.042 49.413 105.947 49.6362C105.753 50.0874 105.559 50.7163 105.357 51.4478C105.184 52.0776 104.999 52.8014 104.801 53.5788C104.768 53.7095 104.734 53.8418 104.7 53.9753C104.463 54.9056 104.205 55.9046 103.918 56.9203C103.345 58.9558 102.663 61.0383 101.818 62.7478C100.964 64.4756 98.8714 66.2376 98.8714 66.2376L98.6012 66.4861M67.8272 66.4861V84.7755L67.7262 84.9016C67.0496 85.7466 64.4594 87.9622 59.2765 90.5511C58.6809 90.8487 58.0257 91.1779 57.3212 91.5319C54.2158 93.0925 50.153 95.1341 46.0145 97.0604C40.9456 99.4198 35.7246 101.625 31.9899 102.557M67.8272 66.4861C67.8272 66.4861 75.6636 74.4863 83.0378 74.4863C90.412 74.4863 98.6012 66.4861 98.6012 66.4861M31.9899 102.557L31.8781 102.111M31.9899 102.557L31.8663 102.588C28.2096 103.501 22.8258 105.514 18.3415 111.941C13.8463 118.383 10.2164 129.317 10.2164 148.155V148.165C10.0634 155.075 9.48053 171.939 8.37295 184.111C7.26785 196.255 6.99219 205.419 6.99219 208.473V208.515L6.98438 208.557C5.29628 217.603 2.10876 239.724 2.84373 255.877C3.30579 266.033 2.84344 275.837 2.26656 283.788C2.03254 287.014 1.77948 289.936 1.56163 292.452C1.51099 293.037 1.46226 293.6 1.41611 294.14C1.1706 297.01 1 299.204 1 300.561C1 304.952 2.22596 318 2.8418 323.997L2.84421 324.02L2.84421 324.044C2.84441 325.469 3.63408 329.246 6.85722 332.466C10.1765 335.783 11.6672 339.672 12.0308 341.347C13.3262 343.079 15.7095 345.67 18.7068 347.881C21.7253 350.108 25.3213 351.917 29.0249 352.125C29.0811 352.086 29.1443 352.003 29.1488 351.831C29.1561 351.552 29.0061 351.006 28.2933 350.116L27.3184 348.899L28.7989 349.392C28.9826 349.453 29.2818 349.507 29.5554 349.475C29.8219 349.443 29.994 349.343 30.0845 349.162C30.3241 348.683 30.4967 348.32 30.4967 347.929C30.4967 347.571 30.3457 347.106 29.7099 346.47L28.9232 345.684H30.0358C30.2193 345.684 30.736 345.558 31.0063 345.018C31.0678 344.895 31.0986 344.706 31.0687 344.45C31.0394 344.198 30.9548 343.913 30.8261 343.63C30.5594 343.044 30.1571 342.576 29.8297 342.413L29.4175 342.207L29.6236 341.795C29.9947 341.053 30.4172 338.316 28.2446 334.156C26.8531 331.492 26.2579 329.899 25.9575 328.608C25.8075 327.964 25.7331 327.404 25.6677 326.841C25.6563 326.744 25.6452 326.646 25.6341 326.548C25.5809 326.079 25.5265 325.599 25.4333 325.04C25.3381 324.47 25.2622 323.654 25.1736 322.702C25.1516 322.467 25.129 322.223 25.105 321.972C24.9829 320.695 24.8256 319.211 24.5691 317.673C24.0532 314.581 23.1461 311.342 21.38 309.137C20.6258 308.195 19.9698 307.429 19.3901 306.752C19.2656 306.607 19.1446 306.465 19.027 306.327C18.3644 305.55 17.8011 304.87 17.3237 304.155C16.3543 302.702 15.7614 301.138 15.2937 298.335C14.8237 295.517 14.8271 290.984 15.1157 286.66C15.4039 282.341 15.9822 278.145 16.6938 276.012C17.7917 272.721 21.442 257.8 23.1352 250.726L23.137 250.719L23.139 250.712C24.2132 246.802 25.8247 240.638 27.1672 234.856C27.8385 231.964 28.4417 229.172 28.8768 226.806C29.3139 224.429 29.575 222.516 29.575 221.365C29.575 215.375 30.0352 204.283 31.4287 197.786C32.5375 192.617 37.282 175.088 38.3465 166.457C39.4111 157.826 39.6629 148.361 39.6629 148.361C39.6629 148.361 39.6629 157.366 41.0742 166.429C42.4855 175.493 48.3875 197.84 46.1636 216.355C45.1758 224.579 43.7696 229.027 42.2577 233.809C41.6455 235.746 41.016 237.737 40.3899 240.056C38.2129 248.12 36.0261 260.285 34.6441 288.152C32.4568 332.261 38.6367 369.636 41.9968 389.957C42.8812 395.306 43.5703 399.474 43.86 402.271C43.9002 402.66 43.9405 403.047 43.9806 403.433C45.3198 416.314 46.5121 427.782 42.47 447.076C38.3433 466.773 41.0887 500.765 49.8429 539.89L49.8485 539.915L49.8512 539.941C50.3123 544.163 51.0038 550.726 51.5802 556.695C52.1551 562.65 52.6193 568.05 52.6193 569.919C52.6193 571.59 52.4367 572.699 52.2724 573.698C52.207 574.095 52.1445 574.475 52.0975 574.866C51.9321 576.244 51.9255 577.92 52.6103 581.34C52.9798 583.186 52.5151 585.816 51.7035 588.852C51.1114 591.066 50.3171 593.553 49.4768 596.184C49.1576 597.183 48.8318 598.203 48.5079 599.237C46.1539 606.751 43.898 615.01 44.766 621.78C46.0635 623.666 48.4239 626.455 51.3509 628.784C54.3329 631.155 57.842 633 61.3761 633C65.8169 633 69.0188 630.902 71.0148 627.856C73.0211 624.793 73.8125 620.761 73.3623 616.938C73.1411 615.059 72.8416 612.635 72.5134 609.978C72.1562 607.087 71.765 603.919 71.4036 600.881C70.7142 595.084 70.133 589.753 70.133 587.877C70.133 585.968 70.7255 583.38 71.2989 581.089C71.399 580.689 71.4985 580.298 71.5947 579.92C71.7775 579.202 71.9486 578.53 72.0895 577.93C72.3077 576.999 72.4374 576.303 72.4374 575.905C72.4374 575.129 72.0459 574.306 71.4167 573.335C71.1664 572.949 70.8892 572.554 70.5969 572.138C70.526 572.037 70.4542 571.934 70.3817 571.831C70.0133 571.304 69.6312 570.746 69.2769 570.156C69.1688 569.976 69.0901 569.723 69.0258 569.452C68.9585 569.169 68.8965 568.818 68.8388 568.412C68.7232 567.6 68.6208 566.537 68.5297 565.291C68.3475 562.797 68.209 559.537 68.1053 556.005C67.8977 548.938 67.8285 540.761 67.8285 535.386V535.366L72.4378 482.877L72.4392 482.856L73.8205 450.185L73.8208 450.178C73.9747 447.487 74.2748 443.29 74.6752 439.44C74.8753 437.516 75.101 435.673 75.3468 434.147C75.5899 432.638 75.8598 431.389 76.1618 430.685C76.4835 429.935 76.7936 428.63 77.0667 426.964C77.3379 425.31 77.567 423.337 77.7392 421.274C78.0838 417.142 78.1972 412.68 77.9694 409.721C77.5072 403.718 76.1245 353.056 76.1245 347.526C76.1245 344.735 77.05 334.776 77.97 324.94L78.0387 324.205C78.9387 314.585 79.8116 305.254 79.8116 302.863C79.8116 301.429 80.0473 300.084 80.5518 299.08C81.0607 298.066 81.8833 297.338 83.0378 297.338C84.1311 297.338 85.076 297.885 85.7146 298.862C86.3447 299.825 86.6726 301.194 86.6166 302.879C86.5765 304.084 86.7828 307.117 87.1217 311.117C87.4594 315.102 87.9252 320.009 88.3965 324.938L88.5347 326.383C89.4293 335.731 90.3039 344.871 90.3039 347.526C90.3039 353.056 88.9212 403.718 88.459 409.721C88.2312 412.68 88.3446 417.142 88.6892 421.274C88.8614 423.337 89.0905 425.31 89.3617 426.964C89.6349 428.63 89.9449 429.935 90.2667 430.685C90.5687 431.389 90.8385 432.638 91.0816 434.147C91.3274 435.673 91.5531 437.516 91.7533 439.44C92.1536 443.29 92.4537 447.487 92.6076 450.178L92.608 450.185L93.9893 482.856L93.9906 482.877L98.5999 535.366V535.386C98.5999 540.761 98.5307 548.938 98.3232 556.005C98.2194 559.537 98.0809 562.797 97.8987 565.291C97.8077 566.537 97.7052 567.6 97.5896 568.412C97.5319 568.818 97.4699 569.169 97.4026 569.452C97.3383 569.723 97.2597 569.976 97.1516 570.156C96.7972 570.746 96.4151 571.304 96.0468 571.831C95.9742 571.934 95.9024 572.037 95.8315 572.138C95.5392 572.554 95.262 572.949 95.0117 573.335C94.3825 574.306 93.991 575.129 93.991 575.905C93.991 576.303 94.1207 576.999 94.3389 577.93C94.4799 578.53 94.6509 579.202 94.8337 579.92C94.9299 580.298 95.0294 580.689 95.1295 581.089C95.7029 583.38 96.2955 585.968 96.2955 587.877C96.2955 589.753 95.7142 595.084 95.0248 600.881C94.6634 603.919 94.2722 607.087 93.915 609.978C93.5868 612.635 93.2874 615.059 93.0661 616.938C92.6159 620.761 93.4074 624.793 95.4137 627.856C97.4097 630.902 100.612 633 105.052 633C108.586 633 112.096 631.155 115.078 628.784C118.005 626.455 120.365 623.666 121.662 621.78C122.53 615.01 120.275 606.751 117.921 599.237C117.597 598.204 117.271 597.183 116.952 596.184C116.111 593.553 115.317 591.066 114.725 588.852C113.913 585.816 113.449 583.186 113.818 581.34C114.503 577.92 114.496 576.244 114.331 574.866C114.284 574.475 114.221 574.095 114.156 573.698C113.992 572.699 113.809 571.59 113.809 569.919C113.809 568.05 114.273 562.65 114.848 556.695C115.425 550.726 116.116 544.163 116.577 539.941L116.58 539.915L116.586 539.89C125.34 500.765 128.085 466.773 123.958 447.076C119.916 427.782 121.109 416.314 122.448 403.433C122.488 403.047 122.528 402.66 122.568 402.271C122.858 399.474 123.547 395.306 124.432 389.957C127.792 369.636 133.972 332.261 131.784 288.152C130.402 260.285 128.216 248.12 126.039 240.056C125.412 237.737 124.783 235.746 124.171 233.809C122.659 229.027 121.253 224.579 120.265 216.355C118.041 197.84 123.943 175.953 125.354 166.429C126.765 156.905 126.765 148.361 126.765 148.361C126.765 148.361 127.017 157.826 128.082 166.457C129.146 175.088 133.891 192.617 135 197.786C136.393 204.283 136.853 215.375 136.853 221.365C136.853 222.516 137.115 224.429 137.552 226.806C137.987 229.172 138.59 231.964 139.261 234.856C140.604 240.638 142.215 246.802 143.289 250.712L143.291 250.719L143.293 250.726C144.986 257.8 148.637 272.721 149.735 276.012C150.446 278.145 151.025 282.341 151.313 286.66C151.601 290.984 151.605 295.517 151.135 298.335C150.667 301.138 150.074 302.702 149.105 304.155C148.627 304.87 148.064 305.55 147.401 306.327C147.284 306.465 147.163 306.607 147.038 306.752C146.459 307.429 145.803 308.195 145.048 309.137C143.282 311.342 142.375 314.581 141.859 317.673C141.603 319.211 141.446 320.695 141.323 321.972C141.299 322.223 141.277 322.467 141.255 322.702C141.166 323.655 141.09 324.47 140.995 325.04C140.902 325.599 140.847 326.079 140.794 326.548C140.783 326.646 140.772 326.744 140.761 326.841C140.695 327.404 140.621 327.964 140.471 328.608C140.171 329.899 139.575 331.492 138.184 334.156C136.011 338.316 136.434 341.053 136.805 341.795L137.011 342.207L136.599 342.413C136.271 342.576 135.869 343.044 135.602 343.63C135.474 343.913 135.389 344.198 135.36 344.45C135.33 344.706 135.361 344.895 135.422 345.018C135.692 345.558 136.209 345.684 136.393 345.684H137.505L136.718 346.47C136.083 347.106 135.932 347.571 135.932 347.929C135.932 348.32 136.104 348.683 136.344 349.162C136.434 349.343 136.606 349.443 136.873 349.475C137.147 349.507 137.446 349.453 137.63 349.392L139.11 348.899L138.135 350.116C137.422 351.006 137.272 351.552 137.28 351.831C137.284 352.003 137.347 352.086 137.403 352.125C141.107 351.917 144.703 350.108 147.722 347.881C150.719 345.67 153.102 343.079 154.398 341.347C154.761 339.672 156.252 335.783 159.571 332.466C162.794 329.246 163.584 325.469 163.584 324.044V324.02L163.587 323.997C164.202 318 165.428 304.952 165.428 300.561C165.428 299.204 165.258 297.01 165.012 294.14C164.966 293.6 164.917 293.038 164.867 292.453C164.649 289.937 164.396 287.014 164.162 283.788C163.585 275.837 163.123 266.033 163.585 255.877C164.32 239.724 161.132 217.603 159.444 208.557L159.436 208.515V208.473C159.436 205.419 159.161 196.255 158.055 184.111C156.948 171.939 156.365 155.075 156.212 148.165C155.79 129.09 152.16 118.153 147.767 111.766C143.39 105.399 138.219 103.501 134.562 102.588L134.439 102.557C130.704 101.625 125.483 99.4198 120.414 97.0604C116.275 95.1341 112.213 93.0925 109.107 91.532C108.403 91.178 107.748 90.8487 107.152 90.5511C101.969 87.9622 99.3788 85.7466 98.7022 84.9016L98.6012 84.7755V66.4861" stroke="#A4A4A4" stroke-width="1.5" stroke-linejoin="round"/>
<path d="M216.986 102.282C220.721 101.349 225.942 99.1442 231.011 96.7848C235.149 94.8585 239.212 92.8169 242.317 91.2564C243.022 90.9023 243.677 90.5731 244.273 90.2756C249.456 87.6866 252.046 85.4711 252.722 84.6261L252.823 84.5V66.2105L252.553 65.962C252.553 65.962 250.461 64.2 249.607 62.4722C248.762 60.7627 248.08 58.6803 247.506 56.6447C247.22 55.629 246.962 54.6301 246.724 53.6998C246.69 53.5662 246.657 53.434 246.623 53.3032C246.425 52.5259 246.241 51.8021 246.067 51.1722C245.865 50.4407 245.671 49.8118 245.478 49.3607C245.382 49.1375 245.276 48.9307 245.152 48.7726C245.044 48.6335 244.845 48.4338 244.55 48.4244C244.542 48.4207 244.524 48.4121 244.497 48.3935C244.433 48.3503 244.346 48.2743 244.238 48.155C244.023 47.9169 243.768 47.5571 243.491 47.094C242.939 46.1717 242.33 44.9007 241.789 43.535C241.248 42.17 240.781 40.727 240.507 39.463C240.37 38.8309 240.283 38.2523 240.257 37.7557C240.23 37.2527 240.268 36.8651 240.357 36.5982C240.67 35.6605 241.303 35.22 241.989 35.0317C242.698 34.8368 243.462 34.9171 243.94 35.0535L244.552 35.2283L244.527 34.5926C243.977 20.6917 247.868 12.4303 252.9 7.63989C257.834 2.94248 263.93 1.52053 268.212 1.46094C272.545 1.52054 278.641 2.9428 283.561 7.63948C288.579 12.4295 292.443 20.6907 291.894 34.5926L291.868 35.2283L292.481 35.0535C292.958 34.9171 293.722 34.8368 294.432 35.0317C295.117 35.22 295.751 35.6605 296.064 36.5982C296.153 36.8651 296.19 37.2527 296.164 37.7557C296.138 38.2523 296.051 38.8309 295.914 39.463C295.639 40.727 295.173 42.17 294.632 43.535C294.091 44.9007 293.482 46.1717 292.93 47.094C292.652 47.5571 292.398 47.9169 292.183 48.155C292.075 48.2743 291.988 48.3503 291.924 48.3935C291.896 48.4121 291.879 48.4207 291.87 48.4244C291.575 48.4338 291.377 48.6335 291.268 48.7726C291.145 48.9307 291.038 49.1375 290.943 49.3607C290.749 49.8118 290.555 50.4407 290.353 51.1722C290.18 51.8021 289.995 52.5259 289.797 53.3032C289.764 53.434 289.73 53.5662 289.696 53.6998C289.459 54.6301 289.201 55.629 288.915 56.6447C288.341 58.6803 287.659 60.7627 286.814 62.4722C285.96 64.2 283.868 65.962 283.868 65.962L283.597 66.2105V84.5L283.698 84.6261C284.375 85.4711 286.965 87.6866 292.148 90.2756C292.744 90.5731 293.399 90.9024 294.103 91.2564C297.209 92.8169 301.272 94.8586 305.41 96.7848C310.479 99.1442 315.7 101.349 319.435 102.282L319.558 102.313C323.216 103.226 328.386 105.123 332.764 111.49C337.156 117.878 340.786 128.815 341.208 147.89C341.361 154.799 341.944 171.664 343.052 183.836C344.157 195.98 344.432 205.144 344.432 208.197V208.24L344.44 208.282C346.128 217.327 349.316 239.448 348.581 255.602C348.119 265.757 348.581 275.562 349.158 283.513C349.392 286.738 349.645 289.661 349.863 292.177C349.914 292.762 349.962 293.325 350.008 293.864C350.254 296.735 350.425 298.928 350.425 300.286C350.425 304.676 349.199 317.725 348.583 323.721L348.58 323.744V323.768C348.58 325.193 347.79 328.97 344.567 332.191C341.248 335.508 339.757 339.397 339.394 341.072C338.098 342.803 335.715 345.394 332.718 347.605C329.699 349.832 326.103 351.641 322.4 351.85C322.343 351.81 322.28 351.727 322.276 351.555C322.268 351.276 322.418 350.731 323.131 349.84L324.106 348.623L322.626 349.116C322.442 349.177 322.143 349.231 321.869 349.199C321.603 349.168 321.431 349.067 321.34 348.886C321.1 348.408 320.928 348.045 320.928 347.653C320.928 347.295 321.079 346.83 321.715 346.195L322.501 345.409H321.389C321.205 345.409 320.689 345.282 320.418 344.742C320.357 344.62 320.326 344.431 320.356 344.174C320.385 343.922 320.47 343.638 320.598 343.355C320.865 342.768 321.267 342.301 321.595 342.137L322.007 341.931L321.801 341.519C321.43 340.778 321.007 338.041 323.18 333.881C324.571 331.216 325.167 329.623 325.467 328.333C325.617 327.689 325.691 327.129 325.757 326.566C325.768 326.468 325.779 326.37 325.79 326.272C325.844 325.803 325.898 325.324 325.991 324.765C326.086 324.194 326.162 323.379 326.251 322.427C326.273 322.191 326.296 321.947 326.32 321.697C326.442 320.419 326.599 318.935 326.855 317.398C327.371 314.305 328.278 311.067 330.045 308.861C330.799 307.919 331.455 307.153 332.034 306.476C332.159 306.331 332.28 306.19 332.398 306.052C333.06 305.275 333.623 304.595 334.101 303.879C335.07 302.427 335.663 300.862 336.131 298.059C336.601 295.242 336.597 290.709 336.309 286.384C336.021 282.065 335.442 277.869 334.731 275.737C333.633 272.446 329.983 257.525 328.289 250.451L328.288 250.443L328.286 250.436C327.211 246.526 325.6 240.363 324.257 234.58C323.586 231.689 322.983 228.896 322.548 226.53C322.111 224.154 321.85 222.24 321.85 221.09C321.85 215.1 321.389 204.008 319.996 197.511C318.887 192.341 314.143 174.812 313.078 166.181C312.013 157.551 311.762 148.085 311.762 148.085C311.762 148.085 311.762 156.63 310.35 166.154C308.939 175.678 303.037 197.565 305.261 216.08C306.249 224.303 307.655 228.751 309.167 233.534C309.779 235.47 310.409 237.462 311.035 239.781C313.212 247.844 315.398 260.009 316.78 287.876C318.968 331.986 312.788 369.361 309.428 389.682C308.543 395.031 307.854 399.198 307.565 401.996C307.524 402.384 307.484 402.772 307.444 403.158C306.105 416.039 304.912 427.507 308.955 446.8C313.081 466.498 310.336 500.489 301.582 539.615L301.576 539.64L301.573 539.665C301.112 543.887 300.421 550.451 299.844 556.42C299.269 562.374 298.805 567.774 298.805 569.644C298.805 571.315 298.988 572.424 299.152 573.422C299.218 573.82 299.28 574.2 299.327 574.591C299.492 575.968 299.499 577.644 298.814 581.065C298.445 582.91 298.909 585.541 299.721 588.576C300.313 590.791 301.107 593.278 301.948 595.908C302.267 596.908 302.593 597.928 302.917 598.962C305.271 606.476 307.527 614.735 306.658 621.505C305.361 623.39 303.001 626.18 300.074 628.508C297.092 630.88 293.583 632.724 290.048 632.724C285.608 632.724 282.406 630.627 280.41 627.58C278.403 624.518 277.612 620.486 278.062 616.663C278.283 614.784 278.583 612.359 278.911 609.703C279.268 606.811 279.66 603.644 280.021 600.605C280.71 594.808 281.292 589.478 281.292 587.601C281.292 585.693 280.699 583.104 280.126 580.813C280.025 580.413 279.926 580.022 279.83 579.644C279.647 578.926 279.476 578.255 279.335 577.654C279.117 576.724 278.987 576.028 278.987 575.63C278.987 574.853 279.379 574.031 280.008 573.06C280.258 572.673 280.535 572.278 280.828 571.862C280.899 571.761 280.97 571.659 281.043 571.555C281.411 571.028 281.793 570.471 282.148 569.881C282.256 569.701 282.334 569.448 282.399 569.177C282.466 568.893 282.528 568.543 282.586 568.137C282.701 567.324 282.804 566.262 282.895 565.015C283.077 562.521 283.215 559.261 283.319 555.729C283.527 548.663 283.596 540.485 283.596 535.111V535.091L278.987 482.601L278.985 482.58L277.604 449.91L277.604 449.903C277.45 447.212 277.15 443.014 276.749 439.165C276.549 437.24 276.324 435.398 276.078 433.871C275.835 432.362 275.565 431.113 275.263 430.409C274.941 429.659 274.631 428.355 274.358 426.689C274.087 425.035 273.857 423.062 273.685 420.998C273.341 416.866 273.227 412.404 273.455 409.446C273.917 403.443 275.3 352.781 275.3 347.251C275.3 344.596 274.425 335.456 273.531 326.107L273.393 324.662C272.921 319.734 272.456 314.826 272.118 310.841C271.779 306.842 271.573 303.808 271.613 302.603C271.669 300.919 271.341 299.55 270.711 298.586C270.072 297.609 269.127 297.062 268.034 297.062C266.879 297.062 266.057 297.79 265.548 298.804C265.043 299.809 264.808 301.154 264.808 302.588C264.808 304.978 263.935 314.309 263.035 323.93L262.966 324.664C262.046 334.5 261.121 344.46 261.121 347.251C261.121 352.781 262.503 403.443 262.965 409.446C263.193 412.404 263.08 416.866 262.735 420.998C262.563 423.062 262.334 425.035 262.063 426.689C261.79 428.355 261.48 429.659 261.158 430.409C260.856 431.113 260.586 432.362 260.343 433.871C260.097 435.398 259.871 437.24 259.671 439.165C259.271 443.014 258.971 447.212 258.817 449.903L258.817 449.91L257.435 482.58L257.434 482.601L252.825 535.091V535.111C252.825 540.485 252.894 548.663 253.101 555.729C253.205 559.261 253.344 562.521 253.526 565.015C253.617 566.262 253.719 567.324 253.835 568.137C253.893 568.543 253.955 568.893 254.022 569.177C254.086 569.448 254.165 569.701 254.273 569.881C254.627 570.471 255.009 571.028 255.378 571.555C255.45 571.659 255.522 571.761 255.593 571.862C255.885 572.278 256.163 572.673 256.413 573.06C257.042 574.031 257.433 574.853 257.433 575.63C257.433 576.028 257.304 576.724 257.086 577.654C256.945 578.255 256.774 578.926 256.591 579.644C256.495 580.022 256.395 580.413 256.295 580.813C255.722 583.104 255.129 585.693 255.129 587.601C255.129 589.478 255.71 594.808 256.4 600.605C256.761 603.644 257.152 606.811 257.51 609.703C257.838 612.359 258.137 614.784 258.358 616.663C258.809 620.486 258.017 624.518 256.011 627.58C254.015 630.627 250.813 632.724 246.372 632.724C242.838 632.724 239.329 630.88 236.347 628.508C233.42 626.18 231.06 623.39 229.762 621.505C228.894 614.735 231.15 606.476 233.504 598.962C233.828 597.928 234.154 596.908 234.473 595.908C235.313 593.277 236.107 590.79 236.7 588.576C237.511 585.541 237.976 582.91 237.606 581.065C236.922 577.644 236.928 575.968 237.094 574.591C237.141 574.2 237.203 573.82 237.269 573.422C237.433 572.424 237.615 571.315 237.615 569.644C237.615 567.774 237.151 562.374 236.576 556.42C236 550.451 235.308 543.887 234.847 539.665L234.845 539.64L234.839 539.615C226.085 500.489 223.339 466.498 227.466 446.8C231.508 427.507 230.316 416.039 228.977 403.158C228.937 402.772 228.896 402.384 228.856 401.996C228.566 399.198 227.877 395.031 226.993 389.682C223.633 369.361 217.453 331.986 219.64 287.876C221.022 260.009 223.209 247.844 225.386 239.781C226.012 237.462 226.642 235.47 227.254 233.534C228.766 228.751 230.172 224.303 231.16 216.08C233.384 197.565 227.482 175.217 226.07 166.154C224.659 157.09 224.659 148.085 224.659 148.085C224.659 148.085 224.407 157.551 223.343 166.181C222.278 174.812 217.534 192.341 216.425 197.511C215.031 204.008 214.571 215.1 214.571 221.09C214.571 222.24 214.31 224.154 213.873 226.53C213.438 228.896 212.835 231.689 212.163 234.58C210.821 240.363 209.209 246.526 208.135 250.436L208.133 250.443L208.131 250.451C206.438 257.525 202.788 272.446 201.69 275.737C200.978 277.869 200.4 282.065 200.112 286.384C199.823 290.709 199.82 295.242 200.29 298.059C200.757 300.862 201.35 302.427 202.32 303.879C202.797 304.595 203.36 305.275 204.023 306.052C204.141 306.19 204.262 306.331 204.386 306.476C204.966 307.153 205.622 307.919 206.376 308.861C208.142 311.067 209.049 314.305 209.565 317.398C209.822 318.935 209.979 320.419 210.101 321.697C210.125 321.947 210.148 322.191 210.17 322.426C210.258 323.379 210.334 324.194 210.429 324.765C210.523 325.324 210.577 325.803 210.63 326.272C210.641 326.37 210.652 326.468 210.664 326.566C210.729 327.129 210.804 327.689 210.954 328.333C211.254 329.623 211.849 331.216 213.241 333.881C215.413 338.041 214.991 340.778 214.62 341.519L214.414 341.931L214.826 342.137C215.153 342.301 215.555 342.768 215.822 343.355C215.951 343.638 216.035 343.922 216.065 344.174C216.095 344.431 216.064 344.62 216.002 344.742C215.732 345.282 215.215 345.409 215.032 345.409H213.919L214.706 346.195C215.342 346.83 215.493 347.295 215.493 347.653C215.493 348.045 215.32 348.408 215.081 348.886C214.99 349.067 214.818 349.168 214.551 349.199C214.278 349.231 213.979 349.177 213.795 349.116L212.314 348.623L213.289 349.84C214.002 350.731 214.152 351.276 214.145 351.555C214.14 351.727 214.077 351.81 214.021 351.85C210.317 351.641 206.721 349.832 203.703 347.605C200.706 345.394 198.322 342.803 197.027 341.072C196.663 339.397 195.173 335.508 191.853 332.191C188.63 328.97 187.841 325.193 187.84 323.768L187.84 323.744L187.838 323.721C187.222 317.725 185.996 304.676 185.996 300.286C185.996 298.928 186.167 296.735 186.412 293.864C186.458 293.325 186.507 292.762 186.558 292.177C186.776 289.661 187.029 286.738 187.263 283.513C187.84 275.562 188.302 265.757 187.84 255.602C187.105 239.448 190.292 217.327 191.98 208.282L191.988 208.24V208.197C191.988 205.144 192.264 195.98 193.369 183.836C194.477 171.664 195.059 154.799 195.213 147.89V147.879C195.213 129.041 198.842 118.108 203.338 111.665C207.822 105.238 213.206 103.225 216.862 102.313L216.986 102.282ZM216.986 102.282L216.874 101.835" stroke="#A4A4A4" stroke-width="1.5" stroke-linejoin="round"/>
</svg>
