<svg width="56" height="74" viewBox="0 0 56 74" fill="none" xmlns="http://www.w3.org/2000/svg">
<path d="M12.6512 6.67895C17.5853 1.98154 23.6816 0.559593 27.9636 0.5C32.2968 0.5596 38.3923 1.98187 43.3127 6.67855C48.3309 11.4685 52.195 19.7297 51.6452 33.6316L51.6201 34.2674L52.2324 34.0925C52.7098 33.9562 53.4738 33.8758 54.1835 34.0708C54.8688 34.259 55.5023 34.6995 55.8152 35.6372C55.9043 35.9042 55.942 36.2918 55.9155 36.7947C55.8893 37.2913 55.8022 37.87 55.6651 38.5021C55.391 39.7661 54.9245 41.2091 54.3836 42.5741C53.8425 43.9397 53.2337 45.2108 52.6811 46.1331C52.4037 46.5962 52.1496 46.956 51.9344 47.194C51.8265 47.3133 51.7396 47.3894 51.6756 47.4325C51.648 47.4511 51.6303 47.4598 51.6219 47.4634C51.327 47.4728 51.1285 47.6726 51.02 47.8116C50.8965 47.9698 50.7899 48.1765 50.6943 48.3997C50.5009 48.8509 50.3069 49.4798 50.105 50.2113C49.9312 50.8411 49.7468 51.5649 49.5489 52.3423L49.4478 52.7388C49.2104 53.6691 48.9525 54.668 48.6662 55.6838C48.0925 57.7193 47.4104 59.8018 46.5655 61.5113C45.7115 63.2391 43.6191 65.0011 43.6191 65.0011L43.3489 65.2496C43.3489 65.2496 35.1597 73.2498 27.7855 73.2498C20.4113 73.2498 12.5749 65.2496 12.5749 65.2496L12.3047 65.0011C12.3047 65.0011 10.2123 63.2391 9.35834 61.5113C8.51338 59.8018 7.83135 57.7193 7.25764 55.6838C6.97136 54.668 6.71344 53.6691 6.47604 52.7388L6.37497 52.3423C6.17698 51.5649 5.99262 50.8411 5.81879 50.2113C5.61693 49.4798 5.42289 48.8509 5.22956 48.3997C5.13391 48.1765 5.02729 47.9698 4.90385 47.8116C4.79537 47.6726 4.59686 47.4728 4.30193 47.4634C4.29347 47.4598 4.27586 47.4511 4.24824 47.4325C4.1842 47.3894 4.09734 47.3133 3.98946 47.194C3.77425 46.956 3.52011 46.5962 3.24267 46.1331C2.69015 45.2108 2.08129 43.9397 1.54022 42.5741C0.999362 41.2091 0.532801 39.7661 0.258671 38.5021C0.121585 37.87 0.0345396 37.2913 0.00833274 36.7947C-0.0182082 36.2918 0.0195638 35.9042 0.108645 35.6372C0.42151 34.6995 1.05504 34.259 1.74036 34.0708C2.45004 33.8758 3.21397 33.9562 3.69142 34.0925L4.30375 34.2674L4.2786 33.6316C3.72883 19.7307 7.61932 11.4693 12.6512 6.67895Z" fill="#ffdd00" stroke="black"/>
</svg>
