<svg width="40" height="200" viewBox="0 0 40 200" fill="none" xmlns="http://www.w3.org/2000/svg">
<path d="M2.31638 64.9074C1.25181 56.2765 1 46.8109 1 46.8109L8.67308 1.00781L8.79674 1.0387C12.454 1.95149 17.6241 3.84923 22.002 10.2159C26.3942 16.6036 30.0242 27.5407 30.4466 46.6155C30.5997 53.5251 31.1824 70.3898 32.29 82.5614C33.3951 94.7057 33.6707 103.87 33.6707 106.923V106.966L33.6786 107.008C35.3667 116.053 38.5542 138.174 37.8192 154.328C37.3571 164.483 37.8195 174.288 38.3964 182.239C38.6303 185.463 38.8832 188.384 39.101 190.899L39.1013 190.903L39.1017 190.907C39.1522 191.49 39.2008 192.052 39.2468 192.59C39.4923 195.46 39.6629 197.654 39.6629 199.011L25.3692 196.785C25.8392 193.968 25.8358 189.434 25.5473 185.11C25.2591 180.791 24.6808 176.595 23.9691 174.462C22.8712 171.172 19.2209 156.25 17.5277 149.177L17.526 149.169L17.5239 149.162C16.4497 145.252 14.8382 139.089 13.4957 133.306C12.8244 130.414 12.2212 127.622 11.7861 125.256C11.3491 122.88 11.088 120.966 11.088 119.815C11.088 113.826 10.6278 102.734 9.23421 96.2365C8.12547 91.0674 3.38095 73.5382 2.31638 64.9074Z" fill="#ffdd00" stroke="black"/>
</svg>
