<svg width="32" height="55" viewBox="0 0 32 55" fill="none" xmlns="http://www.w3.org/2000/svg">
<path d="M29.2402 26.2441C29.8561 20.2476 31.082 7.19939 31.082 2.80853L16.7883 0.582031C16.3207 3.38506 15.7277 4.94957 14.7584 6.40213C14.2809 7.11764 13.7176 7.79776 13.055 8.57484C12.9375 8.71269 12.8167 8.85376 12.6923 8.99893L12.692 8.99937C12.1122 9.67631 11.4562 10.4423 10.702 11.3841C8.93595 13.5896 8.02886 16.828 7.51294 19.9206C7.2564 21.4584 7.09917 22.942 6.97703 24.2197C6.95307 24.4702 6.93039 24.714 6.90848 24.9494L6.90846 24.9496C6.81982 25.902 6.74397 26.717 6.64878 27.2876C6.55551 27.8467 6.5011 28.3264 6.44792 28.7951C6.43679 28.8933 6.4257 28.991 6.41433 29.0888C6.34891 29.6516 6.27455 30.2116 6.12457 30.8559C5.82416 32.1464 5.22895 33.7391 3.83746 36.4035C1.66479 40.5638 2.08731 43.3009 2.45842 44.0424L2.66453 44.4542L2.2523 44.6601C1.92488 44.8237 1.52265 45.2915 1.25594 45.8777C1.12719 46.1606 1.04266 46.4451 1.01331 46.6972C0.983477 46.9535 1.01423 47.1425 1.07576 47.2654C1.34604 47.8055 1.86278 47.9318 2.04619 47.9318H3.15887L2.37209 48.7178C1.73633 49.353 1.5853 49.8182 1.5853 50.1765C1.5853 50.5676 1.75797 50.9307 1.99753 51.4094C2.08808 51.5903 2.2601 51.6906 2.52665 51.7221C2.80027 51.7544 3.09941 51.7001 3.28311 51.639L4.76365 51.146L3.78874 52.3634C3.07596 53.2535 2.92595 53.799 2.93324 54.0782C2.93773 54.2502 3.00092 54.333 3.0571 54.3728C6.76072 54.1643 10.3567 52.3553 13.3752 50.1284C16.3725 47.917 18.7559 45.3264 20.0512 43.5945C20.4148 41.9197 21.9055 38.0305 25.2248 34.7139C28.4479 31.4933 29.2376 27.716 29.2378 26.291L29.2378 26.2675L29.2402 26.2441Z" fill="#ffdd00" stroke="black"/>
</svg>
