<svg width="51" height="283" viewBox="0 0 51 283" fill="none" xmlns="http://www.w3.org/2000/svg">
<path d="M0.999653 1H49.3434C52.8477 32.5 42.398 105.243 39.8434 116.5C37.3472 127.5 40.8434 156 42.3434 164.5C43.8434 173 43.8477 178 43.3477 192.5C42.9617 203.693 38.3477 236 33.8434 253.5L31.3434 282L14.8477 281.5C15.8477 278 16.8477 258 16.3477 247.5C15.9406 238.951 11.3477 199 10.8434 179.5C10.8434 170.5 10.3477 150.5 8.3434 144C6.75663 138.854 5.34766 128.5 6.3434 119.5L7.8434 59C6.84766 45.5 4.3434 19.8 4.3434 15C4.3434 10.2 2.11423 9.15625 0.999653 9.23438V1Z" fill="#ffdd00" stroke="black"/>
</svg>
