<svg width="31" height="65" viewBox="0 0 31 65" fill="none" xmlns="http://www.w3.org/2000/svg">
<path d="M22.3887 6.48347C22.3418 6.0925 22.2792 5.71238 22.2138 5.31472L21.8759 1.53844L5.56239 1.078L4.10456 3.44766C4.03649 3.54498 3.96896 3.64116 3.9023 3.73609L3.9009 3.73808L3.8893 3.7546L3.88736 3.75735C3.5958 4.1726 3.31923 4.56651 3.06949 4.95207C2.44034 5.92349 2.04883 6.74584 2.04883 7.52216C2.04883 7.92033 2.17851 8.61644 2.39673 9.54665C2.53763 10.1472 2.70875 10.8193 2.89152 11.5371C2.98774 11.9149 3.08721 12.3056 3.18728 12.7056C3.76069 14.997 4.35326 17.5853 4.35326 19.4936C4.35326 21.3701 3.77201 26.701 3.0826 32.4979C2.72124 35.5364 2.33002 38.7035 1.97279 41.5954C1.64462 44.252 1.34515 46.6763 1.1239 48.5552C0.673714 52.3782 1.46515 56.4104 3.47145 59.4726C5.46745 62.5191 8.66936 64.6169 13.1101 64.6169C16.6443 64.6169 20.1533 62.7724 23.1354 60.4005C26.0623 58.0724 28.4227 55.2826 29.7202 53.3974C30.5882 46.6275 28.3323 38.3684 25.9783 30.8544C25.6544 29.8205 25.3286 28.8002 25.0094 27.8008C24.1691 25.17 23.3749 22.6831 22.7827 20.4686C21.9711 17.4333 21.5065 14.8025 21.8759 12.9571C22.5607 9.53659 22.5542 7.8608 22.3887 6.48347Z" fill="#5C7B96" stroke="#B1B4B6" stroke-width="0.5" stroke-linecap="round" stroke-linejoin="round" stroke-dasharray="2 2"/>
</svg>
