<svg width="31" height="65" viewBox="0 0 31 65" fill="none" xmlns="http://www.w3.org/2000/svg">
<path d="M8.52143 6.48347C8.5684 6.0925 8.63094 5.71238 8.69639 5.31472L9.03427 1.53844L25.3478 1.078L26.8056 3.44766C26.8737 3.54498 26.9412 3.64116 27.0079 3.73609L27.0093 3.73808L27.0209 3.7546L27.0228 3.75735C27.3144 4.1726 27.5909 4.56651 27.8407 4.95207C28.4698 5.92349 28.8613 6.74584 28.8613 7.52216C28.8613 7.92033 28.7316 8.61644 28.5134 9.54665C28.3725 10.1472 28.2014 10.8193 28.0186 11.5371C27.9224 11.9149 27.8229 12.3056 27.7229 12.7056C27.1495 14.997 26.5569 17.5853 26.5569 19.4936C26.5569 21.3701 27.1381 26.701 27.8276 32.4979C28.1889 35.5364 28.5801 38.7035 28.9374 41.5954C29.2655 44.252 29.565 46.6763 29.7863 48.5552C30.2364 52.3782 29.445 56.4104 27.4387 59.4726C25.4427 62.5191 22.2408 64.6169 17.8001 64.6169C14.2659 64.6169 10.7568 62.7724 7.7748 60.4005C4.84785 58.0724 2.48741 55.2826 1.18997 53.3974C0.321917 46.6275 2.57783 38.3684 4.93181 30.8544C5.25573 29.8205 5.58157 28.8002 5.90079 27.8008C6.74102 25.17 7.5353 22.6831 8.12743 20.4686C8.93907 17.4333 9.40369 14.8025 9.03427 12.9571C8.34949 9.53659 8.356 7.8608 8.52143 6.48347Z" fill="#5C7B96" stroke="#B1B4B6" stroke-width="0.5" stroke-linecap="round" stroke-linejoin="round" stroke-dasharray="2 2"/>
</svg>
