<svg width="40" height="200" viewBox="0 0 40 200" fill="none" xmlns="http://www.w3.org/2000/svg">
<path d="M38.3477 64.9074C39.4122 56.2765 39.6641 46.8109 39.6641 46.8109L31.991 1.00781L31.8673 1.0387C28.2101 1.95149 23.0399 3.84923 18.6621 10.2159C14.2698 16.6036 10.6399 27.5407 10.2174 46.6155C10.0644 53.5251 9.48166 70.3898 8.37407 82.5614C7.26898 94.7057 6.99331 103.87 6.99331 106.923V106.966L6.98551 107.008C5.29741 116.053 2.1099 138.174 2.84486 154.328C3.30691 164.483 2.84458 174.288 2.2677 182.239C2.03374 185.463 1.78074 188.385 1.56293 190.901L1.56272 190.903L1.5604 190.93C1.51061 191.505 1.46267 192.059 1.41723 192.59C1.17173 195.46 1.00113 197.654 1.00113 199.011L15.2949 196.785C14.8249 193.968 14.8282 189.434 15.1168 185.11C15.405 180.791 15.9833 176.595 16.6949 174.462C17.7928 171.172 21.4431 156.25 23.1363 149.177L23.1381 149.169L23.1401 149.162C24.2143 145.252 25.8258 139.089 27.1683 133.306C27.8397 130.414 28.4429 127.622 28.8779 125.256C29.315 122.88 29.5761 120.966 29.5761 119.815C29.5761 113.826 30.0363 102.734 31.4299 96.2365C32.5386 91.0674 37.2831 73.5382 38.3477 64.9074Z" fill="#ffdd00" stroke="black"/>
</svg>
