<svg width="32" height="55" viewBox="0 0 32 55" fill="none" xmlns="http://www.w3.org/2000/svg">
<path d="M2.8418 26.2441C2.22596 20.2476 1 7.19939 1 2.80853L15.2937 0.582031C15.7614 3.38506 16.3543 4.94957 17.3237 6.40213C17.8011 7.11764 18.3644 7.79776 19.027 8.57484C19.1445 8.71269 19.2654 8.85376 19.3897 8.99893L19.3901 8.99937C19.9698 9.67631 20.6258 10.4423 21.38 11.3841C23.1461 13.5896 24.0532 16.828 24.5691 19.9206C24.8256 21.4584 24.9829 22.942 25.105 24.2197C25.129 24.4702 25.1516 24.714 25.1736 24.9494L25.1736 24.9496C25.2622 25.902 25.3381 26.717 25.4333 27.2876C25.5265 27.8467 25.5809 28.3264 25.6341 28.7951C25.6452 28.8933 25.6563 28.991 25.6677 29.0888C25.7331 29.6516 25.8075 30.2116 25.9575 30.8559C26.2579 32.1464 26.8531 33.7391 28.2446 36.4035C30.4172 40.5638 29.9947 43.3009 29.6236 44.0424L29.4175 44.4542L29.8297 44.6601C30.1571 44.8237 30.5594 45.2915 30.8261 45.8777C30.9548 46.1606 31.0394 46.4451 31.0687 46.6972C31.0986 46.9535 31.0678 47.1425 31.0063 47.2654C30.736 47.8055 30.2193 47.9318 30.0358 47.9318H28.9232L29.7099 48.7178C30.3457 49.353 30.4967 49.8182 30.4967 50.1765C30.4967 50.5676 30.3241 50.9307 30.0845 51.4094C29.994 51.5903 29.8219 51.6906 29.5554 51.7221C29.2818 51.7544 28.9826 51.7001 28.7989 51.639L27.3184 51.146L28.2933 52.3634C29.0061 53.2535 29.1561 53.799 29.1488 54.0782C29.1443 54.2502 29.0811 54.333 29.0249 54.3728C25.3213 54.1643 21.7253 52.3553 18.7068 50.1284C15.7095 47.917 13.3262 45.3264 12.0308 43.5945C11.6672 41.9197 10.1765 38.0305 6.85722 34.7139C3.63408 31.4933 2.84441 27.716 2.84421 26.291L2.84421 26.2675L2.8418 26.2441Z" fill="#5C7B96" stroke="#B1B4B6" stroke-width="0.5" stroke-linecap="round" stroke-linejoin="round" stroke-dasharray="2 2"/>
</svg>
