<svg width="51" height="283" viewBox="0 0 51 283" fill="none" xmlns="http://www.w3.org/2000/svg">
<path d="M50.055 1H1.71128C-1.79297 32.5 8.65669 105.243 11.2113 116.5C13.7075 127.5 10.2113 156 8.71128 164.5C7.21128 173 7.20703 178 7.70703 192.5C8.09301 203.693 12.707 236 17.2113 253.5L19.7113 282L36.207 281.5C35.207 278 34.207 258 34.707 247.5C35.1141 238.951 39.707 199 40.2113 179.5C40.2113 170.5 40.707 150.5 42.7113 144C44.2981 138.854 45.707 128.5 44.7113 119.5L43.2113 59C44.207 45.5 46.7113 19.8 46.7113 15C46.7113 10.2 48.9405 9.15625 50.055 9.23438V1Z" fill="#ffdd00" stroke="black"/>
</svg>
