<svg width="40" height="40" viewBox="0 0 40 40" fill="none" xmlns="http://www.w3.org/2000/svg">
<mask id="mask0_4003_102054" style="mask-type:alpha" maskUnits="userSpaceOnUse" x="0" y="0" width="40" height="40">
<rect width="40" height="40" fill="#D53880"/>
</mask>
<g mask="url(#mask0_4003_102054)">
<path d="M17.0956 23V18.9044H13V17.0956H17.0956V13H18.9044V17.0956H23V18.9044H18.9044V23H17.0956Z" fill="#1C1B1F"/>
<path d="M31.9296 34L25.4225 27.5423C24.4366 28.3638 23.3028 29.0047 22.0211 29.4648C20.7394 29.9249 19.4249 30.1549 18.0775 30.1549C14.6925 30.1549 11.8333 28.9883 9.5 26.6549C7.16667 24.3216 6 21.4624 6 18.0775C6 14.7254 7.16667 11.8741 9.5 9.52366C11.8333 7.17455 14.6925 6 18.0775 6C21.4296 6 24.2723 7.16667 26.6056 9.5C28.939 11.8333 30.1056 14.6925 30.1056 18.0775C30.1056 19.4906 29.8756 20.838 29.4155 22.1197C28.9554 23.4014 28.331 24.5188 27.5422 25.4718L34 31.9296L31.9296 34ZM18.0775 27.1972C20.608 27.1972 22.7527 26.3099 24.5115 24.5352C26.2691 22.7606 27.1479 20.608 27.1479 18.0775C27.1479 15.5469 26.2691 13.3944 24.5115 11.6197C22.7527 9.84507 20.608 8.95775 18.0775 8.95775C15.5141 8.95775 13.3536 9.84507 11.5961 11.6197C9.83718 13.3944 8.95775 15.5469 8.95775 18.0775C8.95775 20.608 9.83718 22.7606 11.5961 24.5352C13.3536 26.3099 15.5141 27.1972 18.0775 27.1972Z" fill="#1C1B1F"/>
</g>
</svg>
