<svg width="40" height="40" viewBox="0 0 40 40" fill="none" xmlns="http://www.w3.org/2000/svg">
<mask id="mask0_1175_14596" style="mask-type:alpha" maskUnits="userSpaceOnUse" x="0" y="0" width="40" height="40">
<rect width="40" height="40" fill="#D53880"/>
</mask>
<g mask="url(#mask0_1175_14596)">
<rect x="17" y="14" width="3" height="10" fill="#0B0C0C"/>
<rect x="17" y="25" width="3" height="3" fill="#0B0C0C"/>
<path fill-rule="evenodd" clip-rule="evenodd" d="M28.4585 26.8685L30.3296 30.1094L6.33039 30.1094L18.33 9.32543L21.5483 14.8996C21.9887 13.6992 22.6776 12.6188 23.5527 11.7205L21.2099 7.66272C19.9299 5.44576 16.7301 5.44576 15.4501 7.66271L3.45049 28.4467C2.17053 30.6636 3.77047 33.4348 6.33039 33.4348H30.3296C32.8895 33.4348 34.4895 30.6636 33.2095 28.4467L32.2156 26.7252C31.5068 26.9046 30.7646 27 30 27C29.4744 27 28.9594 26.9549 28.4585 26.8685Z" fill="black"/>
<path fill-rule="evenodd" clip-rule="evenodd" d="M30 26C34.4183 26 38 22.4183 38 18C38 13.5817 34.4183 10 30 10C25.5817 10 22 13.5817 22 18C22 22.4183 25.5817 26 30 26ZM29.2765 18.7235V22H30.7235V18.7235H34V17.2765H30.7235V14H29.2765V17.2765H26V18.7235H29.2765Z" fill="#0B0C0C"/>
</g>
</svg>
