<svg width="40" height="40" viewBox="0 0 40 40" fill="none" xmlns="http://www.w3.org/2000/svg">
<mask id="mask0_5638_107893" style="mask-type:alpha" maskUnits="userSpaceOnUse" x="0" y="0" width="40" height="40">
<rect width="40" height="40" fill="#D9D9D9"/>
</mask>
<g mask="url(#mask0_5638_107893)">
<path d="M16.25 25C16.25 27.512 14.6474 29.25 13 29.25C11.3526 29.25 9.75 27.512 9.75 25C9.75 22.488 11.3526 20.75 13 20.75C14.6474 20.75 16.25 22.488 16.25 25Z" stroke="black" stroke-width="1.5"/>
<path d="M16.3333 37H3.03429C3.03429 37 2.61416 33.1111 4.71491 31.9444C6.81566 30.7778 8.49624 30 8.49624 30C8.49624 30 11.1353 31.9444 13.1179 31.9444C15.1005 31.9444 17.7395 30 17.7395 30L19 31.1029" stroke="black" stroke-width="1.5"/>
<path d="M30.25 25C30.25 27.512 28.6474 29.25 27 29.25C25.3526 29.25 23.75 27.512 23.75 25C23.75 22.488 25.3526 20.75 27 20.75C28.6474 20.75 30.25 22.488 30.25 25Z" stroke="black" stroke-width="1.5"/>
<path d="M19.5254 31.9444C17.6568 33.1111 18.0305 37 18.0305 37H35.9695C35.9695 37 36.3432 33.1111 34.4746 31.9444C32.6059 30.7778 31.111 30 31.111 30C31.111 30 28.7635 31.9444 27 31.9444C25.2365 31.9444 22.889 30 22.889 30C22.889 30 21.3941 30.7778 19.5254 31.9444Z" stroke="black" stroke-width="1.5"/>
<path d="M25.6672 9.3922V15.8697C25.6672 16.1658 25.5546 16.4361 25.3725 16.6327C25.1917 16.8287 24.942 16.9509 24.6659 16.9509H15.0321C14.7578 16.9509 14.5082 16.8294 14.3267 16.6334L14.325 16.632C14.1442 16.4361 14.0316 16.1664 14.0316 15.8697V5.46581C14.0316 5.16902 14.1442 4.89939 14.325 4.70343L14.3267 4.70206C14.5082 4.50611 14.7578 4.38452 15.0321 4.38452H21.0307V5.33816H15.3242C15.2782 5.33816 15.2355 5.35823 15.2051 5.39062L15.1734 5.447C15.1434 5.48053 15.1552 5.47092 15.1552 5.52134V15.6865C15.1552 15.7369 15.1552 15.6875 15.1552 15.7403L15.2051 15.8172C15.2357 15.8496 15.2782 15.8697 15.3242 15.8697H24.4671C24.5138 15.8697 24.4984 15.8861 24.5294 15.8526L24.5881 15.8154C24.6181 15.7837 24.6367 15.7378 24.6367 15.6867L24.6562 9.3922H25.6672Z" fill="black"/>
<rect x="19.4625" y="9.34973" width="8.28896" height="2.79254" transform="rotate(-50 19.4625 9.34973)" fill="#0B0C0C"/>
<path d="M19.2785 11.7413L19.2924 9.84349L21.1451 11.398L19.2785 11.7413Z" fill="#0B0C0C"/>
</g>
</svg>
