<svg width="40" height="40" viewBox="0 0 40 40" fill="none" xmlns="http://www.w3.org/2000/svg">
<mask id="mask0_1175_14596" style="mask-type:alpha" maskUnits="userSpaceOnUse" x="0" y="0" width="40" height="40">
<rect width="40" height="40" fill="#D53880"/>
</mask>
<g mask="url(#mask0_1175_14596)">
<rect x="17" y="14" width="3" height="10" fill="#0B0C0C"/>
<rect x="17" y="25" width="3" height="3" fill="#0B0C0C"/>
<path fill-rule="evenodd" clip-rule="evenodd" d="M27.6283 25.4306L30.3296 30.1094L6.33038 30.1094L18.33 9.32543L23.063 17.5233C23.2491 16.0929 23.8381 14.789 24.7125 13.7294L21.2099 7.66272C19.9299 5.44576 16.7301 5.44576 15.4501 7.66271L3.45049 28.4467C2.17053 30.6636 3.77047 33.4348 6.33038 33.4348H30.3296C32.8895 33.4348 34.4895 30.6636 33.2095 28.4467L31.7382 25.8983C31.3354 25.9652 30.9218 26 30.5 26C29.4828 26 28.5128 25.7975 27.6283 25.4306Z" fill="black"/>
<path fill-rule="evenodd" clip-rule="evenodd" d="M30.5 25C34.0899 25 37 22.0899 37 18.5C37 14.9101 34.0899 12 30.5 12C26.9101 12 24 14.9101 24 18.5C24 22.0899 26.9101 25 30.5 25ZM29.9121 19.0879V21.75H31.0879V19.0879H33.75V17.9121H31.0879V15.25H29.9121V17.9121H27.25V19.0879H29.9121Z" fill="#0B0C0C"/>
</g>
</svg>
