<svg width="40" height="40" viewBox="0 0 40 40" fill="none" xmlns="http://www.w3.org/2000/svg">
<mask id="mask0_4003_102058" style="mask-type:alpha" maskUnits="userSpaceOnUse" x="0" y="0" width="40" height="40">
<rect width="40" height="40" fill="#D53880"/>
</mask>
<g mask="url(#mask0_4003_102058)">
<path d="M31.9995 17.7594V31.6768C31.9995 32.313 31.7576 32.8938 31.3664 33.3163L31.3678 33.3177C30.9793 33.7388 30.4414 34 29.8482 34H9.14948C8.56037 34 8.02391 33.7388 7.63404 33.3177L7.63041 33.3148C7.24191 32.8938 7 32.3144 7 31.6768V9.32323C7 8.68557 7.24191 8.10623 7.63041 7.68521L7.63404 7.68227C8.02391 7.26124 8.56037 7 9.14948 7H22.0378V8.92966H9.14948C9.05054 8.92966 8.95886 8.97279 8.89351 9.04239L8.89078 9.04533C8.82633 9.11738 8.7864 9.21492 8.7864 9.32323V31.6768C8.7864 31.7851 8.82633 31.8826 8.89078 31.9547L8.89351 31.9576C8.95932 32.0272 9.05054 32.0703 9.14948 32.0703H29.8487C29.949 32.0703 30.0393 32.0257 30.106 31.9537H30.1088C30.1732 31.8856 30.2132 31.787 30.2132 31.6773V17.7599H32L31.9995 17.7594Z" fill="black"/>
<rect x="16.6936" y="19.6429" width="17.8095" height="6" transform="rotate(-50 16.6936 19.6429)" fill="#0B0C0C"/>
<path d="M16.2981 24.7814L16.3281 20.7038L20.3086 24.0438L16.2981 24.7814Z" fill="#0B0C0C"/>
</g>
</svg>
