<svg width="40" height="40" viewBox="0 0 40 40" fill="none" xmlns="http://www.w3.org/2000/svg">
<mask id="mask0_6302_14270" style="mask-type:alpha" maskUnits="userSpaceOnUse" x="0" y="0" width="40" height="40">
<rect width="40" height="40" fill="#D9D9D9"/>
</mask>
<g mask="url(#mask0_6302_14270)">
<path d="M6.25376 19H15.7462C17.5429 19 19 17.5429 19 15.7462V6.25376C19 4.46419 17.5429 3 15.7462 3H6.25376C4.45712 3 3 4.45712 3 6.25376V15.7462C3 17.5429 4.45712 19 6.25376 19ZM4.06101 6.25376C4.06101 5.04421 5.04421 4.06101 6.25376 4.06101H15.7462C16.9558 4.06101 17.939 5.04421 17.939 6.25376V15.7462C17.939 16.9558 16.9558 17.939 15.7462 17.939H6.25376C5.04421 17.939 4.06101 16.9558 4.06101 15.7462V6.25376Z" fill="#0B0C0C"/>
<path d="M24.2538 19H33.7462C35.5429 19 37 17.5429 37 15.7462V6.25376C37 4.46419 35.5429 3 33.7462 3H24.2538C22.4571 3 21 4.45712 21 6.25376V15.7462C21 17.5429 22.4571 19 24.2538 19ZM22.061 6.25376C22.061 5.04421 23.0442 4.06101 24.2538 4.06101H33.7462C34.9558 4.06101 35.939 5.04421 35.939 6.25376V15.7462C35.939 16.9558 34.9558 17.939 33.7462 17.939H24.2538C23.0442 17.939 22.061 16.9558 22.061 15.7462V6.25376Z" fill="#0B0C0C"/>
<path d="M6.25376 37H15.7462C17.5429 37 19 35.5429 19 33.7462V24.2538C19 22.4571 17.5429 21 15.7462 21H6.25376C4.46419 21 3 22.4571 3 24.2538V33.7462C3 35.5429 4.45712 37 6.25376 37ZM4.06101 24.2538C4.06101 23.0442 5.04421 22.061 6.25376 22.061H15.7462C16.9558 22.061 17.939 23.0442 17.939 24.2538V33.7462C17.939 34.9558 16.9558 35.939 15.7462 35.939H6.25376C5.04421 35.939 4.06101 34.9558 4.06101 33.7462V24.2538Z" fill="#0B0C0C"/>
<path d="M21 33.7462C21 35.5429 22.4571 37 24.2538 37H33.7462C35.5429 37 37 35.5429 37 33.7462V24.2538C37 22.4571 35.5429 21 33.7462 21H24.2538C22.4571 21 21 22.4571 21 24.2538V33.7462ZM22.061 24.2538C22.061 23.0442 23.0442 22.061 24.2538 22.061H33.7462C34.9558 22.061 35.939 23.0442 35.939 24.2538V33.7462C35.939 34.9558 34.9558 35.939 33.7462 35.939H24.2538C23.0442 35.939 22.061 34.9558 22.061 33.7462V24.2538Z" fill="#0B0C0C"/>
<rect x="24" y="10" width="10" height="2" rx="1" fill="#0B0C0C"/>
<rect x="24" y="26" width="10" height="2" rx="1" fill="#0B0C0C"/>
<rect x="24" y="30" width="10" height="2" rx="1" fill="#0B0C0C"/>
<rect x="6" y="10" width="10" height="2" rx="1" fill="#0B0C0C"/>
<rect x="12" y="6" width="10" height="2" rx="1" transform="rotate(90 12 6)" fill="#0B0C0C"/>
<rect x="8.17157" y="24.7573" width="10" height="2" rx="1" transform="rotate(45 8.17157 24.7573)" fill="#0B0C0C"/>
<rect x="15.2426" y="26.1716" width="10" height="2" rx="1" transform="rotate(135 15.2426 26.1716)" fill="#0B0C0C"/>
</g>
</svg>
