<svg width="40" height="40" viewBox="0 0 40 40" fill="none" xmlns="http://www.w3.org/2000/svg">
<mask id="mask0_5880_106215" style="mask-type:alpha" maskUnits="userSpaceOnUse" x="0" y="0" width="40" height="40">
<rect width="40" height="40" fill="#D9D9D9"/>
</mask>
<g mask="url(#mask0_5880_106215)">
<path d="M30.6449 5.50931C30.6323 5.50764 30.6164 5.50506 30.598 5.50092C30.5919 5.50033 30.5851 5.5 30.577 5.5H13.4193C13.3067 5.5 13.224 5.58906 13.224 5.68865V30.2601V30.7601H12.724H3.69534C3.58273 30.7601 3.5 30.8491 3.5 30.9487C3.5 31.0466 3.58466 31.1374 3.69534 31.1374H18.0573H18.5573V31.6374V35.3114C18.5573 35.3696 18.5858 35.4281 18.6423 35.4676L18.6458 35.4701C18.6683 35.4861 18.7062 35.5 18.7527 35.5C18.7737 35.5 18.7996 35.496 18.8259 35.4868L30.6449 5.50931ZM30.6449 5.50931C30.6462 5.50978 30.6477 5.51031 30.6492 5.51087C30.6626 5.51786 30.677 5.52598 30.6888 5.53331L30.7085 5.54547L30.7148 5.55178L30.7239 5.56077C30.7279 5.56466 30.7308 5.56774 30.733 5.57008L30.7411 5.58207C30.7465 5.59006 30.75 5.59625 30.7522 5.60061C30.7546 5.60623 30.757 5.61147 30.7592 5.61632C30.7623 5.62404 30.7646 5.63015 30.7664 5.63497L30.6449 5.50931ZM18.0573 30.7565H18.5573V30.2565V10.0477C18.5573 9.96985 18.6041 9.90024 18.6819 9.87137C18.682 9.87133 18.6821 9.8713 18.6822 9.87127L26.8911 6.84279L26.7181 5.87369H14.1147H13.6147V6.37369V30.2565V30.7565H14.1147H18.0573ZM30.0548 30.9346L30.3817 30.814V30.4656V6.67655V5.95906L29.7086 6.20748L19.2749 10.0581L18.948 10.1788V10.5272V34.3162V35.0337L19.6211 34.7853L30.0548 30.9346Z" fill="black" stroke="black"/>
<path d="M21 21.75L23 21V23.25L21 24V21.75Z" stroke="black"/>
<path d="M3 18.839L9.80267 23.6978L9.80267 13.9802L3 18.839Z" fill="#1D1D1B"/>
<path d="M9.61983 21.649L16 21.649L16 16.0296L9.61983 16.0296L9.61983 21.649Z" fill="#1D1D1B"/>
</g>
</svg>
