<svg width="40" height="40" viewBox="0 0 40 40" fill="none" xmlns="http://www.w3.org/2000/svg">
<mask id="mask0_5880_106215" style="mask-type:alpha" maskUnits="userSpaceOnUse" x="0" y="0" width="40" height="40">
<rect width="40" height="40" fill="#D9D9D9"/>
</mask>
<g mask="url(#mask0_5880_106215)">
<path d="M22 18.4L27.8 16V17.6L22 20V18.4Z" stroke="black"/>
<path d="M35.301 30.2565H31.2724V5.68504C31.2724 5.64178 31.2687 5.60212 31.2614 5.56246C31.2614 5.55525 31.2614 5.54443 31.2578 5.53722C31.2505 5.50116 31.236 5.4615 31.2214 5.42545C31.2214 5.41824 31.2141 5.41103 31.2105 5.40021C31.1959 5.36776 31.1777 5.33531 31.1559 5.30286C31.1559 5.30286 31.1559 5.29565 31.1522 5.29565C31.1304 5.2632 31.1049 5.23436 31.0758 5.20551C31.0685 5.1983 31.0648 5.1947 31.0576 5.18749C31.0321 5.16225 31.003 5.13701 30.9702 5.11538C30.9702 5.11538 30.9702 5.11538 30.9666 5.11538C30.9629 5.11538 30.9593 5.11177 30.952 5.10816C30.9229 5.09014 30.8901 5.07211 30.861 5.05769C30.8537 5.05408 30.8464 5.05048 30.8355 5.04687C30.7991 5.03245 30.7627 5.02163 30.7263 5.01442C30.719 5.01442 30.7081 5.01442 30.7008 5.01082C30.6607 5.00361 30.6207 5 30.577 5H13.4193C13.0334 5 12.724 5.31007 12.724 5.68865V30.2601H3.69534C3.30944 30.2601 3 30.5701 3 30.9487C3 31.3273 3.31308 31.6374 3.69534 31.6374H18.0573V35.3114C18.0573 35.5385 18.1702 35.7476 18.3559 35.8774C18.4724 35.9603 18.6143 36 18.7527 36C18.8328 36 18.9165 35.9856 18.9966 35.9567L30.7044 31.6374H36.3047C36.6906 31.6374 37 31.3273 37 30.9487C37 30.5701 36.6869 30.2601 36.3047 30.2601L35.301 30.2565ZM18.5088 9.4023C18.2357 9.50326 18.0573 9.75925 18.0573 10.0477V30.2565H14.1147V6.37369H26.7181L18.5088 9.4023ZM29.8817 30.4656L19.448 34.3162V10.5272L29.8817 6.67655V30.4656Z" fill="black"/>
<path d="M3 18.8389L10 23.6977V13.9801L3 18.8389Z" fill="#1D1D1B"/>
<path d="M10 21.649H16L16 16.0295L10 16.0295V21.649Z" fill="#1D1D1B"/>
</g>
</svg>
