<svg width="20" height="16" viewBox="0 0 20 16" fill="none" xmlns="http://www.w3.org/2000/svg">
    <path fill-rule="evenodd" clip-rule="evenodd" d="M6.2773 0C5.73628 0 5.2977 0.438578 5.2977 0.979591V15.0204C5.2977 15.5614 5.73628 16 6.2773 16H13.461C14.002 16 14.4406 15.5614 14.4406 15.0204V0.979592C14.4406 0.438578 14.002 0 13.461 0H6.2773ZM13.461 1.95918H6.2773V12.4082H13.461V1.95918ZM9.21607 14.0408C9.21607 13.6801 9.50846 13.3878 9.86913 13.3878C10.2298 13.3878 10.5222 13.6801 10.5222 14.0408C10.5222 14.4015 10.2298 14.6939 9.86913 14.6939C9.50846 14.6939 9.21607 14.4015 9.21607 14.0408ZM7.90995 0.653061C7.72961 0.653061 7.58342 0.799254 7.58342 0.979592C7.58342 1.15993 7.72961 1.30612 7.90995 1.30612H11.8283C12.0087 1.30612 12.1548 1.15993 12.1548 0.979592C12.1548 0.799254 12.0087 0.653061 11.8283 0.653061H7.90995Z" fill="#D4351C"/>
    <path fill-rule="evenodd" clip-rule="evenodd" d="M16.176 3.16141C16.0679 3.38394 16.1606 3.65197 16.3832 3.76008C17.7292 4.414 18.6556 5.79363 18.6556 7.38876C18.6556 8.98389 17.7292 10.3635 16.3832 11.0174C16.1606 11.1255 16.0679 11.3936 16.176 11.6161C16.2841 11.8386 16.5521 11.9314 16.7747 11.8233C18.4175 11.0252 19.5515 9.33984 19.5515 7.38876C19.5515 5.43768 18.4175 3.75232 16.7747 2.95422C16.5521 2.84612 16.2841 2.93888 16.176 3.16141Z" fill="#D4351C"/>
    <path fill-rule="evenodd" clip-rule="evenodd" d="M3.82473 3.16141C3.93284 3.38394 3.84008 3.65197 3.61755 3.76008C2.27147 4.414 1.34513 5.79363 1.34513 7.38876C1.34513 8.98389 2.27147 10.3635 3.61755 11.0174C3.84008 11.1255 3.93284 11.3936 3.82473 11.6161C3.71662 11.8386 3.44859 11.9314 3.22606 11.8233C1.58322 11.0252 0.449219 9.33984 0.449219 7.38876C0.449219 5.43768 1.58322 3.75232 3.22606 2.95422C3.44859 2.84612 3.71662 2.93888 3.82473 3.16141Z" fill="#D4351C"/>
    <path fill-rule="evenodd" clip-rule="evenodd" d="M16.0784 5.29883C15.9134 5.48318 15.9291 5.76638 16.1134 5.93137C16.5724 6.34213 16.8601 6.93763 16.8601 7.60094C16.8601 8.26425 16.5724 8.85975 16.1134 9.27051C15.9291 9.4355 15.9134 9.7187 16.0784 9.90304C16.2434 10.0874 16.5266 10.1031 16.7109 9.93808C17.3517 9.36456 17.756 8.52967 17.756 7.60094C17.756 6.67221 17.3517 5.83732 16.7109 5.26379C16.5266 5.0988 16.2434 5.11449 16.0784 5.29883Z" fill="#D4351C"/>
    <path fill-rule="evenodd" clip-rule="evenodd" d="M3.92233 5.29883C4.08733 5.48318 4.07164 5.76638 3.88729 5.93137C3.42835 6.34213 3.14059 6.93763 3.14059 7.60094C3.14059 8.26425 3.42835 8.85975 3.88729 9.27051C4.07164 9.4355 4.08733 9.7187 3.92233 9.90304C3.75734 10.0874 3.47414 10.1031 3.28979 9.93808C2.649 9.36456 2.24467 8.52967 2.24467 7.60094C2.24467 6.67221 2.649 5.83732 3.28979 5.26379C3.47414 5.0988 3.75734 5.11449 3.92233 5.29883Z" fill="#D4351C"/>
</svg>
