<?xml version="1.0" encoding="utf-8"?>
<svg viewBox="0 0 40 40" xmlns="http://www.w3.org/2000/svg">
<svg viewBox="0 0 24 24" id="chevron_left" xmlns="http://www.w3.org/2000/svg"><path d="M15.41 7.41L14 6l-6 6 6 6 1.41-1.41L10.83 12z" fill="#0B0C0C"/></svg>
<svg viewBox="0 0 24 24" id="chevron_right" xmlns="http://www.w3.org/2000/svg"><path d="M10 6L8.59 7.41 13.17 12l-4.58 4.59L10 18l6-6z" fill="#0B0C0C"/></svg>
<svg viewBox="0 0 24 24" id="double_chevron_left" xmlns="http://www.w3.org/2000/svg"><g fill="#0B0C0C"><path d="M18.4 16.6L13.8 12l4.6-4.6L17 6l-6 6 6 6 1.4-1.4z"/><path d="M12.4 16.6L7.8 12l4.6-4.6L11 6l-6 6 6 6 1.4-1.4z"/></g></svg>
<svg viewBox="0 0 24 24" id="double_chevron_right" xmlns="http://www.w3.org/2000/svg"><g fill="#0B0C0C"><path d="M5.6 7.4l4.6 4.6-4.6 4.6L7 18l6-6-6-6-1.4 1.4z"/><path d="M11.6 7.4l4.6 4.6-4.6 4.6L13 18l6-6-6-6-1.4 1.4z"/></g></svg>
</svg>
