<svg width="40" height="40" viewBox="0 0 40 40" fill="none" xmlns="http://www.w3.org/2000/svg">
<mask id="mask0_6427_26628" style="mask-type:alpha" maskUnits="userSpaceOnUse" x="0" y="0" width="40" height="40">
<rect width="40" height="40" fill="#D53880"/>
</mask>
<g mask="url(#mask0_6427_26628)">
<path d="M26.9995 20.2406V6.32323C26.9995 5.68704 26.7576 5.10623 26.3664 4.68373L26.3678 4.68227C25.9793 4.26124 25.4414 4 24.8482 4H7.14948C6.56037 4 6.02391 4.26124 5.63404 4.68227L5.63041 4.68521C5.24191 5.10623 5 5.68557 5 6.32323V28.6768C5 29.3144 5.24191 29.8938 5.63041 30.3148L5.63404 30.3177C6.02391 30.7388 6.56037 31 7.14948 31H20.0378V29.0703H7.14948C7.05054 29.0703 6.95886 29.0272 6.89351 28.9576L6.89078 28.9547C6.82633 28.8826 6.7864 28.7851 6.7864 28.6768V6.32323C6.7864 6.21491 6.82633 6.11738 6.89078 6.04533L6.89351 6.04239C6.95932 5.97279 7.05054 5.92966 7.14948 5.92966H24.8487C24.949 5.92966 25.0393 5.97426 25.106 6.04631H25.1088C25.1732 6.11444 25.2132 6.21295 25.2132 6.32274V20.2401L26.9995 20.2406Z" fill="black"/>
<rect x="11" y="8" width="13" height="2" fill="#231F20"/>
<rect x="8" y="8" width="2" height="2" fill="#231F20"/>
<rect x="11" y="12" width="10" height="2" fill="#231F20"/>
<rect x="8" y="12" width="2" height="2" fill="#231F20"/>
<rect x="11" y="16" width="12" height="2" fill="#231F20"/>
<rect x="8" y="16" width="2" height="2" fill="#231F20"/>
<rect x="11" y="20" width="8" height="2" fill="#231F20"/>
<rect x="8" y="20" width="2" height="2" fill="#231F20"/>
<rect width="13.7619" height="6" transform="matrix(0.728947 0.68457 0.68457 -0.728947 21.8725 27.0243)" fill="#0B0C0C"/>
<path d="M21.5658 22.6208L21.5575 26.1772L25.1146 22.3895L21.5658 22.6208Z" fill="#0B0C0C"/>
</g>
</svg>
