<svg width="40" height="40" viewBox="0 0 40 40" fill="none" xmlns="http://www.w3.org/2000/svg">
    <path d="M10.0436 32.4897V31.4897H9.04356H5.64356C5.09127 31.4897 4.64355 31.0419 4.64355 30.4897V9C4.64355 8.44772 5.09127 8 5.64355 8H28.6436C29.1958 8 29.6436 8.44772 29.6436 9V30.4897C29.6436 31.0419 29.1958 31.4897 28.6436 31.4897H16.8861C16.3517 31.4897 15.8396 31.7035 15.4638 32.0835L10.0436 37.5661L10.0436 32.4897Z" fill="white" stroke="black" stroke-width="2"/>
    <path fill-rule="evenodd" clip-rule="evenodd" d="M29.9286 26.3571C33.479 26.3571 36.3571 23.479 36.3571 19.9286C36.3571 16.3782 33.479 13.5 29.9286 13.5C26.3782 13.5 23.5 16.3782 23.5 19.9286C23.5 23.479 26.3782 26.3571 29.9286 26.3571ZM29.2489 20.6087V23.6804H30.6055V20.6087H33.6772V19.2521H30.6055V16.1804H29.2489V19.2521H26.1772V20.6087H29.2489Z" fill="black"/>
    <path d="M29.2514 23.6807V20.609H26.1797V19.2523H29.2514V16.1807H30.608V19.2523H33.6797V20.609H30.608V23.6807H29.2514Z" fill="white" stroke="white"/>
</svg>
