<svg width="42" height="42" viewBox="0 0 42 42" fill="none" xmlns="http://www.w3.org/2000/svg">
    <rect width="42" height="42" fill="white"/>
    <mask id="mask0_5128_30172" style="mask-type:alpha" maskUnits="userSpaceOnUse" x="0" y="0" width="42" height="42">
        <rect width="42" height="42" fill="#D9D9D9"/>
    </mask>
    <g mask="url(#mask0_5128_30172)">
        <path d="M17.1002 26.25C17.1002 28.9001 15.4081 30.75 13.6502 30.75C11.8923 30.75 10.2002 28.9001 10.2002 26.25C10.2002 23.5999 11.8923 21.75 13.6502 21.75C15.4081 21.75 17.1002 23.5999 17.1002 26.25Z" stroke="black" stroke-width="1.5"/>
        <path d="M17.1504 38.85H3.1864C3.1864 38.85 2.74526 34.7667 4.95105 33.5417C7.15683 32.3167 8.92144 31.5 8.92144 31.5C8.92144 31.5 11.6925 33.5417 13.7742 33.5417C15.8559 33.5417 18.6269 31.5 18.6269 31.5L19.9504 32.6581" stroke="black" stroke-width="1.5"/>
        <path d="M31.8004 26.25C31.8004 28.9001 30.1082 30.75 28.3504 30.75C26.5925 30.75 24.9004 28.9001 24.9004 26.25C24.9004 23.5999 26.5925 21.75 28.3504 21.75C30.1082 21.75 31.8004 23.5999 31.8004 26.25Z" stroke="black" stroke-width="1.5"/>
        <path d="M20.5021 33.5417C18.54 34.7667 18.9324 38.85 18.9324 38.85H37.7684C37.7684 38.85 38.1608 34.7667 36.1987 33.5417C34.2366 32.3167 32.6669 31.5 32.6669 31.5C32.6669 31.5 30.2021 33.5417 28.3504 33.5417C26.4987 33.5417 24.0338 31.5 24.0338 31.5C24.0338 31.5 22.4642 32.3167 20.5021 33.5417Z" stroke="black" stroke-width="1.5"/>
        <path d="M26.9508 9.86158V16.6629C26.9508 16.9738 26.8326 17.2576 26.6413 17.4641C26.4515 17.6699 26.1893 17.7983 25.8994 17.7983H15.7839C15.4959 17.7983 15.2338 17.6706 15.0433 17.4648L15.0415 17.4634C14.8516 17.2576 14.7334 16.9745 14.7334 16.6629V5.73887C14.7334 5.42724 14.8516 5.14412 15.0415 4.93837L15.0433 4.93694C15.2338 4.73118 15.4959 4.60352 15.7839 4.60352H22.0824V5.60483H16.0906C16.0423 5.60483 15.9975 5.62591 15.9655 5.65992L15.9323 5.71911C15.9008 5.75432 15.9132 5.74424 15.9132 5.79717V16.4706C15.9132 16.5235 15.9132 16.4716 15.9132 16.5271L15.9655 16.6078C15.9977 16.6418 16.0423 16.6629 16.0906 16.6629H25.6906C25.7397 16.6629 25.7235 16.6802 25.7561 16.645L25.8177 16.6059C25.8492 16.5726 25.8688 16.5245 25.8688 16.4708L25.8893 9.86158H26.9508Z" fill="black"/>
        <rect x="20.4355" y="9.81836" width="8.70341" height="2.93216" transform="rotate(-50 20.4355 9.81836)" fill="#0B0C0C"/>
        <path d="M20.2422 12.3291L20.2568 10.3364L22.202 11.9687L20.2422 12.3291Z" fill="#0B0C0C"/>
    </g>
</svg>
