<svg width="40" height="40" viewBox="0 0 40 40" fill="none" xmlns="http://www.w3.org/2000/svg">
    <path fill-rule="evenodd" clip-rule="evenodd" d="M29.2617 24.0442C29.4869 24.2083 29.663 24.4554 29.7407 24.7855C29.9405 25.6351 30.9146 26.0386 31.6567 25.5791C31.9461 25.3999 32.2467 25.3501 32.5229 25.3941C32.9225 25.7094 33.2841 26.0705 33.5999 26.4696C33.6445 26.7464 33.5949 27.0476 33.4153 27.3377C32.9558 28.0798 33.3593 29.0539 34.2089 29.2537C34.543 29.3323 34.792 29.5118 34.9561 29.7409C34.9851 29.9899 35 30.2432 35 30.5C35 30.7545 34.9854 31.0056 34.9569 31.2525C34.7928 31.4821 34.5435 31.6621 34.2089 31.7407C33.3593 31.9406 32.9558 32.9147 33.4153 33.6568C33.5964 33.9493 33.6454 34.2532 33.5988 34.5318C33.2856 34.9274 32.9273 35.2857 32.5317 35.5989C32.2531 35.6455 31.9492 35.5965 31.6567 35.4154C30.9146 34.9559 29.9405 35.3594 29.7407 36.209C29.662 36.5435 29.4821 36.7928 29.2525 36.9569C29.0056 36.9854 28.7545 37 28.5 37C28.2431 37 27.9897 36.9851 27.7406 36.9561C27.5116 36.792 27.3322 36.543 27.2536 36.209C27.0538 35.3594 26.0797 34.9559 25.3376 35.4154C25.0476 35.5949 24.7464 35.6446 24.4698 35.6001C24.0706 35.2842 23.7093 34.9224 23.394 34.5227C23.35 34.2466 23.3999 33.9461 23.579 33.6568C24.0385 32.9147 23.635 31.9406 22.7854 31.7407C22.4554 31.6631 22.2083 31.487 22.0442 31.2619C22.015 31.012 22 30.7578 22 30.5C22 30.24 22.0153 29.9835 22.045 29.7315C22.2091 29.5069 22.4559 29.3312 22.7854 29.2537C23.635 29.0539 24.0385 28.0798 23.579 27.3377C23.4013 27.0508 23.3508 26.7529 23.3929 26.4786C23.7108 26.0755 24.0754 25.7109 24.4785 25.393C24.7528 25.3509 25.0507 25.4014 25.3376 25.5791C26.0797 26.0386 27.0538 25.6351 27.2536 24.7855C27.3311 24.456 27.5069 24.2091 27.7315 24.045C27.9836 24.0153 28.24 24 28.5 24C28.7577 24 29.0118 24.015 29.2617 24.0442ZM31.9972 30.4972C31.9972 32.4302 30.4302 33.9972 28.4972 33.9972C26.5642 33.9972 24.9972 32.4302 24.9972 30.4972C24.9972 28.5642 26.5642 26.9972 28.4972 26.9972C30.4302 26.9972 31.9972 28.5642 31.9972 30.4972Z" fill="black"/>
    <path fill-rule="evenodd" clip-rule="evenodd" d="M16.1054 3C15.0463 3 14.1702 3.78314 14.0245 4.80191H12.1154C11.4994 4.80191 11 5.3013 11 5.91734C11 7.45743 12.2485 8.70592 13.7886 8.70592H18.4219C19.962 8.70592 21.2105 7.45743 21.2105 5.91734C21.2105 5.3013 20.7111 4.80191 20.0951 4.80191H18.1863C18.0406 3.78314 17.1644 3 16.1054 3ZM16.1053 6.30342C16.7687 6.30342 17.3065 5.76561 17.3065 5.10219C17.3065 4.43876 16.7687 3.90095 16.1053 3.90095C15.4418 3.90095 14.904 4.43876 14.904 5.10219C14.904 5.76561 15.4418 6.30342 16.1053 6.30342Z" fill="black"/>
    <path fill-rule="evenodd" clip-rule="evenodd" d="M14.0987 11L15 11.9485L11.1502 16L9 13.7371L9.90133 12.7886L11.1502 14.1029L14.0987 11Z" fill="black"/>
    <path fill-rule="evenodd" clip-rule="evenodd" d="M14.0987 17L15 17.9485L11.1502 22L9 19.7371L9.90133 18.7886L11.1502 20.1029L14.0987 17Z" fill="black"/>
    <path fill-rule="evenodd" clip-rule="evenodd" d="M14.0987 23L15 23.9485L11.1502 28L9 25.7371L9.90133 24.7886L11.1502 26.1029L14.0987 23Z" fill="black"/>
    <path d="M10 6H7.14948C6.56037 6 6.02391 6.26124 5.63404 6.68227L5.63041 6.68521C5.24191 7.10623 5 7.68557 5 8.32323V30.6768C5 31.3144 5.24191 31.8938 5.63041 32.3148L5.63404 32.3177C6.02391 32.7388 6.56037 33 7.14948 33H20.0378V31.0703H7.14948C7.05054 31.0703 6.95886 31.0272 6.89351 30.9576L6.89078 30.9547C6.82633 30.8826 6.7864 30.7851 6.7864 30.6768V8.32323C6.7864 8.21491 6.82633 8.11738 6.89078 8.04533L6.89351 8.04239C6.95932 7.97279 7.05054 7.92966 7.14948 7.92966H10V6Z" fill="black"/>
    <path d="M23 7.92966H24.8487C24.949 7.92966 25.0393 7.97426 25.106 8.04631H25.1088C25.1732 8.11444 25.2132 8.21295 25.2132 8.32274V22.2401L26.9995 22.2406V8.32323C26.9995 7.68704 26.7576 7.10623 26.3664 6.68373L26.3678 6.68227C25.9793 6.26124 25.4414 6 24.8482 6H23V7.92966Z" fill="black"/>
</svg>