<svg xmlns="http://www.w3.org/2000/svg" width="36" height="36" viewBox="0 0 36 36" fill="none">
    <path d="M5 32.1429V34C5 34.5523 5.44772 35 6 35H30C30.5523 35 31 34.5523 31 34V20C31 19.4477 30.5523 19 30 19H6C5.44772 19 5 19.4477 5 20V21.8571" stroke="black"/>
    <rect x="1" y="16" width="34" height="3" rx="1" stroke="black"/>
    <path d="M15 27L7.97355 22L7.97355 32L15 27Z" fill="#1D1D1B"/>
    <path d="M7.97355 24.1082L6.89919e-07 24.1082L1.84372e-07 29.891L7.97355 29.891L7.97355 24.1082Z" fill="#1D1D1B"/>
    <ellipse cx="24.9415" cy="5.41177" rx="3.52941" ry="4.41177" stroke="black"/>
    <path d="M18.346 11.5394C16.6972 12.5688 17.0269 16.0002 17.0269 16.0002H32.8554C32.8554 16.0002 33.1852 12.5688 31.5364 11.5394C29.8876 10.51 28.5685 9.82373 28.5685 9.82373C28.5685 9.82373 26.4972 11.5394 24.9412 11.5394C23.3851 11.5394 21.3138 9.82373 21.3138 9.82373C21.3138 9.82373 19.9948 10.51 18.346 11.5394Z" stroke="black"/>
    <rect x="1" y="5" width="14" height="9" stroke="black"/>
    <rect x="6" y="14" width="4" height="2" stroke="black"/>
    <rect x="3.25" y="11.25" width="1.5" height="0.5" stroke="black" stroke-width="0.5"/>
    <rect x="6.25" y="11.25" width="1.5" height="0.5" stroke="black" stroke-width="0.5"/>
</svg>
