<svg width="20" height="16" viewBox="0 0 20 16" fill="none" xmlns="http://www.w3.org/2000/svg">
    <path d="M14 3.99994C14 6.20908 12.2091 7.99994 10 7.99994C7.79086 7.99994 6 6.20908 6 3.99994C6 1.7908 7.79086 -6.10352e-05 10 -6.10352e-05C12.2091 -6.10352e-05 14 1.7908 14 3.99994Z" fill="#1D70B8"/>
    <path d="M3.35594 11.1852C1.69493 12.2963 2.02712 16 2.02712 16H17.9729C17.9729 16 18.3051 12.2963 16.6441 11.1852C14.983 10.0741 13.6542 9.33335 13.6542 9.33335C13.6542 9.33335 11.5676 10.0307 10 10.0307C8.43243 10.0307 6.34575 9.33335 6.34575 9.33335C6.34575 9.33335 5.01696 10.0741 3.35594 11.1852Z" fill="#1D70B8"/>
</svg>
