<svg width="20" height="23" viewBox="0 0 20 23" fill="none" xmlns="http://www.w3.org/2000/svg">
<style>
:root {color: #0B0C0C}
@media (forced-colors: active) and (prefers-color-scheme: dark) {
  :root {color: #F3F2F1}
}
</style>
<g fill="currentColor" fill-rule="evenodd">
<path d="M20 9H15V0H9C8.23612 1.4641 7.37904 2.3923 6.29231 3.56922C5.89454 4 5.466 4.4641 5 5V9H0V18H5V23H15V18L20 17.8529V9ZM14 22H6V15H14V22ZM16 11H18V13H16V11ZM14 1H9V5H6V9H14V1Z"/>
<path d="M7 16H13V17H7V16Z"/>
<path d="M7 18H13V19H7V18Z"/>
<path d="M7 20H13V21H7V20Z"/>
</g>
</svg>
