<svg width="40" height="40" viewBox="0 0 40 40" fill="none" xmlns="http://www.w3.org/2000/svg">
<mask id="mask0_4003_102055" style="mask-type:alpha" maskUnits="userSpaceOnUse" x="0" y="0" width="40" height="40">
<rect width="40" height="40" fill="#D53880"/>
</mask>
<g mask="url(#mask0_4003_102055)">
<path d="M14.5969 23.8172C13.9949 23.8172 13.4621 23.9548 13.0131 24.1436L13.1052 10.6872C15.4478 9.89038 17.816 9.85136 20.4262 10.24C21.401 10.4205 22.3819 10.6828 23.4054 10.9564L23.4799 10.9763C24.5211 11.2546 25.6076 11.543 26.6968 11.7315C28.4133 12.0285 30.2064 12.0905 32 11.4706V25.3513C29.807 26.0577 27.4458 26.1303 25.0182 25.8407C23.9522 25.6854 22.9172 25.4007 21.8241 25.0843C21.7142 25.0525 21.6036 25.0203 21.4923 24.988C20.5128 24.7031 19.4789 24.4025 18.4033 24.1942C17.2889 23.9592 16.1556 23.8172 14.5969 23.8172Z" stroke="black" stroke-width="2"/>
<path d="M21.2765 22V18.7235H18V17.2765H21.2765V14H22.7235V17.2765H26V18.7235H22.7235V22H21.2765Z" fill="#1C1B1F"/>
<path d="M21.2765 22V18.7235H18V17.2765H21.2765V14H22.7235V17.2765H26V18.7235H22.7235V22H21.2765Z" fill="#1C1B1F"/>
<path d="M9.97157 6C8.88397 6 8 6.89294 8 7.99157C8 8.73794 8.40846 9.38825 9.012 9.72942V34.9988H10.9311V9.72942C11.5347 9.38825 11.9431 8.73794 11.9431 7.99157C11.9431 6.89294 11.0592 6 9.97157 6Z" fill="#1A1A1A"/>
</g>
</svg>
