<svg width="40" height="40" viewBox="0 0 40 40" fill="none" xmlns="http://www.w3.org/2000/svg">
<mask id="mask0_4003_102056" style="mask-type:alpha" maskUnits="userSpaceOnUse" x="0" y="0" width="40" height="40">
<rect width="40" height="40" fill="#D53880"/>
</mask>
<g mask="url(#mask0_4003_102056)">
<path d="M33.5918 15.139C33.5956 14.0427 33.6171 12.9464 33.5962 11.8508C33.581 11.0575 33.0644 10.5653 32.1826 10.5419C30.8754 10.5065 29.5649 10.4913 28.2596 10.5476C27.8823 10.5641 27.4778 10.8 27.1524 11.0297C26.0838 11.7837 25.257 12.7876 24.4068 13.7688C23.6421 14.6519 23.3921 15.7368 23.104 16.8122C22.9882 17.2449 22.6457 17.4581 22.2893 17.2949C22.0247 17.1741 21.9006 16.9046 21.988 16.5769C22.1209 16.079 22.2728 15.5856 22.414 15.0897C22.4469 14.9733 22.471 14.8537 22.5121 14.6804C22.3119 14.6804 22.1522 14.6646 21.9458 14.6646C21.0712 14.6804 21.1107 14.6646 21.1509 14.2939C21.1509 13.875 21.3818 13.5436 21.8389 13.5423C22.5009 13.5423 21.5009 13.5468 22.9052 13.5468C23.1021 13.5468 23.2072 13.4658 23.3174 13.3241C24.2543 12.1253 25.2437 10.9765 26.4934 10.0839C27.1448 9.61897 27.8532 9.36087 28.6755 9.38428C29.8245 9.4178 30.9754 9.38871 32.125 9.39566C33.3335 9.40326 34.3261 10.0833 34.6211 11.117C34.6952 11.377 34.7129 11.6553 34.7313 11.9273C34.749 12.1993 34.7351 12.4732 34.7351 12.7933L35.0927 12.7933C36.3481 12.7933 36.4821 12.7933 37.7381 12.7933C38.8232 12.7933 39.5657 13.3443 39.893 14.3875C40.1431 15.1858 40.0696 15.9468 39.6138 16.6813C40.2501 17.1924 40.6141 17.8256 40.6109 18.6626C40.6077 19.502 40.2671 20.1371 39.5613 20.5717C40.4457 21.9267 40.0513 23.5734 38.6446 24.2364C38.8744 24.7494 39.001 25.2789 38.9023 25.8501C38.7231 26.8838 37.9211 27.5935 36.9107 27.5954C33.8088 27.6018 31.8287 27.6119 28.7274 27.591C27.467 27.5828 26.306 27.145 25.2114 26.5561C24.5949 26.224 24.0219 25.8128 23.4212 25.4509C23.2844 25.3687 22.4189 25.3078 21.9189 25.3078C21.9984 25.3078 20.5903 25.2979 20.5371 25.2979C20.2626 25.2979 19.9819 25.3498 20.0009 25C20.0009 24.8151 20.2263 24.1725 20.5966 24.1712C21.7779 24.1655 19.8196 24.1674 21.0009 24.1674C23.0009 24.1674 18.1548 24.1687 21.8784 24.1674C22.0665 24.1674 22.2538 24.1503 22.4767 24.1396C22.3311 23.7379 22.1823 23.3716 22.0665 22.9952C21.9557 22.634 21.8639 22.2652 21.7917 21.8939C21.717 21.5086 21.9196 21.2113 22.257 21.1588C22.5931 21.1069 22.8483 21.3302 22.9147 21.725C23.0686 22.6384 23.4307 23.4766 23.8504 24.2939C23.8827 24.3565 23.9333 24.4185 23.9903 24.459C25.3241 25.4092 26.727 26.2271 28.3881 26.4213C29.1066 26.5055 29.8416 26.4517 30.569 26.4574C31.0513 26.4612 31.5337 26.458 32.0541 26.458C31.6831 25.4358 31.7749 24.5229 32.5238 23.7107C32.0262 23.2533 31.7724 22.6757 31.7964 22.002C31.8199 21.3505 32.0275 20.7609 32.5498 20.2966C32.0933 19.7639 31.8781 19.1535 31.8749 18.4652C31.8749 18.4083 31.8148 18.3298 31.761 18.2994C31.0995 17.9268 30.6487 17.3746 30.3841 16.6775C30.0182 17.1133 29.6795 17.5517 29.3022 17.9534C28.9743 18.3026 28.4229 18.1653 28.3425 17.7118C28.3115 17.5391 28.4001 17.2867 28.5236 17.1544C29.2794 16.3473 29.7878 15.418 29.9695 14.3274C30.0347 13.9352 30.0404 13.5316 30.0562 13.1324C30.072 12.7351 30.2872 12.4815 30.6329 12.4834C30.9393 12.4853 31.1881 12.7623 31.1982 13.1242C31.221 13.9029 31.1982 14.6854 31.2685 15.4597C31.3938 16.8375 32.1611 17.5359 33.5911 17.6308C33.5911 16.8862 33.5911 16.1429 33.5911 15.4003C33.5911 15.3136 33.5918 15.2257 33.5918 15.139ZM36.4987 20.9057L36.4987 20.9083C35.6764 20.9083 34.8541 20.9064 34.0311 20.9102C33.9172 20.9102 33.7981 20.9216 33.6912 20.9563C33.1695 21.1253 32.8657 21.6313 32.9353 22.1981C32.9986 22.7137 33.4987 23.1622 34.0539 23.1812C34.4527 23.1945 34.8528 23.1843 35.2523 23.1843C36.507 23.1843 36.6404 23.1888 37.8951 23.1793C38.0667 23.178 38.2572 23.1413 38.4041 23.0597C38.7959 22.8415 38.9916 22.2336 38.8592 21.7446C38.7187 21.2252 38.3256 20.9076 37.8141 20.9064C37.0019 20.9045 37.3109 20.9057 36.4987 20.9057ZM33.0575 18.7435C33.1835 19.4767 33.512 19.7582 34.2147 19.7601C35.1421 19.7633 36.0695 19.7664 36.997 19.7677C37.8712 19.769 37.6248 19.7816 38.499 19.762C39.07 19.7494 39.4777 19.2306 39.4771 18.6132C39.4758 18.0249 39.039 17.5188 38.4668 17.5378C37.2139 17.5783 37.0805 17.5524 35.8264 17.5612C35.4726 17.5637 35.1187 17.5916 34.7357 17.6093C34.7357 17.8092 34.7389 17.9857 34.7351 18.1622C34.7256 18.5898 34.5141 18.8093 34.0906 18.803C33.7557 18.7979 33.4208 18.765 33.0575 18.7423L33.0575 18.7435ZM34.7585 13.9225L34.7585 16.4238C34.8104 16.4358 34.8401 16.4485 34.8699 16.4485C36.293 16.439 36.5955 16.4282 38.0186 16.4168C38.3414 16.4143 38.5427 16.2182 38.7003 15.9696C38.9099 15.6394 38.9409 15.2731 38.8548 14.903C38.6896 14.1939 38.3338 13.9232 37.609 13.9225C36.4062 13.9225 36.3253 13.9225 35.1225 13.9225C35.0085 13.9225 34.8952 13.9225 34.7585 13.9225ZM35.9872 24.323C35.3447 24.323 34.7021 24.3205 34.059 24.3237C33.3822 24.3275 32.9891 24.7114 32.9796 25.3712C32.9714 25.9678 33.4379 26.4511 34.0558 26.4549C35.3624 26.4631 35.5478 26.4599 36.8544 26.4549C37.433 26.453 37.8052 26.0563 37.8002 25.4642C37.7945 24.8215 37.3754 24.3262 36.8253 24.323C36.1719 24.3192 36.6405 24.3224 35.9872 24.323Z" fill="#0B0C0C" stroke="black" stroke-width="0.3"/>
<path d="M3.00386 13.2811V19.3318V19.3329C3.00386 19.3329 3.00496 19.8814 3.00001 21.562C2.99451 23.2952 5.94695 25.1903 7.04896 25.8368L7.19422 32.7019C7.19422 33.0123 7.4458 33.2637 7.75705 33.2637C8.0683 33.2637 8.31988 33.0123 8.31988 32.7019L8.17461 26.3681C8.60986 26.5317 9.21118 26.7279 10.0113 26.9161C10.0547 26.926 10.0982 26.931 10.1408 26.931C10.3957 26.931 10.6272 26.7564 10.6882 26.4982C10.7592 26.1966 10.5717 25.8937 10.2695 25.8223C8.66815 25.4455 7.91093 25.0358 7.88839 25.0232L7.88674 25.0227C6.32336 24.1478 4.12236 22.4964 4.12566 21.565C4.13061 19.8778 4.12951 19.3304 4.12951 19.3304L4.13 13.8815C4.83278 13.949 5.34618 14.1395 5.69124 14.4861C6.3558 15.1535 6.34865 16.3395 6.34261 17.3891L6.34316 17.7034C6.34316 17.7083 6.34261 17.713 6.34261 17.7179L6.34371 19.0025C6.34371 19.3123 6.59611 19.5636 6.90653 19.5636C7.21695 19.5636 7.46936 19.3117 7.46936 19.0019V18.8696L7.47046 18.8641L7.46909 18.0659L7.46799 10.6591C7.46744 10.4862 7.58182 10.3361 7.67722 10.2406C7.92826 9.99061 8.33299 9.82926 8.71215 9.82926H8.71709C9.24583 9.82926 9.71407 10.1561 9.77786 10.5625C9.77896 11.9233 9.78446 11.5841 9.79711 15.5714L9.79821 15.9312C9.79876 16.2404 10.0509 16.4912 10.361 16.4912C10.6715 16.4907 10.9239 16.2396 10.9239 15.9298L10.9035 10.5263V10.5159C10.9024 9.34765 10.9035 8.9127 10.9057 8.78043C11.008 8.402 11.4312 8.12292 11.9126 8.12292H11.9214C12.562 8.12676 12.8331 8.56007 12.9456 8.93849C12.9478 9.08668 12.9494 9.49639 12.95 10.0836C12.9467 10.3106 12.945 8.67334 12.9417 13.8815C12.9412 14.7454 12.9406 15.4402 12.9406 15.7481C12.9401 15.8085 12.9401 15.8689 12.9401 15.9287C12.9395 16.2363 13.1873 16.4877 13.4963 16.4915H13.5029C13.8084 16.4915 14.0586 16.2481 14.0657 15.9424V15.9309C14.0756 11.1519 14.0784 11.3698 14.0751 10.1075C14.1383 9.72854 14.567 9.33475 15.1317 9.33475H15.1372C15.6764 9.33475 16.1304 9.67256 16.1686 10.0647C16.1697 10.1278 16.1708 10.8506 16.1713 11.8303C16.1636 12.1835 16.1592 10.8116 16.1752 15.9301V15.9317C16.1763 16.2415 16.4279 16.4918 16.738 16.4918H16.7391C17.0495 16.4912 17.3008 16.2402 17.3008 15.9303V15.9287C17.3008 15.7805 17.3008 15.6469 17.2997 15.5267C17.2992 15.3993 17.2986 15.269 17.2986 15.1373C17.3003 15.1192 17.3008 15.1005 17.3008 15.0824C17.2997 14.9128 17.2992 14.6797 17.2981 13.053C17.2975 11.9172 17.2975 12.4747 17.297 11.8471C17.3762 11.551 17.6187 11.1138 18.3567 11.1017C18.6462 11.1094 18.8513 11.1786 19.0138 11.3386C19.1694 11.4906 19.2547 11.7033 19.2538 11.9382L19.2522 20.9967C19.2522 22.9725 17.6253 24.7444 17.3349 25.0446C17.0418 25.2038 15.8029 25.8478 14.7372 25.9839C14.429 26.0235 14.2106 26.3047 14.2502 26.6126C14.2871 26.8961 14.5288 27.103 14.8081 27.103C14.8318 27.103 14.856 27.1014 14.8802 27.0986C15.6635 26.9985 16.4864 26.6875 17.0856 26.4194L17.1092 33.0072C17.1092 33.3175 17.3608 33.5689 17.672 33.5689C17.9833 33.5689 18.2348 33.3175 18.2348 33.0072L18.2112 25.7564C18.7127 25.2246 20.3781 23.2872 20.3781 20.9967L20.3798 11.9387C20.3803 11.4006 20.1757 10.9025 19.8032 10.5373C19.4251 10.1665 18.9035 9.98595 18.3369 9.97827C17.928 9.98485 17.5824 10.0727 17.2951 10.2143C17.2945 10.0205 17.2934 10.012 17.2918 9.99885C17.1953 8.97966 16.2692 8.21183 15.1403 8.21183H15.137C14.7452 8.21458 14.3275 8.3205 13.9896 8.51342C13.7212 7.753 13.0616 7.00659 11.9277 7H11.9112C10.8738 7 9.98463 7.66794 9.79381 8.59163C9.78831 8.61852 9.78336 8.64157 9.78006 8.95633C9.46304 8.79717 9.09955 8.70606 8.71902 8.70606H8.71022C8.03989 8.70606 7.33958 8.98899 6.88151 9.44589C6.5326 9.79413 6.34123 10.2258 6.34233 10.6607L6.34288 13.564C5.69592 12.9987 4.78775 12.7196 3.56668 12.7191C3.25599 12.7191 3.00386 12.9705 3.00386 13.2811Z" fill="#0B0C0C" stroke="black" stroke-width="0.3"/>
</g>
</svg>
