<svg width="40" height="40" viewBox="0 0 40 40" fill="none" xmlns="http://www.w3.org/2000/svg">
<g fill="#0B0C0C">
<path d="M 27.830078,9.234375 C 26.973979,9.210003 26.22853,9.4813833 25.556641,9.9609375 24.287877,10.867154 23.28943,12.029885 22.349609,13.232422 c -0.09883,0.127083 -0.139158,0.164062 -0.294921,0.164062 -0.350995,0 -0.550394,4.21e-4 -0.664063,0 -0.05683,-2.1e-4 -0.09253,-0.0017 -0.113281,-0.002 -0.0048,-5.8e-5 -0.0096,-1.65e-4 -0.01172,0 h -0.002 c -0.0019,-0.0012 -0.0313,-0.002 -0.275391,-0.002 -0.264728,7.53e-4 -0.48586,0.102893 -0.628906,0.271484 -0.142113,0.167492 -0.206186,0.389708 -0.207031,0.625 v 0.002 h -0.002 v 0.002 c -0.0095,0.08238 -0.02185,0.153228 -0.01563,0.230469 0.0067,0.0825 0.06522,0.189799 0.152343,0.234374 0.08712,0.04457 0.176636,0.05127 0.302735,0.05664 0.126098,0.0054 0.288731,0.004 0.507812,0 0.131399,7.2e-5 0.252261,0.0051 0.375,0.0098 -0.01721,0.075 -0.03555,0.163818 -0.05273,0.224609 -0.140617,0.493853 -0.293857,0.988675 -0.427734,1.490234 -0.101788,0.381648 0.05961,0.744134 0.384765,0.892579 0.217218,0.09947 0.45179,0.08582 0.636719,-0.02539 0.184929,-0.11121 0.318909,-0.308604 0.384766,-0.554688 0.289013,-1.078806 0.53599,-2.135004 1.271484,-2.984374 0.851842,-0.983096 1.671616,-1.975991 2.71875,-2.714844 0.317082,-0.223829 0.707713,-0.4411 1.027344,-0.455078 1.29982,-0.05606 2.606459,-0.04118 3.912109,-0.0059 0.413797,0.01098 0.724282,0.13086 0.933594,0.326172 0.209312,0.195313 0.326996,0.471236 0.333984,0.835938 0.02083,1.09173 -1.07e-4,2.187241 -0.0039,3.285156 v 0.261719 2.021484 c -0.58807,-0.0677 -1.080431,-0.210536 -1.398438,-0.505859 -0.354474,-0.32919 -0.564644,-0.807031 -0.625,-1.470704 -0.06921,-0.762328 -0.04734,-1.541609 -0.07031,-2.326171 -0.01196,-0.428435 -0.318548,-0.782699 -0.714844,-0.785157 -0.209698,-0.0012 -0.398322,0.07978 -0.525391,0.22461 -0.127068,0.144831 -0.192247,0.343957 -0.201171,0.568359 -0.0159,0.401768 -0.02324,0.798608 -0.08594,1.175781 -0.176516,1.059485 -0.666776,1.960335 -1.40625,2.75 -0.164018,0.175706 -0.263021,0.438912 -0.21875,0.685547 0.05004,0.282224 0.256934,0.480558 0.498047,0.541016 0.241113,0.06046 0.519364,-0.01032 0.71875,-0.222656 0.345307,-0.367639 0.653334,-0.763989 0.976562,-1.154297 0.284228,0.626311 0.677137,1.177166 1.298829,1.527344 -4.17e-4,-2.35e-4 0.01704,0.01483 0.02734,0.0293 0.005,0.007 0.0086,0.01466 0.0098,0.01758 0.0055,0.678477 0.246037,1.284421 0.673828,1.820313 -0.481647,0.478945 -0.72896,1.061761 -0.751953,1.699219 -0.02373,0.666104 0.264524,1.233034 0.722656,1.701172 -0.666655,0.774094 -0.770015,1.665954 -0.482422,2.611328 -0.455338,5.22e-4 -0.889407,0.0014 -1.316406,-0.002 -0.735587,-0.0058 -1.466597,0.04681 -2.166015,-0.03516 -1.622528,-0.18969 -3.001678,-0.990584 -4.328126,-1.935546 -0.03224,-0.02291 -0.07221,-0.06959 -0.09375,-0.111329 h 0.002 c -0.416678,-0.811414 -0.771882,-1.635177 -0.921875,-2.52539 -0.03765,-0.223835 -0.131001,-0.412502 -0.277344,-0.539063 -0.146343,-0.126561 -0.345007,-0.182166 -0.550781,-0.15039 -0.206698,0.03216 -0.383477,0.145527 -0.490235,0.310546 -0.106758,0.16502 -0.143153,0.37696 -0.09961,0.601563 0.0732,0.376417 0.164961,0.750827 0.277344,1.117187 0.09873,0.32091 0.22463,0.635952 0.345703,0.960938 -0.133487,0.0081 -0.270722,0.01758 -0.388672,0.01758 -0.243232,8.5e-5 -0.198654,-6.4e-5 -0.373047,0 h -0.002 c -0.235112,8.6e-5 -0.375874,-5.2e-5 -0.503906,0 h -0.002 c -0.004,2e-6 -0.01175,-1e-6 -0.01563,0 -9.27e-4,2.4e-5 -0.0041,-3.4e-5 -0.0059,0 -0.08765,3.6e-5 -0.314039,-2.1e-5 -0.357422,0 -0.0017,1e-6 -0.01207,-9e-6 -0.01367,0 -0.107161,5.86e-4 -0.174244,0.01446 -0.25396,0.0332 -0.153489,0.07685 -0.2421,0.248922 -0.322265,0.392577 -0.113003,0.202499 -0.176019,0.396342 -0.177735,0.548829 v 0.002 c -0.0055,0.106361 0.0092,0.200925 0.05859,0.279297 0.04972,0.0789 0.130476,0.127925 0.205078,0.15039 0.149204,0.04493 0.294079,0.02344 0.421875,0.02344 0.0173,0 0.389578,0.0034 0.738281,0.0059 0.174352,0.0012 0.345186,0.003 0.466797,0.0039 0.0608,4.64e-4 0.10975,0 0.140625,0 h 0.03125 l -0.02539,-0.002 0.0293,0.002 h 0.0039 0.0059 c 0.243278,3.32e-4 0.577243,0.0162 0.865234,0.04102 0.145618,0.01255 0.280399,0.02662 0.382813,0.04297 0.08321,0.01328 0.1542,0.03816 0.167969,0.04102 h 0.002 c 0.592993,0.357422 1.167872,0.767687 1.794922,1.105469 1.106256,0.595171 2.291404,1.044312 3.585937,1.052734 3.102056,0.0209 5.081888,0.01222 8.183594,0.0059 1.08049,-0.002 1.94858,-0.774564 2.138672,-1.871094 0.09729,-0.563035 -0.04277,-1.079076 -0.248047,-1.574219 1.349419,-0.710419 1.707095,-2.317758 0.910156,-3.675781 0.680517,-0.457608 1.045619,-1.119212 1.048828,-1.960938 0.0032,-0.839625 -0.373742,-1.493121 -0.980468,-2.013671 0.419567,-0.736661 0.504552,-1.514784 0.255859,-2.308594 -0.342181,-1.090631 -1.160996,-1.699219 -2.296875,-1.699219 h -2.646484 -0.207032 c 0.0029,-0.251421 0.01137,-0.489761 -0.0039,-0.724609 -0.01825,-0.27167 -0.03501,-0.560799 -0.115116,-0.841878 -0.314603,-1.1023893 -1.376374,-1.8221277 -2.640625,-1.8300782 -1.152736,-0.00697 -2.30176,0.021642 -3.445313,-0.011719 z m 6.228516,4.837891 h 0.214844 2.486328 c 0.343749,3.32e-4 0.575037,0.0643 0.740234,0.193359 0.165197,0.129055 0.281217,0.336393 0.359375,0.671875 0.07935,0.341086 0.05152,0.657698 -0.134766,0.951172 h -0.002 c -0.145773,0.229944 -0.292149,0.376873 -0.554687,0.378906 -1.406027,0.01126 -1.731646,0.02184 -3.109375,0.03125 z m 3.5625,3.615234 c 0.481367,-0.01598 0.854332,0.411538 0.855468,0.925781 5.36e-4,0.551284 -0.348295,0.987416 -0.830078,0.998047 -0.873391,0.01958 -0.624316,0.0072 -1.5,0.0059 -0.927306,-0.0013 -1.85386,-0.0046 -2.78125,-0.0078 -0.331383,-8.96e-4 -0.547056,-0.06602 -0.697265,-0.197266 -0.109632,-0.09579 -0.167561,-0.301445 -0.228516,-0.505859 0.269254,0.01949 0.535466,0.04286 0.798828,0.04687 0.238028,0.0035 0.444095,-0.05862 0.585938,-0.201172 0.141843,-0.142556 0.205651,-0.347994 0.210937,-0.585937 0.0029,-0.133607 7.32e-4,-0.272147 0,-0.41211 0.327946,-0.01721 0.640369,-0.04084 0.941406,-0.04297 1.251962,-0.0088 1.389224,0.01714 2.644532,-0.02344 z m -1.822266,3.369141 c 0.518086,-1.94e-4 0.444841,-0.0017 1.164063,0 0.449589,0.0011 0.776234,0.26036 0.902343,0.726562 0.11446,0.422739 -0.07788,0.973621 -0.384765,1.144531 -0.115467,0.06414 -0.284491,0.100419 -0.435547,0.101563 -1.254261,0.0095 -1.38752,0.0059 -2.642578,0.0059 -0.402053,0 -0.800453,0.0092 -1.19336,-0.0039 -0.477637,-0.01635 -0.921671,-0.420361 -0.974609,-0.851562 -0.06185,-0.503672 0.197909,-0.932869 0.652344,-1.080079 0.08496,-0.02758 0.19103,-0.03906 0.294922,-0.03906 0.822307,-0.0038 1.644265,-0.002 2.466797,-0.002 h 0.15039 z m -0.662109,3.416015 c 0.653855,-6e-4 0.184563,-0.0038 0.83789,0 0.46051,0.0027 0.821044,0.414006 0.826172,0.992188 0.0022,0.26434 -0.078,0.471287 -0.21289,0.613281 -0.134892,0.141994 -0.32886,0.225725 -0.583985,0.226563 -1.30679,0.005 -1.490609,0.0082 -2.796875,0 -0.540152,-0.0033 -0.934844,-0.414325 -0.927734,-0.931641 0.0043,-0.300539 0.09274,-0.516891 0.244141,-0.664063 0.151398,-0.147171 0.375343,-0.232633 0.685546,-0.234375 0.642214,-0.0032 1.284846,-0.002 1.927735,-0.002 z"/>
<path d="M 11.060547 6.8496094 C 9.9587608 6.8496094 9.0034745 7.5604741 8.796875 8.5605469 L 8.796875 8.5625 C 8.794205 8.575533 8.7896494 8.6056011 8.7871094 8.6582031 C 8.7861412 8.6782791 8.7840331 8.7396651 8.7832031 8.7714844 C 8.4957692 8.6573901 8.1966195 8.5566406 7.8691406 8.5566406 L 7.859375 8.5566406 C 7.1468374 8.5566406 6.4160512 8.8508261 5.9257812 9.3398438 C 5.5524183 9.7124941 5.3405849 10.181002 5.3417969 10.660156 L 5.34375 13.316406 C 4.6825622 12.837557 3.8348169 12.568817 2.7167969 12.568359 C 2.3251902 12.568359 2.003906 12.889475 2.0039062 13.28125 L 2.0039062 19.332031 L 2.0039062 19.333984 C 2.0039062 19.333984 2.00495 19.882062 2 21.5625 C 1.99698 22.514445 2.7725411 23.436549 3.6601562 24.21875 C 4.5218139 24.978077 5.4854352 25.581915 6.0507812 25.916016 L 6.1933594 32.701172 C 6.1933594 33.092622 6.5142289 33.414063 6.90625 33.414062 C 7.2982711 33.414062 7.6191406 33.092622 7.6191406 32.701172 L 7.6191406 32.699219 L 7.4785156 26.570312 C 7.903627 26.723513 8.4105738 26.893997 9.1269531 27.0625 L 9.1289062 27.0625 C 9.1828183 27.0748 9.2366785 27.080078 9.2910156 27.080078 C 9.6144131 27.080078 9.9073292 26.859322 9.984375 26.533203 C 10.074013 26.152459 9.8342014 25.765817 9.453125 25.675781 C 8.6591177 25.48895 8.0773818 25.295152 7.6914062 25.146484 C 7.3054307 24.997817 7.102548 24.88767 7.1113281 24.892578 L 7.109375 24.892578 L 7.0996094 24.886719 L 7.0976562 24.884766 C 6.3270148 24.452601 5.3975189 23.828021 4.6660156 23.201172 C 4.2985225 22.886255 3.9822102 22.569907 3.7617188 22.283203 C 3.5412272 21.9965 3.4251661 21.740023 3.4257812 21.566406 C 3.4307313 19.879046 3.4296875 19.330078 3.4296875 19.330078 L 3.4296875 14.09375 C 3.9955026 14.17531 4.4572511 14.313436 4.734375 14.591797 C 5.3358621 15.195854 5.3478371 16.339041 5.3417969 17.388672 L 5.34375 17.701172 L 5.3417969 17.703125 C 5.3413191 17.705859 5.3417969 17.710843 5.3417969 17.71875 L 5.34375 19.001953 C 5.34375 19.393225 5.6652658 19.712891 6.0566406 19.712891 C 6.4482088 19.712891 6.7695314 19.393228 6.7695312 19.001953 L 6.7695312 18.884766 L 6.7695312 18.878906 L 6.7695312 18.066406 L 6.7675781 10.658203 C 6.7672411 10.552251 6.8517572 10.429964 6.9335938 10.347656 C 7.1503814 10.131775 7.5247228 9.9785156 7.8613281 9.9785156 L 7.8671875 9.9785156 C 8.3329587 9.9785156 8.7274794 10.277303 8.7773438 10.583984 C 8.7784737 11.924961 8.784284 11.602229 8.796875 15.572266 L 8.7988281 15.931641 C 8.7995229 16.322242 9.1207416 16.640625 9.5117188 16.640625 C 9.902957 16.639995 10.224609 16.320958 10.224609 15.929688 L 10.203125 10.525391 L 10.203125 10.515625 C 10.202025 9.371209 10.20299 8.9558779 10.205078 8.8183594 C 10.287048 8.5242423 10.640876 8.2734375 11.0625 8.2734375 L 11.072266 8.2734375 C 11.357484 8.2756575 11.541662 8.3668505 11.677734 8.4980469 C 11.811391 8.6269138 11.893612 8.8013697 11.945312 8.9707031 C 11.947413 9.1253657 11.948619 9.5120273 11.949219 10.083984 C 11.946119 10.297754 11.944706 8.6753249 11.941406 13.880859 C 11.940906 14.744736 11.941406 15.439952 11.941406 15.748047 C 11.940916 15.808607 11.939453 15.868577 11.939453 15.927734 C 11.938696 16.316053 12.255176 16.635837 12.644531 16.640625 L 12.652344 16.640625 C 13.037516 16.640625 13.356278 16.330943 13.365234 15.945312 L 13.365234 15.943359 L 13.365234 15.931641 C 13.375134 11.17194 13.3782 11.376498 13.375 10.130859 C 13.4243 9.8441793 13.787493 9.484375 14.28125 9.484375 L 14.287109 9.484375 C 14.762446 9.484375 15.138378 9.7924771 15.167969 10.078125 C 15.168754 10.131845 15.171375 10.856962 15.171875 11.830078 C 15.164375 12.170015 15.159801 10.816058 15.175781 15.929688 L 15.175781 15.931641 C 15.177181 16.322366 15.497856 16.642578 15.888672 16.642578 C 16.279778 16.641822 16.601562 16.320678 16.601562 15.929688 L 16.601562 15.927734 C 16.601562 15.779534 16.600766 15.646608 16.599609 15.525391 C 16.599127 15.402405 16.597756 15.276939 16.597656 15.150391 L 16.597656 15.148438 C 16.597655 15.144438 16.597656 15.140639 16.597656 15.136719 C 16.598956 15.117339 16.601562 15.098741 16.601562 15.082031 C 16.600462 14.913028 16.598756 14.679413 16.597656 13.052734 C 16.597071 11.944522 16.598121 12.434672 16.597656 11.876953 C 16.632956 11.749926 16.69805 11.598418 16.830078 11.478516 C 16.964549 11.356395 17.169879 11.260558 17.505859 11.253906 C 17.769767 11.261706 17.926626 11.315376 18.058594 11.445312 C 18.18376 11.567581 18.254666 11.739259 18.253906 11.9375 L 18.251953 20.996094 C 18.251953 22.876449 16.686598 24.612345 16.390625 24.919922 C 16.089736 25.082676 14.881035 25.706709 13.869141 25.835938 L 13.867188 25.835938 C 13.478846 25.885838 13.201978 26.242291 13.251953 26.630859 L 13.251953 26.632812 C 13.298463 26.990185 13.605606 27.253906 13.958984 27.253906 C 13.989434 27.253906 14.017815 27.251447 14.046875 27.248047 L 14.048828 27.248047 C 14.781914 27.154367 15.499961 26.872587 16.085938 26.621094 L 16.109375 33.007812 C 16.109375 33.399195 16.430282 33.71875 16.822266 33.71875 C 17.214324 33.71875 17.535156 33.399164 17.535156 33.007812 L 17.511719 25.804688 C 18.052083 25.226284 19.677734 23.322173 19.677734 20.996094 L 19.679688 11.939453 C 19.680224 11.363244 19.460174 10.823397 19.058594 10.429688 C 18.648635 10.027643 18.085491 9.8362199 17.488281 9.828125 L 17.486328 9.828125 L 17.484375 9.828125 C 17.138004 9.833695 16.859335 9.927858 16.591797 10.03125 C 16.591417 10.02555 16.590244 9.9832357 16.589844 9.9804688 C 16.483312 8.8811422 15.486259 8.0625 14.291016 8.0625 L 14.287109 8.0625 L 14.285156 8.0625 C 13.913877 8.0651062 13.538015 8.1826409 13.201172 8.3476562 C 12.888891 7.5878753 12.214724 6.8562151 11.078125 6.8496094 L 11.060547 6.8496094 z"/>
</g>
</svg>
