<svg width="40" height="40" viewBox="0 0 40 40" fill="none" xmlns="http://www.w3.org/2000/svg">
<style>
:root {color: #0B0C0C}
@media (forced-colors: active) and (prefers-color-scheme: dark) {
  :root {color: #F3F2F1}
}
</style>
<path d="M11 34L5 29L11 24L13.1 25.75L10.7 27.75H29.3L26.9 25.75L29 24L35 29L29 34L26.9 32.25L29.3 30.25H10.7L13.1 32.25L11 34Z" fill="currentColor"/>
<path d="M30.0003 7.5C30.6682 7.50008 31.3098 7.85762 31.801 8.50781C32.2924 9.15825 32.6115 10.079 32.6116 11.1172C32.6116 12.1555 32.2925 13.077 31.801 13.7275C31.3098 14.3777 30.6682 14.7353 30.0003 14.7354C29.3322 14.7354 28.6908 14.3778 28.1995 13.7275C27.708 13.077 27.3889 12.1556 27.3889 11.1172C27.389 10.0789 27.708 9.15826 28.1995 8.50781C28.6908 7.85755 29.3322 7.5 30.0003 7.5Z" stroke="currentColor"/>
<path d="M24.1864 16.8367C22.7331 17.7974 23.0237 21.0001 23.0237 21.0001H36.9763C36.9763 21.0001 37.2669 17.7974 35.8136 16.8367C34.3602 15.8759 33.1974 15.2354 33.1974 15.2354C33.1974 15.2354 31.3716 16.8367 30 16.8367C28.6284 16.8367 26.8025 15.2354 26.8025 15.2354C26.8025 15.2354 25.6398 15.8759 24.1864 16.8367Z" stroke="currentColor"/>
<path d="M10.0002 7.5C10.6682 7.50008 11.3098 7.85762 11.801 8.50781C12.2924 9.15825 12.6115 10.079 12.6116 11.1172C12.6116 12.1555 12.2925 13.077 11.801 13.7275C11.3098 14.3777 10.6682 14.7353 10.0002 14.7354C9.33221 14.7354 8.69077 14.3778 8.19946 13.7275C7.70794 13.077 7.38892 12.1556 7.38892 11.1172C7.38901 10.0789 7.70803 9.15826 8.19946 8.50781C8.69077 7.85755 9.33221 7.5 10.0002 7.5Z" stroke="currentColor"/>
<path d="M4.18645 16.8367C2.73306 17.7974 3.02373 21.0001 3.02373 21.0001H16.9763C16.9763 21.0001 17.2669 17.7974 15.8136 16.8367C14.3602 15.8759 13.1974 15.2354 13.1974 15.2354C13.1974 15.2354 11.3716 16.8367 9.99999 16.8367C8.62836 16.8367 6.80253 15.2354 6.80253 15.2354C6.80253 15.2354 5.63984 15.8759 4.18645 16.8367Z" stroke="currentColor"/>
</svg>
