<svg width="40" height="40" viewBox="0 0 40 40" fill="none" xmlns="http://www.w3.org/2000/svg">
<style>
:root {color: #0B0C0C}
@media (forced-colors: active) and (prefers-color-scheme: dark) {
  :root {color: #F3F2F1}
}
</style>
<g fill="currentColor">
<path d="M5.07617 18.9951C5.63055 18.9953 6.08008 19.4456 6.08008 20C6.08008 27.1474 11.874 32.9414 19.0215 32.9414C22.1516 32.9414 25.0218 31.8299 27.2598 29.9805C27.4419 30.6584 27.7502 31.2844 28.1582 31.832C25.6314 33.7861 22.4627 34.9502 19.0215 34.9502C10.765 34.9502 4.07129 28.2565 4.07129 20C4.07129 19.4455 4.52163 18.9951 5.07617 18.9951Z"/>
<path d="M19.0215 5.0498C27.278 5.0498 33.9717 11.7435 33.9717 20C33.9717 21.0819 33.855 22.1366 33.6367 23.1533C33.292 23.0857 32.9358 23.0498 32.5713 23.0498C32.2321 23.0498 31.9003 23.0818 31.5781 23.1406C31.8288 22.1351 31.9629 21.0832 31.9629 20C31.9629 13.1908 26.7041 7.61356 20.0264 7.10059V12.0977C20.0262 12.652 19.5759 13.1016 19.0215 13.1016C18.4671 13.1016 18.0168 12.652 18.0166 12.0977V6.05469C18.0166 5.50015 18.4669 5.04981 19.0215 5.0498Z"/>
<path d="M17.3857 19.4111C18.0226 18.7742 25.3974 12.4314 26.0352 13.0674C26.6719 13.7042 20.3316 21.0771 19.6924 21.7168C19.0555 22.3537 18.0227 22.3537 17.3857 21.7168C16.749 21.0799 16.7489 20.048 17.3857 19.4111Z"/>
<path d="M5.07129 15.0498C5.62357 15.0498 6.07129 15.4975 6.07129 16.0498C6.07129 16.6021 5.62357 17.0498 5.07129 17.0498C4.519 17.0498 4.07129 16.6021 4.07129 16.0498C4.07129 15.4975 4.519 15.0498 5.07129 15.0498Z"/>
<path d="M7.07129 11.0498C7.62357 11.0498 8.07129 11.4975 8.07129 12.0498C8.07129 12.6021 7.62357 13.0498 7.07129 13.0498C6.519 13.0498 6.07129 12.6021 6.07129 12.0498C6.07129 11.4975 6.519 11.0498 7.07129 11.0498Z"/>
<path d="M10.3711 7.5498C10.9234 7.5498 11.3711 7.99752 11.3711 8.5498C11.3711 9.10209 10.9234 9.5498 10.3711 9.5498C9.81892 9.54967 9.37109 9.10201 9.37109 8.5498C9.37109 7.9976 9.81892 7.54994 10.3711 7.5498Z"/>
<path d="M15.0713 5.0498C15.6236 5.0498 16.0713 5.49752 16.0713 6.0498C16.0713 6.60209 15.6236 7.0498 15.0713 7.0498C14.519 7.0498 14.0713 6.60209 14.0713 6.0498C14.0713 5.49752 14.519 5.0498 15.0713 5.0498Z"/>
<path d="M33.5 22.0498C37.0503 22.0499 39.9287 24.9282 39.9287 28.4785C39.9286 32.0288 37.0503 34.9072 33.5 34.9072C29.9496 34.9072 27.0714 32.0289 27.0713 28.4785C27.0713 24.9281 29.9496 22.0498 33.5 22.0498ZM32.3223 27.3018H29.25V29.6592H32.3223V32.7305H34.6797V29.6592H37.751V27.3018H34.6797V24.2305H32.3223V27.3018Z"/>
</g>
</svg>
