<svg width="40" height="40" viewBox="0 0 40 40" fill="none" xmlns="http://www.w3.org/2000/svg">
<style>
path {fill: #0B0C0C}
@media (forced-colors: active) and (prefers-color-scheme: dark) {
  path {fill: #F3F2F1}
}
</style>
<path d="M 5.6425781 7 C 4.5498476 7 3.6425781 7.9072695 3.6425781 9 L 3.6425781 30.490234 C 3.6425781 31.582963 4.5517041 32.490234 5.6445312 32.490234 L 9.0429688 32.490234 L 9.0429688 40 L 16.175781 32.787109 C 16.364067 32.596719 16.619035 32.490234 16.886719 32.490234 L 28.644531 32.490234 C 29.737357 32.490234 30.644531 31.58306 30.644531 30.490234 L 30.644531 26.318359 C 30.635552 26.319356 30.626178 26.319354 30.617188 26.320312 C 33.843096 25.975798 36.357422 23.24492 36.357422 19.927734 C 36.357422 16.608765 33.841691 13.879017 30.613281 13.537109 C 30.62356 13.538198 30.634267 13.537924 30.644531 13.539062 L 30.644531 9 C 30.644531 7.9071729 29.73726 7 28.644531 7 L 5.6425781 7 z M 5.6425781 9 L 28.644531 9 L 28.644531 13.628906 C 25.709149 14.223424 23.5 16.816773 23.5 19.927734 C 23.5 23.038696 25.709149 25.633627 28.644531 26.228516 L 28.644531 30.490234 L 16.886719 30.490234 C 16.085602 30.490234 15.315267 30.81125 14.751953 31.380859 L 11.042969 35.132812 L 11.042969 32.490234 L 11.042969 30.490234 L 9.0429688 30.490234 L 5.6445312 30.490234 L 5.6425781 9 z M 28.751953 15.681641 L 31.107422 15.681641 L 31.107422 18.751953 L 34.179688 18.751953 L 34.179688 21.109375 L 31.107422 21.109375 L 31.107422 24.181641 L 28.751953 24.181641 L 28.751953 21.109375 L 25.679688 21.109375 L 25.679688 18.751953 L 28.751953 18.751953 L 28.751953 15.681641 z"/>
</svg>
