<svg width="40" height="40" viewBox="0 0 40 40" fill="none" xmlns="http://www.w3.org/2000/svg">
<style>
:root {color: #0B0C0C}
@media (forced-colors: active) and (prefers-color-scheme: dark) {
  :root {color: #F3F2F1}
}
</style>
<g fill="currentColor">
<path d="M21.2765 22V18.7235H18V17.2765H21.2765V14H22.7235V17.2765H26V18.7235H22.7235V22H21.2765Z"/>
<path d="M21.2765 22V18.7235H18V17.2765H21.2765V14H22.7235V17.2765H26V18.7235H22.7235V22H21.2765Z"/>
<path d="M9.97157 6C8.88397 6 8 6.89294 8 7.99157C8 8.73794 8.40846 9.38825 9.012 9.72942V34.9988H10.9311V9.72942C11.5347 9.38825 11.9431 8.73794 11.9431 7.99157C11.9431 6.89294 11.0592 6 9.97157 6Z"/>
<path d="m 16.611328,9.0214844 c -1.293237,0.0653 -2.564275,0.2888596 -3.828125,0.71875 L 12.109375,9.96875 12.001953,25.652344 13.400391,25.064453 c 0.348468,-0.146527 0.747646,-0.248047 1.197265,-0.248047 1.497966,0 2.539564,0.131931 3.59961,0.355469 l 0.0078,0.002 0.0078,0.002 c 1.016729,0.196899 2.020574,0.486606 3,0.771485 v 0.002 c 0.110752,0.03214 0.223022,0.0636 0.333984,0.0957 1.101145,0.318728 2.180972,0.618033 3.328125,0.785156 l 0.01172,0.002 0.01367,0.002 c 2.522851,0.300963 5.032892,0.233246 7.40625,-0.53125 L 33,26.080078 V 10.066406 l -1.326172,0.458985 c -1.579663,0.545959 -3.182386,0.501742 -4.806641,0.220703 -1.030428,-0.178329 -2.088865,-0.458338 -3.128906,-0.736328 l -0.07422,-0.019532 c -1.023448,-0.2735862 -2.02939,-0.544163 -3.05664,-0.734375 L 20.591797,9.2539063 20.574219,9.25 C 19.220724,9.0484744 17.904565,8.9561843 16.611328,9.0214844 Z m 0.107422,1.9941406 c 1.124743,-0.05604 2.295611,0.02729 3.546875,0.212891 0.915989,0.170754 1.864939,0.421785 2.880859,0.693359 l 0.07422,0.02148 c 1.042359,0.27861 2.156716,0.574767 3.304688,0.773438 1.405586,0.243204 2.928533,0.22565 4.474609,-0.06641 v 11.875 c -1.826845,0.467264 -3.780833,0.568653 -5.853516,0.322265 -0.979863,-0.144028 -1.965421,-0.412145 -3.044922,-0.724609 -0.108838,-0.03149 -0.21823,-0.06324 -0.330078,-0.0957 -0.979009,-0.284757 -2.042045,-0.594774 -3.175781,-0.814453 h -0.002 c -1.16463,-0.244765 -2.382983,-0.396485 -3.996094,-0.396485 -0.220375,0 -0.371399,0.09242 -0.576172,0.119141 l 0.07813,-11.427734 c 0.861661,-0.237174 1.720616,-0.447419 2.619141,-0.492188 z"/>
</g>
</svg>
