<svg width="24" height="18" viewBox="0 0 24 18" fill="none" xmlns="http://www.w3.org/2000/svg">
<path fill-rule="evenodd" clip-rule="evenodd" d="M12.9351 4.84277C15.6211 4.97829 17.7571 7.18753 17.7572 9.89258L17.7503 10.1523C17.6142 12.8237 15.3936 14.9479 12.6739 14.9482L12.4118 14.9414C9.81233 14.8103 7.72832 12.7377 7.59652 10.1523L7.58965 9.89258C7.58976 7.1002 9.86627 4.83594 12.6739 4.83594L12.9351 4.84277ZM12.6739 6.33594C10.6992 6.33594 9.09795 7.92863 9.09785 9.89258C9.0981 11.8564 10.6993 13.4482 12.6739 13.4482C14.6482 13.4479 16.2488 11.8562 16.249 9.89258C16.2489 7.92884 14.6483 6.33627 12.6739 6.33594Z" fill="black"/>
<path fill-rule="evenodd" clip-rule="evenodd" d="M15.2671 0.193359C16.0986 0.254745 16.8346 0.768568 17.172 1.53613L17.5981 2.50586H21.7143C22.9635 2.50597 23.9764 3.51346 23.9766 4.75586V15.5088L23.9648 15.7393C23.8563 16.7975 23.0103 17.6393 21.946 17.7471L21.7143 17.7588H3.23886C2.06756 17.7588 1.10459 16.8732 0.988345 15.7393L0.976562 15.5088V4.75586C0.976721 3.51348 1.9894 2.50586 3.23886 2.50586H7.354L7.78014 1.53613C8.14035 0.716788 8.95521 0.18757 9.85391 0.1875H15.0992L15.2671 0.193359ZM9.85391 1.6875C9.55405 1.68755 9.28258 1.86482 9.16265 2.1377L8.53915 3.55664C8.41907 3.82962 8.1475 4.00586 7.84789 4.00586H3.23886C2.82257 4.00586 2.48486 4.34161 2.48476 4.75586V15.5088L2.48869 15.585C2.52728 15.9635 2.84864 16.2588 3.23886 16.2588H21.7143L21.7909 16.2549C22.1458 16.2192 22.4284 15.9383 22.4644 15.585L22.4684 15.5088V4.75586C22.4683 4.36747 22.1712 4.04802 21.7909 4.00977L21.7143 4.00586H17.1043C16.8046 4.00586 16.5331 3.82962 16.413 3.55664L15.7895 2.1377C15.6844 1.89857 15.4641 1.73291 15.2102 1.69531L15.0992 1.6875H9.85391Z" fill="black"/>
</svg>
