<svg width="22" height="22" viewBox="0 0 22 22" fill="none" xmlns="http://www.w3.org/2000/svg">
<path d="M6.7778 1.90039C6.29137 1.90039 5.90002 2.30121 5.90002 2.79193V15.4566C5.90002 15.9474 6.29137 16.3482 6.7778 16.3482H19.2222C19.7087 16.3482 20.1 15.9474 20.1 15.4566C20.1 14.9659 19.7087 14.5651 19.2222 14.5651H7.65558V2.79193C7.65558 2.30121 7.26423 1.90039 6.7778 1.90039Z" fill="#0B0C0C"/>
<path d="M2.78263 5.56411C2.29354 5.56411 1.90002 5.96713 1.90002 6.46057C1.90002 6.95401 2.29354 7.35703 2.78263 7.35703H4.34785C4.40308 7.35703 4.44785 7.31226 4.44785 7.25703V5.66411C4.44785 5.60888 4.40308 5.56411 4.34785 5.56411H2.78263Z" fill="#0B0C0C"/>
<path d="M9.0435 5.56411C9.01698 5.56411 8.99155 5.57464 8.97279 5.5934C8.95404 5.61215 8.9435 5.63759 8.9435 5.66411V7.25703C8.9435 7.31226 8.98827 7.35703 9.0435 7.35703L14.4218 7.35703L14.4218 12.8322C14.4218 12.8588 14.4323 12.8842 14.4511 12.903C14.4698 12.9217 14.4952 12.9323 14.5218 12.9323H16.087C16.1422 12.9323 16.187 12.8875 16.187 12.8322V6.46057C16.187 5.96713 15.7935 5.56411 15.3044 5.56411L9.0435 5.56411Z" fill="#0B0C0C"/>
<path d="M14.5218 17.511C14.4665 17.511 14.4218 17.5558 14.4218 17.611V19.2039C14.4218 19.6974 14.8153 20.1004 15.3044 20.1004C15.7935 20.1004 16.187 19.6974 16.187 19.2039V17.611C16.187 17.5558 16.1422 17.511 16.087 17.511H14.5218Z" fill="#0B0C0C"/>
</svg>