<svg width="69" height="47" viewBox="0 0 69 47" fill="none" xmlns="http://www.w3.org/2000/svg">
<path d="M41.8999 0.015625C44.0562 0.17569 45.9652 1.51517 46.8403 3.5166L47.9458 6.04492H58.6196C60.2824 6.04507 61.7825 6.73895 62.8501 7.85059L65.7271 6.19141C66.6625 5.65171 67.8591 5.97184 68.3989 6.90723C68.9387 7.84277 68.6177 9.03936 67.6821 9.5791L64.4653 11.4346C64.4781 11.5921 64.4868 11.7513 64.4868 11.9121V39.9502L64.4565 40.5518C64.1751 43.3111 61.9813 45.506 59.2212 45.7871L58.6196 45.8174H10.7065C9.33066 45.8173 8.06623 45.343 7.06592 44.5498L3.2749 46.7373C2.33936 47.277 1.14276 46.9561 0.603027 46.0205C0.063345 45.085 0.384456 43.8894 1.31982 43.3496L4.98291 41.2354C4.93294 41.0119 4.89429 40.784 4.87061 40.5518L4.84033 39.9502V11.9121C4.84075 8.67266 7.46638 6.04507 10.7065 6.04492H21.3784L22.4839 3.5166C23.418 1.38019 25.5312 0.000255599 27.8618 0H41.4653L41.8999 0.015625ZM47.6782 21.1191C48.1185 22.4347 48.3579 23.8429 48.3579 25.3066L48.3394 25.9834C47.9862 32.9491 42.2276 38.4886 35.1743 38.4893L34.4946 38.4717C30.8348 38.286 27.571 36.606 25.2954 34.0322L11.6489 41.9062H58.6196L58.8188 41.8965C59.7394 41.8033 60.4724 41.0706 60.5659 40.1494L60.5757 39.9502V13.6787L47.6782 21.1191ZM27.8618 3.91113C27.0843 3.91133 26.3798 4.3735 26.0688 5.08496L24.4526 8.78516C24.1412 9.49696 23.4367 9.95605 22.6597 9.95605H10.7065C9.6271 9.95621 8.75174 10.832 8.75146 11.9121V39.0615L23.1626 30.7471C22.4981 29.2826 22.0931 27.6751 22.0073 25.9834L21.9897 25.3066C21.9897 18.0254 27.8931 12.1213 35.1743 12.1211L35.8521 12.1387C39.9908 12.3485 43.626 14.4673 45.895 17.6318L59.0952 10.0166C59.0053 9.99411 58.9132 9.97635 58.8188 9.9668L58.6196 9.95605H46.6646C45.8876 9.95599 45.183 9.49691 44.8716 8.78516L43.2554 5.08496C42.9828 4.46149 42.411 4.02968 41.7524 3.93164L41.4653 3.91113H27.8618ZM28.7837 32.0195C30.4474 33.6031 32.6963 34.578 35.1743 34.5781C40.2945 34.5775 44.445 30.4268 44.4458 25.3066C44.4458 24.558 44.3555 23.8301 44.188 23.1328L28.7837 32.0195ZM35.1743 16.0322C30.0532 16.0325 25.9009 20.1855 25.9009 25.3066C25.9011 26.5345 26.1419 27.7058 26.5757 28.7783L42.481 19.6016C40.784 17.4304 38.1432 16.0326 35.1743 16.0322Z" fill="white"/>
</svg>
