<svg width="22" height="24" viewBox="0 0 22 24" fill="none" xmlns="http://www.w3.org/2000/svg">
<style>
:root {color: #0B0C0C}
@media (forced-colors: active) and (prefers-color-scheme: dark) {
  :root {color: #F3F2F1}
}
</style>
<g fill="currentColor">
<path d="M14.4552 20.6378L14.1575 19.6097C14.1147 19.4618 13.9279 19.4158 13.8212 19.5268L11.5412 21.9001C11.4345 22.0111 11.4881 22.196 11.6375 22.2328L14.8329 23.0207C14.9824 23.0576 15.1157 22.9188 15.0729 22.7709L14.7756 21.7442C17.9054 20.6561 20.3867 18.1859 21.4902 15.0638C21.5961 14.7644 21.4391 14.4359 21.1397 14.3301C20.8403 14.2242 20.5118 14.3812 20.4059 14.6806C19.4254 17.4546 17.2274 19.6545 14.4552 20.6378Z"/>
<path d="M7.54482 3.36158L7.84251 4.38967C7.88533 4.53756 8.07218 4.58363 8.17884 4.47261L10.4589 2.09931C10.5655 1.98828 10.512 1.80342 10.3625 1.76656L7.16716 0.978666C7.01768 0.941806 6.88435 1.08059 6.92717 1.22848L7.22446 2.25519C4.09464 3.34326 1.61331 5.81346 0.509813 8.93554C0.403982 9.23496 0.560919 9.56348 0.860342 9.66932C1.15977 9.77515 1.48829 9.61821 1.59412 9.31879C2.5746 6.54476 4.7726 4.34489 7.54482 3.36158Z"/>
<path d="M16.0899 9.86133C16.0899 8.31493 14.8363 7.06133 13.2899 7.06133H8.96193C7.41553 7.06133 6.16193 8.31493 6.16193 9.86133V14.1893C6.16193 15.7357 7.41553 16.9893 8.96193 16.9893H13.2899C14.8363 16.9893 16.0899 15.7357 16.0899 14.1893V9.86133ZM13.2899 8.66133C13.9526 8.66133 14.4899 9.19859 14.4899 9.86133V14.1893C14.4899 14.852 13.9526 15.3893 13.2899 15.3893H8.96193C8.29918 15.3893 7.76193 14.852 7.76193 14.1893V9.86133C7.76193 9.19859 8.29918 8.66133 8.96193 8.66133H13.2899Z"/>
</g>
</svg>
